<?xml version="1.0" encoding="utf-8" standalone="no"?>
<!DOCTYPE svg PUBLIC "-//W3C//DTD SVG 1.1//EN"
  "http://www.w3.org/Graphics/SVG/1.1/DTD/svg11.dtd">
<svg xmlns:xlink="http://www.w3.org/1999/xlink" width="460.8pt" height="345.6pt" viewBox="0 0 460.8 345.6" xmlns="http://www.w3.org/2000/svg" version="1.1">
 <metadata>
  <rdf:RDF xmlns:dc="http://purl.org/dc/elements/1.1/" xmlns:cc="http://creativecommons.org/ns#" xmlns:rdf="http://www.w3.org/1999/02/22-rdf-syntax-ns#">
   <cc:Work>
    <dc:type rdf:resource="http://purl.org/dc/dcmitype/StillImage"/>
    <dc:date>2025-05-29T14:01:37.405255</dc:date>
    <dc:format>image/svg+xml</dc:format>
    <dc:creator>
     <cc:Agent>
      <dc:title>Matplotlib v3.10.3, https://matplotlib.org/</dc:title>
     </cc:Agent>
    </dc:creator>
   </cc:Work>
  </rdf:RDF>
 </metadata>
 <defs>
  <style type="text/css">*{stroke-linejoin: round; stroke-linecap: butt}</style>
 </defs>
 <g id="figure_1">
  <g id="patch_1">
   <path d="M 0 345.6 
L 460.8 345.6 
L 460.8 0 
L 0 0 
z
" style="fill: #ffffff"/>
  </g>
  <g id="axes_1">
   <g id="PatchCollection_1">
    <path d="M -5807.638663 5931.467954 
L -5837.382101 5990.915185 
L -5890.287813 6065.769905 
L -5910.252211 6085.327215 
L -5944.987513 6111.014992 
L -6151.565139 6223.972036 
L -6201.571335 6249.458696 
L -6227.057262 6261.272206 
L -6246.792406 6270.460208 
L -6267.74741 6280.210764 
L -6285.609846 6288.33746 
L -6314.142027 6288.612327 
L -6371.68371 6275.939105 
L -6476.107607 6226.96656 
L -6506.254608 6212.966443 
L -6544.570594 6195.576871 
L -6648.858319 6148.155546 
L -6688.129173 6132.32093 
L -6718.796304 6133.471282 
L -6786.961638 6071.223341 
L -6856.752957 5990.975283 
L -6889.414858 5953.638183 
L -6927.418427 5910.108923 
L -7153.348918 5647.249724 
L -7175.194476 5622.792966 
L -7241.489067 5544.085525 
L -7275.165164 5488.808264 
L -7285.653177 5468.972946 
L -7307.211793 5424.275106 
L -7444.530638 5104.332343 
L -7455.736498 5077.980123 
L -7482.280148 5015.168308 
L -7504.527913 4958.986506 
L -7525.748974 4896.158308 
L -7531.049937 4860.537078 
L -7530.018603 4827.007336 
L -7517.515787 4750.106162 
L -7490.890202 4669.250168 
L -7468.154642 4600.264578 
L -7414.847405 4485.365348 
L -7361.137285 4388.097289 
L -7331.156954 4334.36254 
L -7258.242523 4183.454784 
L -7222.031333 4113.185806 
L -7091.607236 3838.859282 
L -7075.610315 3806.152574 
L -7051.828498 3765.661062 
L -7026.66161 3735.782012 
L -6945.020218 3685.240148 
L -6848.981738 3635.02612 
L -6651.369502 3533.214231 
L -6481.245432 3444.400413 
L -6431.465034 3417.673083 
L -6381.954316 3416.52607 
L -6315.669044 3422.653077 
L -6129.948509 3439.646227 
L -6107.561788 3441.935855 
L -6068.553152 3444.484166 
L -6041.924599 3450.051123 
L -6002.11253 3458.43297 
L -5957.24725 3478.47125 
L -5904.228918 3524.932817 
L -5860.345878 3579.680272 
L -5764.958527 3754.71435 
L -5750.522978 3781.242221 
L -5576.155189 4101.248964 
L -5545.368254 4152.932653 
L -5510.919331 4217.705064 
L -5484.715797 4268.471743 
L -5329.961303 4551.100587 
L -5318.760035 4575.527479 
L -5313.720367 4610.590432 
L -5309.981103 4648.32717 
L -5309.144659 4664.65324 
L -5308.491669 4678.123915 
L -5305.409584 4742.808155 
L -5303.72754 4778.378319 
L -5303.28392 4794.643533 
L -5313.45736 4847.63501 
L -5326.494652 4919.509685 
L -5338.164886 4968.22189 
L -5345.040074 5001.770018 
L -5362.304344 5061.302751 
L -5370.072916 5088.21044 
L -5409.605495 5169.729344 
L -5427.43149 5203.187568 
L -5432.93982 5213.511133 
L -5442.828801 5232.043796 
L -5477.657094 5297.343378 
L -5586.920346 5514.055737 
L -5621.056977 5577.490417 
L -5636.236673 5606.283789 
L -5807.638663 5931.467954 
" clip-path="url(#p8833f54b15)" style="fill: #add8e6; stroke: #808080"/>
    <path d="M -6227.057262 6261.272206 
L -6201.571335 6249.458696 
L -6151.565139 6223.972036 
L -5944.987513 6111.014992 
L -5910.252211 6085.327215 
L -5890.287813 6065.769905 
L -5837.382101 5990.915185 
L -5807.638663 5931.467954 
L -5636.236673 5606.283789 
L -5621.056977 5577.490417 
L -5586.920346 5514.055737 
L -5477.657094 5297.343378 
L -5442.828801 5232.043796 
L -5432.93982 5213.511133 
L -5427.43149 5203.187568 
L -5409.605495 5169.729344 
L -5370.072916 5088.21044 
L -5315.644436 5012.853436 
L -5277.020208 4920.037566 
L -5246.901763 4841.652339 
L -5247.325146 4817.936709 
L -5236.318471 4808.092561 
L -5217.886387 4801.081086 
L -5159.073388 4788.541387 
L -5088.271807 4773.232146 
L -5161.01381 4767.996919 
L -5188.335682 4764.295392 
L -5211.10504 4765.484378 
L -5233.8744 4766.673349 
L -5238.212279 4760.664585 
L -5245.065065 4731.753871 
L -5257.16113 4686.344647 
L -5276.661495 4630.900655 
L -5295.211045 4600.412355 
L -5318.760035 4575.527479 
L -5329.961303 4551.100587 
L -5484.715797 4268.471743 
L -5510.919331 4217.705064 
L -5545.368254 4152.932653 
L -5576.155189 4101.248964 
L -5750.522978 3781.242221 
L -5764.958527 3754.71435 
L -5860.345878 3579.680272 
L -5904.228918 3524.932817 
L -5957.24725 3478.47125 
L -6002.11253 3458.43297 
L -6041.924599 3450.051123 
L -6068.553152 3444.484166 
L -6107.561788 3441.935855 
L -6129.948509 3439.646227 
L -6158.144447 3421.045958 
L -6270.712986 3401.776611 
L -6309.437738 3378.242028 
L -6328.351169 3356.508477 
L -6340.605273 3329.849422 
L -6349.263211 3295.232154 
L -6354.461 3236.949264 
L -6330.78565 3106.370368 
L -6318.262688 3008.918082 
L -6314.848741 2984.445479 
L -6313.163127 2951.286161 
L -6292.94656 2816.806532 
L -6263.904369 2616.550069 
L -6256.957921 2563.693039 
L -6245.89485 2487.913367 
L -6220.159327 2332.741782 
L -6189.450092 2107.707604 
L -6166.293099 1951.178078 
L -6120.055989 1641.658115 
L -6095.354552 1476.990403 
L -6071.721868 1319.403834 
L -6055.397357 1210.453591 
L -5952.837682 539.850031 
L -5932.816341 483.599488 
L -5940.337253 365.845134 
L -5946.233375 293.532917 
L -5936.429535 248.055153 
L -5916.605466 212.54205 
L -5878.26429 184.049036 
L -5860.675124 173.253238 
L -5838.732253 159.774135 
L -5465.959102 142.404629 
L -5432.027861 140.559974 
L -4587.965661 84.884918 
L -4468.33956 76.746431 
L -3987.76091 51.942609 
L -3420.414836 29.152795 
L -3287.606731 23.824205 
L -3215.585487 24.898003 
L -3090.88047 22.823045 
L -2593.689689 -3.791479 
L -2421.068722 -13.03855 
L -1650.544469 -50.853326 
L -1470.942911 -59.568921 
L -1324.051724 -66.68908 
L -1137.425654 -74.870432 
L -940.114752 -83.708471 
L -746.602576 -80.304196 
L -713.090533 -76.812628 
L -649.03341 -70.068236 
L -561.543899 -60.855047 
L -339.525552 -24.20586 
L 8.429236 53.129423 
L 24.71166 56.739 
L 107.000961 142.520168 
L 103.121568 169.913039 
L 105.000688 197.473227 
L 112.591242 224.145415 
L 126.723464 250.361474 
L 146.38347 272.896239 
L 170.563698 290.449201 
L 198.040111 302.217259 
L 227.458413 307.584 
L 261.999624 305.545558 
L 294.854197 294.696368 
L 324.017609 275.663905 
L 347.269492 249.759314 
L 362.957998 218.72647 
L 369.198432 193.064204 
L 419.678 130.004186 
L 474.030828 90.710411 
L 610.343668 50.400809 
L 796.270244 -11.058692 
L 1120.312857 -120.970083 
L 1458.511554 -236.457297 
L 1555.238298 -256.584943 
L 1600.279083 -262.322786 
L 1637.577651 -261.39163 
L 1696.004631 -255.626143 
L 1737.266288 -243.53275 
L 1768.362448 -232.026345 
L 1799.35844 -211.330839 
L 1846.905454 -171.940521 
L 1881.419497 -129.712841 
L 1970.784013 22.659095 
L 2028.975203 166.442974 
L 2080.934098 311.737682 
L 2112.523255 405.196231 
L 2137.227129 500.664565 
L 2208.044423 936.336262 
L 2258.578975 1085.608989 
L 2269.659577 1176.900988 
L 2335.506289 1820.578512 
L 2347.834908 2049.760204 
L 2349.811087 2196.774192 
L 2340.743217 2471.723197 
L 2320.800727 2730.069481 
L 2299.037538 2913.856077 
L 2275.822173 3080.946276 
L 2248.499181 3233.025306 
L 2216.227871 3379.595192 
L 2155.419266 3628.578936 
L 2117.012681 3767.098017 
L 2078.631144 3887.115226 
L 1998.037159 4129.83202 
L 1953.155369 4263.157284 
L 1809.566835 4689.983845 
L 1744.313016 4785.007428 
L 1664.372311 4963.275553 
L 1625.59969 5032.258531 
L 1531.940858 5152.707568 
L 1480.815219 5206.768696 
L 1421.647011 5256.324197 
L 1268.967951 5366.352015 
L 1145.209867 5435.989169 
L 1082.384949 5475.063631 
L 1016.434789 5505.82877 
L 962.895854 5516.622953 
L 917.577334 5519.815299 
L 818.157932 5509.030962 
L 708.085636 5535.471272 
L 647.355399 5535.299465 
L 593.292326 5532.746253 
L 520.439278 5534.29059 
L 448.427428 5539.557181 
L 376.381139 5547.617621 
L 350.513703 5548.758347 
L 319.601468 5554.758409 
L 269.41766 5564.360836 
L 235.452925 5570.80548 
L 40.599476 5606.897745 
L -339.110016 5681.467632 
L -759.323422 5764.609352 
L -780.075699 5769.085206 
L -803.356753 5774.06599 
L -924.481575 5796.625775 
L -1004.315769 5811.538243 
L -1223.917928 5858.25872 
L -1238.174453 5861.285201 
L -1284.956567 5870.750166 
L -1331.559155 5881.766642 
L -2131.217139 6044.226605 
L -2601.179163 6139.737545 
L -2710.484199 6161.942746 
L -2799.517099 6179.488244 
L -3681.522695 6353.414194 
L -3798.112603 6376.384193 
L -3847.029127 6387.342576 
L -3884.5666 6395.781319 
L -3953.329293 6408.29262 
L -3984.851039 6415.160013 
L -4100.44537 6435.766568 
L -4115.301008 6428.859971 
L -4150.687652 6427.668244 
L -4169.537416 6426.9829 
L -4173.944459 6426.810595 
L -4191.711574 6423.576274 
L -4203.923161 6411.197679 
L -4219.436138 6403.361825 
L -4231.832448 6401.538469 
L -4236.633909 6400.808628 
L -4253.770371 6403.842992 
L -4270.581207 6413.271202 
L -4278.535322 6422.733475 
L -4283.012339 6428.024969 
L -4289.499432 6446.112589 
L -4310.024593 6453.68994 
L -4339.312768 6463.281745 
L -4355.46354 6474.508328 
L -4377.796918 6475.944816 
L -4704.647712 6494.795031 
L -4912.887788 6508.674966 
L -4984.207848 6512.810638 
L -5020.54422 6514.849502 
L -5259.707509 6531.866747 
L -5454.143167 6551.536285 
L -5516.992469 6557.879464 
L -5552.14629 6561.404147 
L -5614.733855 6567.746332 
L -5866.896095 6613.732234 
L -5956.944417 6628.292713 
L -5969.809021 6630.195374 
L -6024.669405 6568.093724 
L -6038.592527 6552.305079 
L -6050.551587 6536.75866 
L -6078.363609 6502.139012 
L -6107.359914 6465.47418 
L -6138.717684 6427.016168 
L -6145.554004 6417.28989 
L -6205.269741 6308.824637 
L -6215.507834 6285.449946 
L -6227.057262 6261.272206 
" clip-path="url(#p8833f54b15)" style="fill: #add8e6; stroke: #808080"/>
    <path d="M 1593.405024 -4510.629292 
L 1696.179966 -3642.381715 
L 1792.360136 -2830.425049 
L 1811.516615 -2671.112991 
L 1891.060873 -2009.474688 
L 1864.788814 -1961.394077 
L 1862.933716 -1746.320339 
L 1851.460844 -1550.771729 
L 1768.508758 -1168.476778 
L 1663.28515 -754.009115 
L 1626.436474 -593.951578 
L 1610.387917 -553.603985 
L 1571.202839 -453.141718 
L 1540.261864 -378.845349 
L 1508.219922 -333.850144 
L 1475.350164 -301.642021 
L 1443.723216 -276.081315 
L 1409.584478 -258.148912 
L 1346.64057 -231.801169 
L 1120.312857 -120.970083 
L 796.270244 -11.058692 
L 610.343668 50.400809 
L 474.030828 90.710411 
L 363.77737 83.561632 
L 323.043759 72.830783 
L 298.605768 56.458417 
L 265.501674 44.460632 
L 230.377096 41.472 
L 195.719386 47.794759 
L 161.401336 64.546885 
L 24.71166 56.739 
L 8.429236 53.129423 
L -339.525552 -24.20586 
L -561.543899 -60.855047 
L -649.03341 -70.068236 
L -713.090533 -76.812628 
L -746.602576 -80.304196 
L -940.114752 -83.708471 
L -1137.425654 -74.870432 
L -1324.051724 -66.68908 
L -1470.942911 -59.568921 
L -1650.544469 -50.853326 
L -2421.068722 -13.03855 
L -2593.689689 -3.791479 
L -3090.88047 22.823045 
L -3215.585487 24.898003 
L -3287.606731 23.824205 
L -3420.414836 29.152795 
L -3987.76091 51.942609 
L -4468.33956 76.746431 
L -4587.965661 84.884918 
L -5432.027861 140.559974 
L -5465.959102 142.404629 
L -5838.732253 159.774135 
L -5862.673096 162.02184 
L -5995.29152 172.493231 
L -6009.099572 38.802247 
L -6017.285798 -40.580698 
L -6020.884477 -75.586192 
L -6025.742025 -122.632519 
L -6035.861651 -220.57327 
L -6123.238986 -1021.401589 
L -6159.97083 -1303.221513 
L -6161.069532 -1361.951804 
L -6158.447141 -1416.347627 
L -6158.513004 -1437.518876 
L -6165.423096 -1457.427106 
L -6173.220419 -1482.113229 
L -6189.73876 -1547.997584 
L -6195.684807 -1594.543875 
L -6223.27857 -1953.87613 
L -6223.905241 -1959.027352 
L -6277.209475 -2395.018531 
L -6279.223767 -2411.589338 
L -6284.953209 -2458.695105 
L -6295.918178 -2548.37587 
L -6343.01059 -2965.015558 
L -6365.280777 -3183.925136 
L -6370.103073 -3304.171528 
L -6366.350195 -3415.938715 
L -6341.423927 -3549.50191 
L -6296.697285 -3711.500142 
L -6226.165664 -3934.485448 
L -6180.474156 -4094.438001 
L -6028.066978 -4677.841922 
L -5900.436337 -5148.917056 
L -5843.855549 -5340.381917 
L -5736.547383 -5725.652955 
L -5621.765628 -6146.957898 
L -5617.666118 -6160.940173 
L -5519.845646 -6496.451062 
L -5472.135939 -6664.358082 
L -5410.579845 -6880.98436 
L -5380.1687 -6987.99258 
L -5352.258374 -7113.618936 
L -5339.576361 -7227.773656 
L -5335.752153 -7357.29806 
L -5344.218127 -7400.732059 
L -5352.102907 -7467.450316 
L -5365.665243 -7536.75841 
L -5376.412736 -7570.686033 
L -5430.73006 -7744.544264 
L -5471.231065 -7837.671319 
L -5507.942155 -7946.145652 
L -5525.076625 -8000.417699 
L -5539.736254 -8072.143807 
L -5554.523491 -8212.537193 
L -5553.689463 -8364.092956 
L -5553.577305 -8397.930452 
L -5555.550986 -8509.95543 
L -5513.903253 -8485.099915 
L -5443.363755 -8450.241941 
L -5374.24084 -8422.147097 
L -5222.812667 -8376.119296 
L -5101.655866 -8345.953243 
L -4994.565256 -8323.380003 
L -4865.328497 -8303.360284 
L -4726.676543 -8284.860803 
L -4459.667081 -8248.762246 
L -4266.799578 -8214.169318 
L -4073.306075 -8161.077655 
L -3998.336538 -8132.631547 
L -3932.52422 -8103.908171 
L -3776.813361 -8028.719547 
L -3643.388216 -7940.236222 
L -3499.935683 -7825.584859 
L -3335.975897 -7667.104383 
L -3271.094373 -7602.555354 
L -3180.084431 -7509.157655 
L -3028.853175 -7349.706624 
L -2858.465235 -7187.213336 
L -2749.446584 -7095.426662 
L -2607.248487 -6993.130136 
L -2466.942373 -6909.826571 
L -2322.873969 -6836.655789 
L -2139.878772 -6756.036626 
L -1988.429441 -6707.042686 
L -1889.684567 -6678.057038 
L -1791.230337 -6658.073273 
L -1652.250402 -6635.116763 
L -1465.186582 -6618.587588 
L -1329.756568 -6614.495136 
L -1175.500877 -6614.996783 
L -1009.536418 -6622.553043 
L -780.203999 -6630.379051 
L -584.558758 -6630.459708 
L -417.745806 -6618.588468 
L -234.024325 -6597.460517 
L -59.349189 -6555.504813 
L 115.316064 -6503.42984 
L 270.309219 -6439.12194 
L 359.503421 -6397.56967 
L 449.370258 -6350.494146 
L 547.167486 -6292.455731 
L 649.182013 -6225.304811 
L 769.211917 -6130.957819 
L 903.964444 -6016.109375 
L 1024.016643 -5889.167897 
L 1121.354632 -5773.078647 
L 1221.123465 -5634.398246 
L 1299.758388 -5503.408675 
L 1365.873084 -5373.495186 
L 1422.82277 -5245.538089 
L 1471.319422 -5115.255738 
L 1517.653969 -4953.302128 
L 1564.965568 -4733.859722 
L 1593.405024 -4510.629292 
" clip-path="url(#p8833f54b15)" style="fill: #add8e6; stroke: #808080"/>
    <path d="M 1811.516615 -2671.112991 
L 1792.360136 -2830.425049 
L 1696.179966 -3642.381715 
L 1593.405024 -4510.629292 
L 1564.965568 -4733.859722 
L 1517.653969 -4953.302128 
L 1471.319422 -5115.255738 
L 1422.82277 -5245.538089 
L 1365.873084 -5373.495186 
L 1299.758388 -5503.408675 
L 1221.123465 -5634.398246 
L 1121.354632 -5773.078647 
L 1024.016643 -5889.167897 
L 903.964444 -6016.109375 
L 769.211917 -6130.957819 
L 649.182013 -6225.304811 
L 547.167486 -6292.455731 
L 449.370258 -6350.494146 
L 359.503421 -6397.56967 
L 270.309219 -6439.12194 
L 115.316064 -6503.42984 
L -59.349189 -6555.504813 
L -234.024325 -6597.460517 
L -417.745806 -6618.588468 
L -584.558758 -6630.459708 
L -780.203999 -6630.379051 
L -1009.536418 -6622.553043 
L -1175.500877 -6614.996783 
L -1329.756568 -6614.495136 
L -1465.186582 -6618.587588 
L -1652.250402 -6635.116763 
L -1791.230337 -6658.073273 
L -1889.684567 -6678.057038 
L -1988.429441 -6707.042686 
L -2139.878772 -6756.036626 
L -2322.873969 -6836.655789 
L -2466.942373 -6909.826571 
L -2607.248487 -6993.130136 
L -2749.446584 -7095.426662 
L -2858.465235 -7187.213336 
L -3028.853175 -7349.706624 
L -3180.084431 -7509.157655 
L -3271.094373 -7602.555354 
L -3335.975897 -7667.104383 
L -3499.935683 -7825.584859 
L -3643.388216 -7940.236222 
L -3776.813361 -8028.719547 
L -3932.52422 -8103.908171 
L -3998.336538 -8132.631547 
L -4073.306075 -8161.077655 
L -4266.799578 -8214.169318 
L -4459.667081 -8248.762246 
L -4726.676543 -8284.860803 
L -4865.328497 -8303.360284 
L -4994.565256 -8323.380003 
L -5101.655866 -8345.953243 
L -5222.812667 -8376.119296 
L -5374.24084 -8422.147097 
L -5443.363755 -8450.241941 
L -5513.903253 -8485.099915 
L -5555.550986 -8509.95543 
L -5556.546954 -8566.486023 
L -5558.227159 -8589.527 
L -5485.003609 -8545.228053 
L -5418.484848 -8513.089345 
L -5352.642494 -8488.088591 
L -5281.604844 -8461.30375 
L -5202.296438 -8439.387766 
L -5093.446961 -8412.101172 
L -4985.571961 -8389.654598 
L -4716.193963 -8348.905051 
L -4453.675814 -8312.481947 
L -4251.680812 -8273.696073 
L -4151.637897 -8245.949911 
L -4060.532707 -8217.492729 
L -3905.655535 -8157.387914 
L -3821.962044 -8114.689997 
L -3748.394601 -8074.691873 
L -3609.934493 -7993.675073 
L -3472.201961 -7881.178634 
L -3300.588241 -7715.76904 
L -3227.343165 -7640.630009 
L -3142.154493 -7553.794975 
L -2985.805851 -7389.704006 
L -2808.774654 -7222.762005 
L -2697.663633 -7131.292636 
L -2574.782918 -7041.724043 
L -2426.4394 -6954.410853 
L -2293.029748 -6886.607415 
L -2153.710612 -6825.715153 
L -1971.116223 -6761.300157 
L -1883.511186 -6738.052577 
L -1801.505633 -6720.126533 
L -1661.908745 -6695.123127 
L -1449.276765 -6675.013794 
L -1324.706544 -6670.948196 
L -1152.403638 -6673.929978 
L -1004.445322 -6679.627151 
L -787.371067 -6688.282377 
L -576.505386 -6688.350698 
L -404.893766 -6675.998527 
L -231.936992 -6652.476034 
L -117.81787 -6630.375345 
L -5.025469 -6600.634021 
L 134.162567 -6554.651176 
L 218.520527 -6524.754899 
L 326.181235 -6477.551418 
L 471.126903 -6405.202115 
L 561.487352 -6353.968709 
L 649.687768 -6296.581826 
L 811.370213 -6175.178817 
L 937.30821 -6061.729308 
L 1063.864256 -5933.133186 
L 1174.654138 -5798.214414 
L 1270.309231 -5663.80446 
L 1349.996778 -5531.080076 
L 1421.019055 -5394.353495 
L 1478.189872 -5265.52801 
L 1525.593669 -5136.049218 
L 1574.761287 -4974.725984 
L 1606.17648 -4813.902422 
L 1634.52934 -4629.786238 
L 1657.015133 -4452.542122 
L 1706.927134 -4055.479092 
L 1733.430069 -3837.892222 
L 1912.344408 -2323.392953 
L 2109.678383 -692.420517 
L 2135.581912 -470.054427 
L 2077.135924 -449.737589 
L 2046.964688 -701.958243 
L 1891.060873 -2009.474688 
L 1811.516615 -2671.112991 
" clip-path="url(#p8833f54b15)" style="fill: #add8e6; stroke: #808080"/>
    <path d="M 2340.325171 1293.262405 
L 2378.210884 1598.786793 
L 2394.603165 1816.903472 
L 2402.313158 1956.572036 
L 2408.721935 2202.474804 
L 2404.895108 2427.116258 
L 2381.980273 2735.576278 
L 2359.604793 2918.80619 
L 2333.85889 3085.718656 
L 2308.069577 3226.741214 
L 2274.917218 3396.720677 
L 2212.931752 3645.894725 
L 2173.868921 3783.795203 
L 2132.680383 3899.289564 
L 2050.280222 4149.711234 
L 2009.681215 4272.157134 
L 1820.24522 4843.798194 
L 1550.190239 5640.307217 
L 1488.014239 5631.867046 
L 1765.882342 4816.475344 
L 1809.566835 4689.983845 
L 1953.155369 4263.157284 
L 1998.037159 4129.83202 
L 2078.631144 3887.115226 
L 2117.012681 3767.098017 
L 2155.419266 3628.578936 
L 2216.227871 3379.595192 
L 2248.499181 3233.025306 
L 2275.822173 3080.946276 
L 2299.037538 2913.856077 
L 2320.800727 2730.069481 
L 2340.743217 2471.723197 
L 2349.811087 2196.774192 
L 2347.834908 2049.760204 
L 2335.506289 1820.578512 
L 2269.659577 1176.900988 
L 2258.578975 1085.608989 
L 2241.757199 947.274709 
L 2185.228445 453.876931 
L 2077.135924 -449.737589 
L 2135.581912 -470.054427 
L 2217.241249 230.941481 
L 2300.882078 939.377846 
L 2340.325171 1293.262405 
" clip-path="url(#p8833f54b15)" style="fill: #add8e6; stroke: #808080"/>
    <path d="M 161.401336 64.546885 
L 137.043609 85.798512 
L 118.548347 112.30818 
L 107.000961 142.520168 
L 24.71166 56.739 
L 161.401336 64.546885 
" clip-path="url(#p8833f54b15)" style="fill: #add8e6; stroke: #808080"/>
    <path d="M 107.000961 142.520168 
L 118.548347 112.30818 
L 137.043609 85.798512 
L 161.401336 64.546885 
L 195.719386 47.794759 
L 230.377096 41.472 
L 265.501674 44.460632 
L 298.605768 56.458417 
L 323.043759 72.830783 
L 351.945764 106.883047 
L 367.917323 148.490379 
L 369.198432 193.064204 
L 362.957998 218.72647 
L 347.269492 249.759314 
L 324.017609 275.663905 
L 294.854197 294.696368 
L 261.999624 305.545558 
L 227.458413 307.584 
L 198.040111 302.217259 
L 170.563698 290.449201 
L 146.38347 272.896239 
L 126.723464 250.361474 
L 112.591242 224.145415 
L 105.000688 197.473227 
L 103.121568 169.913039 
L 107.000961 142.520168 
" clip-path="url(#p8833f54b15)" style="fill: #ff0000; stroke: #808080"/>
    <path d="M 369.198432 193.064204 
L 367.917323 148.490379 
L 351.945764 106.883047 
L 323.043759 72.830783 
L 363.77737 83.561632 
L 474.030828 90.710411 
L 419.678 130.004186 
L 369.198432 193.064204 
" clip-path="url(#p8833f54b15)" style="fill: #add8e6; stroke: #808080"/>
    <path d="M -6246.792406 6270.460208 
L -6227.057262 6261.272206 
L -6215.507834 6285.449946 
L -6205.269741 6308.824637 
L -6145.554004 6417.28989 
L -6138.717684 6427.016168 
L -6107.359914 6465.47418 
L -6078.363609 6502.139012 
L -6050.551587 6536.75866 
L -6038.592527 6552.305079 
L -6024.669405 6568.093724 
L -5969.809021 6630.195374 
L -5959.132363 6668.220978 
L -5947.903212 6701.526303 
L -5924.33585 6844.002862 
L -5912.558965 6927.037539 
L -5898.389222 6979.890844 
L -5861.929333 7115.249335 
L -5818.220488 7294.542223 
L -5813.205688 7307.688861 
L -5804.052926 7332.618972 
L -5794.694061 7367.668492 
L -5785.681457 7389.618897 
L -5702.656484 7528.494983 
L -5624.79956 7646.898567 
L -5571.998029 7719.56068 
L -5560.656609 7900.196122 
L -5542.264732 8103.036371 
L -5517.340341 8246.129234 
L -5511.031596 8282.305764 
L -5477.801263 8416.494286 
L -5360.412867 8868.859439 
L -5356.967624 8882.259268 
L -5362.744878 8918.349445 
L -5366.469836 8941.022575 
L -5389.575135 8933.334152 
L -5413.879169 8932.975639 
L -5437.200382 8939.940204 
L -5457.315532 8953.600032 
L -5468.05981 8936.187428 
L -5487.267657 8905.142335 
L -5566.387401 8746.697427 
L -5594.519307 8694.198345 
L -5736.702606 8376.450622 
L -5748.170625 8350.720639 
L -5817.417599 8195.410736 
L -5877.000279 8060.931535 
L -5962.865737 7864.758326 
L -6060.438213 7621.684158 
L -6085.130466 7552.348604 
L -6133.558677 7440.495716 
L -6160.892944 7377.31486 
L -6183.030985 7329.515212 
L -6299.46927 7037.575059 
L -6342.340344 6958.610316 
L -6447.125302 6709.472978 
L -6469.542404 6655.837905 
L -6532.573236 6505.163745 
L -6612.321794 6323.560212 
L -6610.027399 6303.685512 
L -6598.444267 6282.478234 
L -6583.150075 6262.128665 
L -6574.677418 6250.864811 
L -6555.132486 6236.586513 
L -6537.787202 6230.510403 
L -6476.107607 6226.96656 
L -6371.68371 6275.939105 
L -6314.142027 6288.612327 
L -6285.609846 6288.33746 
L -6267.74741 6280.210764 
L -6246.792406 6270.460208 
" clip-path="url(#p8833f54b15)" style="fill: #add8e6; stroke: #808080"/>
    <path d="M 1765.882342 4816.475344 
L 1488.014239 5631.867046 
L 1370.926267 5615.97277 
L 1291.133962 5603.696527 
L 1265.752821 5580.49847 
L 1245.839666 5548.528062 
L 1234.523568 5517.27413 
L 1232.550287 5487.975932 
L 1237.02165 5454.993239 
L 1249.597939 5419.065569 
L 1268.967951 5366.352015 
L 1421.647011 5256.324197 
L 1480.815219 5206.768696 
L 1531.940858 5152.707568 
L 1625.59969 5032.258531 
L 1664.372311 4963.275553 
L 1744.313016 4785.007428 
L 1809.566835 4689.983845 
L 1765.882342 4816.475344 
" clip-path="url(#p8833f54b15)" style="fill: #add8e6; stroke: #808080"/>
    <path d="M 1488.014239 5631.867046 
L 1475.459325 5668.708888 
L 1398.81129 5880.429916 
L 1317.722685 6082.169615 
L 1236.534254 6267.270307 
L 1133.587863 6469.6409 
L 995.592076 6720.430487 
L 863.295287 6927.305618 
L 609.777199 7274.461227 
L 500.362066 7409.239249 
L 382.066345 7537.092526 
L 403.086349 7481.207659 
L 551.748966 7274.28031 
L 633.505107 7153.562916 
L 762.0086 6920.376632 
L 866.873801 6677.148035 
L 971.917342 6330.172271 
L 1003.215075 6163.863483 
L 1021.296591 5985.429547 
L 1044.020935 5786.243365 
L 1060.729336 5706.96581 
L 1074.717003 5675.56583 
L 1097.189345 5650.470507 
L 1137.321019 5622.398521 
L 1204.634869 5594.981291 
L 1291.133962 5603.696527 
L 1370.926267 5615.97277 
L 1488.014239 5631.867046 
" clip-path="url(#p8833f54b15)" style="fill: #add8e6; stroke: #808080"/>
    <path d="M 1317.722685 6082.169615 
L 1398.81129 5880.429916 
L 1475.459325 5668.708888 
L 1488.014239 5631.867046 
L 1550.190239 5640.307217 
L 1539.601628 5671.537613 
L 1460.359867 5890.345255 
L 1372.540163 6114.520643 
L 1199.130452 6486.435034 
L 1054.258822 6742.400841 
L 908.716531 6967.759689 
L 726.263855 7220.185407 
L 641.105954 7328.062391 
L 600.047583 7380.10215 
L 465.13147 7535.080217 
L 372.746682 7634.971235 
L 278.554343 7729.342277 
L 189.805441 7820.715006 
L 16.892268 7978.361854 
L -268.039787 8224.040963 
L -859.914585 8726.204794 
L -1121.411429 8977.139832 
L -1369.084491 9240.321085 
L -1600.50198 9525.612678 
L -1816.445116 9834.321263 
L -2029.026369 10198.9573 
L -2221.368678 10603.386136 
L -2642.487192 11593.586934 
L -2744.365007 11841.761752 
L -2845.153562 12117.126503 
L -2908.497798 12326.249312 
L -2945.467616 12513.992041 
L -2975.725966 12712.826669 
L -2990.364451 12911.114606 
L -2987.530861 13101.213351 
L -2972.84923 13298.289917 
L -2940.946406 13544.980278 
L -2883.717736 13796.494323 
L -2674.4844 14582.330985 
L -2629.080261 14806.067903 
L -2598.204145 15030.844762 
L -2589.100247 15256.746941 
L -2591.96245 15466.296779 
L -2618.956293 15662.699709 
L -2677.520053 15921.662498 
L -2814.588 16305.297272 
L -3013.797502 16759.349572 
L -3023.228877 16780.997944 
L -3055.003818 16700.69689 
L -3045.084942 16678.551425 
L -2873.700178 16298.346674 
L -2802.987302 16125.76919 
L -2744.869016 15958.881759 
L -2715.974697 15851.318078 
L -2706.788868 15817.141266 
L -2677.711373 15671.518174 
L -2662.124408 15564.990493 
L -2646.229639 15432.013129 
L -2644.189123 15251.894752 
L -2657.323404 15034.635462 
L -2685.131293 14813.946397 
L -2733.579821 14593.323476 
L -2940.994941 13816.172713 
L -3001.25425 13558.397571 
L -3034.170432 13308.544006 
L -3049.75661 13101.412352 
L -3049.324878 12908.881804 
L -3034.616061 12705.192173 
L -3001.964165 12504.239011 
L -2953.856868 12278.712314 
L -2879.355742 12037.951998 
L -2792.428311 11808.078847 
L -2694.422611 11576.990289 
L -2272.948118 10574.992593 
L -2093.487466 10194.446692 
L -1977.456999 9981.054489 
L -1874.37404 9812.157456 
L -1651.179354 9492.498573 
L -1534.153455 9345.471792 
L -1408.853625 9193.761293 
L -1153.964845 8922.237296 
L -897.967034 8684.296447 
L -685.768445 8502.871067 
L -311.19534 8182.708748 
L 73.089962 7846.05756 
L 232.929215 7693.296193 
L 269.150826 7656.111425 
L 382.066345 7537.092526 
L 500.362066 7409.239249 
L 609.777199 7274.461227 
L 863.295287 6927.305618 
L 995.592076 6720.430487 
L 1133.587863 6469.6409 
L 1236.534254 6267.270307 
L 1317.722685 6082.169615 
" clip-path="url(#p8833f54b15)" style="fill: #add8e6; stroke: #808080"/>
    <path d="M -6431.465034 3417.673083 
L -6481.245432 3444.400413 
L -6651.369502 3533.214231 
L -6848.981738 3635.02612 
L -6945.020218 3685.240148 
L -7026.66161 3735.782012 
L -7051.828498 3765.661062 
L -7075.610315 3806.152574 
L -7091.607236 3838.859282 
L -7222.031333 4113.185806 
L -7258.242523 4183.454784 
L -7331.156954 4334.36254 
L -7361.137285 4388.097289 
L -7427.684565 4354.030283 
L -7595.153196 4315.24403 
L -7619.895011 4313.333192 
L -7645.575257 4318.378876 
L -7663.645611 4329.609828 
L -7734.987219 4382.291445 
L -7754.187337 4395.015883 
L -7798.977436 4399.561232 
L -7874.617093 4387.934367 
L -7965.505705 4397.152874 
L -8193.503462 4437.52254 
L -8402.365136 4472.865538 
L -8611.656064 4481.94611 
L -8655.931736 4483.570744 
L -8904.953489 4496.867959 
L -8978.62529 4501.126823 
L -9113.251844 4516.869701 
L -9343.47288 4544.014225 
L -9492.75076 4562.221234 
L -9544.423553 4584.790104 
L -9574.794597 4611.392427 
L -9577.121498 4592.028532 
L -9584.679392 4574.04629 
L -9596.809771 4558.809612 
L -9600.571696 4555.468285 
L -9620.889196 4516.104709 
L -9624.045261 4482.153042 
L -9622.613884 4450.422666 
L -9621.59902 4439.740778 
L -9618.213276 4405.086463 
L -9615.803682 4307.045039 
L -9598.239554 4199.95547 
L -9583.732642 4135.217913 
L -9579.029655 4117.881685 
L -9571.684604 4094.204701 
L -9562.501129 4072.571022 
L -9554.617257 4053.983482 
L -9550.623187 4047.514478 
L -9527.787255 4010.62852 
L -9500.278798 3975.280618 
L -9477.628705 3949.136107 
L -9455.262864 3930.008184 
L -9442.80724 3922.954872 
L -9411.624858 3905.22831 
L -9382.304333 3892.163809 
L -9345.208448 3882.428467 
L -9232.746696 3866.443026 
L -9081.34124 3845.931256 
L -9045.975636 3841.105647 
L -8939.385891 3802.165126 
L -8866.835359 3745.136254 
L -8825.726054 3706.704337 
L -8795.472543 3684.944435 
L -8769.168007 3670.088068 
L -8737.629461 3654.905357 
L -8691.04983 3636.572617 
L -8670.227 3626.699727 
L -8658.901402 3635.481563 
L -8643.620283 3639.532819 
L -8625.789267 3635.691362 
L -8585.638021 3597.945021 
L -8552.753107 3566.491448 
L -8537.444819 3550.799143 
L -8531.938109 3539.731036 
L -8530.052814 3528.487686 
L -8532.269933 3516.698042 
L -8539.025519 3504.425513 
L -8520.768928 3482.76395 
L -8508.10877 3457.021714 
L -8480.78837 3417.700048 
L -8213.544094 3174.06619 
L -8065.280005 3040.376307 
L -8023.433837 3000.947798 
L -7820.27857 2800.408352 
L -7768.21812 2748.965594 
L -7704.987678 2684.077873 
L -7669.206966 2644.357097 
L -7578.690768 2543.747914 
L -7538.725017 2488.989272 
L -7476.378873 2406.347163 
L -7374.801077 2257.462396 
L -7269.86863 2107.449442 
L -7173.412702 1953.302499 
L -7130.455543 1878.790711 
L -7094.347106 1804.362073 
L -6899.03809 1411.994619 
L -6854.731313 1308.794425 
L -6828.527438 1205.774309 
L -6682.819377 588.992583 
L -6672.399382 544.941113 
L -6661.222627 379.011817 
L -6668.734712 277.399739 
L -6670.241276 255.73627 
L -6681.242792 97.822677 
L -6687.381036 -39.120796 
L -6689.488855 -85.927376 
L -6688.789211 -99.464365 
L -6680.043614 -275.692495 
L -6617.141514 -599.046755 
L -6602.414312 -674.713562 
L -6590.927409 -726.218742 
L -6523.882217 -978.931777 
L -6441.871122 -1145.515518 
L -6385.478392 -1232.052679 
L -6343.067886 -1298.182177 
L -6319.452951 -1334.824398 
L -6315.112117 -1341.605297 
L -6280.689914 -1353.44657 
L -6237.760769 -1364.879717 
L -6230.954347 -1364.280013 
L -6159.97083 -1303.221513 
L -6123.238986 -1021.401589 
L -6035.861651 -220.57327 
L -6025.742025 -122.632519 
L -6020.884477 -75.586192 
L -6017.285798 -40.580698 
L -6009.099572 38.802247 
L -5995.29152 172.493231 
L -5979.105996 313.192555 
L -5952.837682 539.850031 
L -6055.397357 1210.453591 
L -6071.721868 1319.403834 
L -6095.354552 1476.990403 
L -6120.055989 1641.658115 
L -6166.293099 1951.178078 
L -6189.450092 2107.707604 
L -6220.159327 2332.741782 
L -6245.89485 2487.913367 
L -6256.957921 2563.693039 
L -6263.904369 2616.550069 
L -6292.94656 2816.806532 
L -6313.163127 2951.286161 
L -6314.848741 2984.445479 
L -6318.262688 3008.918082 
L -6330.78565 3106.370368 
L -6354.461 3236.949264 
L -6369.070011 3294.859038 
L -6386.605299 3337.628832 
L -6431.465034 3417.673083 
" clip-path="url(#p8833f54b15)" style="fill: #add8e6; stroke: #808080"/>
    <path d="M -6342.340344 6958.610316 
L -6299.46927 7037.575059 
L -6183.030985 7329.515212 
L -6160.892944 7377.31486 
L -6133.558677 7440.495716 
L -6085.130466 7552.348604 
L -6060.438213 7621.684158 
L -5962.865737 7864.758326 
L -5877.000279 8060.931535 
L -5817.417599 8195.410736 
L -5748.170625 8350.720639 
L -5736.702606 8376.450622 
L -5594.519307 8694.198345 
L -5566.387401 8746.697427 
L -5487.267657 8905.142335 
L -5468.05981 8936.187428 
L -5457.315532 8953.600032 
L -5472.656226 8973.205185 
L -5481.178584 8996.576259 
L -5482.016957 9021.475447 
L -5475.092032 9045.356969 
L -5492.00552 9050.376777 
L -5510.92082 9057.079165 
L -5538.603541 9064.616079 
L -5606.742006 9083.26867 
L -5708.697147 9101.34377 
L -5906.206661 9133.375443 
L -6356.069375 9212.444288 
L -6486.543486 9236.069199 
L -6540.747735 9245.92262 
L -6685.311315 9270.832162 
L -6817.962269 9296.138897 
L -6887.558382 9309.391995 
L -6958.37873 9321.841613 
L -7115.064537 9349.394406 
L -7157.107309 9355.484219 
L -7199.149905 9361.636068 
L -7270.717558 9372.348941 
L -7307.981691 9371.656475 
L -7415.738127 9348.270877 
L -7543.001293 9309.609548 
L -7658.124641 9274.139016 
L -7739.454911 9245.704492 
L -7763.056375 9232.614529 
L -7807.904849 9205.868573 
L -7786.477895 9178.547127 
L -7769.795792 9154.841201 
L -7717.776876 9086.75955 
L -7650.856192 9012.113076 
L -7602.372637 8958.011479 
L -7306.734724 8628.170639 
L -7231.15787 8588.016633 
L -7211.846691 8497.311341 
L -7199.293326 8450.770129 
L -7194.203022 8431.880251 
L -7121.351848 8243.658825 
L -7106.085382 8199.77892 
L -7037.754171 8003.437942 
L -7008.605414 7919.717916 
L -6988.841172 7863.03432 
L -6952.340913 7758.120162 
L -6882.169796 7564.753304 
L -6865.42954 7517.950678 
L -6859.963666 7507.751653 
L -6847.345338 7482.505667 
L -6797.782862 7383.324988 
L -6794.181196 7376.981061 
L -6771.70497 7336.865965 
L -6707.226488 7221.993302 
L -6690.147822 7200.086112 
L -6669.871758 7182.204622 
L -6649.548242 7165.564697 
L -6586.271621 7113.65095 
L -6539.549171 7083.953166 
L -6499.619648 7058.560326 
L -6475.365824 7043.14984 
L -6342.340344 6958.610316 
" clip-path="url(#p8833f54b15)" style="fill: #add8e6; stroke: #808080"/>
    <path d="M -6532.573236 6505.163745 
L -6469.542404 6655.837905 
L -6447.125302 6709.472978 
L -6342.340344 6958.610316 
L -6475.365824 7043.14984 
L -6499.619648 7058.560326 
L -6539.549171 7083.953166 
L -6586.271621 7113.65095 
L -6649.548242 7165.564697 
L -6669.871758 7182.204622 
L -6690.147822 7200.086112 
L -6707.226488 7221.993302 
L -6771.70497 7336.865965 
L -6794.181196 7376.981061 
L -6797.782862 7383.324988 
L -6847.345338 7482.505667 
L -6859.963666 7507.751653 
L -6865.42954 7517.950678 
L -6882.169796 7564.753304 
L -6952.340913 7758.120162 
L -6988.841172 7863.03432 
L -7008.605414 7919.717916 
L -7037.754171 8003.437942 
L -7106.085382 8199.77892 
L -7121.351848 8243.658825 
L -7194.203022 8431.880251 
L -7199.293326 8450.770129 
L -7211.846691 8497.311341 
L -7231.15787 8588.016633 
L -7306.734724 8628.170639 
L -7602.372637 8958.011479 
L -7650.856192 9012.113076 
L -7717.776876 9086.75955 
L -7769.795792 9154.841201 
L -7786.477895 9178.547127 
L -7807.904849 9205.868573 
L -7839.377259 9187.152818 
L -7887.806261 9159.486427 
L -7960.68904 9111.033796 
L -8086.711525 9020.959354 
L -8163.335 8961.838906 
L -8211.78306 8913.435345 
L -8227.434056 8889.021134 
L -8243.128662 8864.607049 
L -8310.605048 8699.973975 
L -8363.013856 8568.635146 
L -8387.76336 8507.866078 
L -8438.62279 8383.662325 
L -8537.28041 8137.232037 
L -8581.076598 8039.765732 
L -8599.042902 7999.836845 
L -8611.135176 7968.95468 
L -8750.126358 7643.548539 
L -8837.936369 7433.529043 
L -8878.352383 7342.32281 
L -9106.524911 6812.425217 
L -9133.546607 6749.675723 
L -9159.52694 6684.998386 
L -9230.863566 6525.093711 
L -9258.230658 6463.400628 
L -9332.730291 6295.992866 
L -9363.531304 6223.941668 
L -9372.292341 6197.76773 
L -9383.351991 6161.666932 
L -9399.693604 6110.122601 
L -9422.388547 6035.066754 
L -9524.084803 5702.405018 
L -9597.378777 5456.329803 
L -9629.996159 5258.745495 
L -9631.982017 5222.244776 
L -9632.381048 5191.14078 
L -9638.117947 4749.166209 
L -9620.972902 4676.659959 
L -9602.462494 4666.422077 
L -9587.806521 4651.104723 
L -9578.309089 4632.263988 
L -9574.794597 4611.392427 
L -9544.423553 4584.790104 
L -9492.75076 4562.221234 
L -9343.47288 4544.014225 
L -9113.251844 4516.869701 
L -8978.62529 4501.126823 
L -8904.953489 4496.867959 
L -8655.931736 4483.570744 
L -8611.656064 4481.94611 
L -8402.365136 4472.865538 
L -8193.503462 4437.52254 
L -7965.505705 4397.152874 
L -7874.617093 4387.934367 
L -7798.977436 4399.561232 
L -7754.187337 4395.015883 
L -7734.987219 4382.291445 
L -7663.645611 4329.609828 
L -7645.575257 4318.378876 
L -7619.895011 4313.333192 
L -7595.153196 4315.24403 
L -7427.684565 4354.030283 
L -7361.137285 4388.097289 
L -7414.847405 4485.365348 
L -7468.154642 4600.264578 
L -7490.890202 4669.250168 
L -7517.515787 4750.106162 
L -7530.018603 4827.007336 
L -7531.049937 4860.537078 
L -7525.748974 4896.158308 
L -7504.527913 4958.986506 
L -7482.280148 5015.168308 
L -7455.736498 5077.980123 
L -7444.530638 5104.332343 
L -7307.211793 5424.275106 
L -7285.653177 5468.972946 
L -7275.165164 5488.808264 
L -7241.489067 5544.085525 
L -7175.194476 5622.792966 
L -7153.348918 5647.249724 
L -6927.418427 5910.108923 
L -6889.414858 5953.638183 
L -6856.752957 5990.975283 
L -6786.961638 6071.223341 
L -6718.796304 6133.471282 
L -6679.63562 6184.198739 
L -6637.083555 6259.315543 
L -6618.606212 6266.584509 
L -6583.150075 6262.128665 
L -6598.444267 6282.478234 
L -6610.027399 6303.685512 
L -6612.321794 6323.560212 
L -6532.573236 6505.163745 
" clip-path="url(#p8833f54b15)" style="fill: #add8e6; stroke: #808080"/>
    <path d="M -9708.760261 4644.018475 
L -9694.045505 4662.724245 
L -9725.598967 4644.379562 
L -9747.045852 4635.627824 
L -9794.693282 4633.163466 
L -9866.647827 4642.816798 
L -9798.801449 4616.226274 
L -9759.236484 4600.337419 
L -9708.225019 4575.411579 
L -9716.228576 4597.786701 
L -9716.418985 4621.504214 
L -9708.760261 4644.018475 
" clip-path="url(#p8833f54b15)" style="fill: #add8e6; stroke: #808080"/>
    <path d="M -9694.045505 4662.724245 
L -9708.760261 4644.018475 
L -9716.418985 4621.504214 
L -9716.228576 4597.786701 
L -9708.225019 4575.411579 
L -9693.447128 4557.113764 
L -9676.640788 4546.011841 
L -9657.375898 4540.055667 
L -9637.221676 4539.684566 
L -9617.748456 4544.965351 
L -9600.571696 4555.468285 
L -9596.809771 4558.809612 
L -9584.679392 4574.04629 
L -9577.121498 4592.028532 
L -9574.794597 4611.392427 
L -9578.309089 4632.263988 
L -9587.806521 4651.104723 
L -9602.462494 4666.422077 
L -9620.972902 4676.659959 
L -9641.725819 4681.068476 
L -9660.6202 4679.697368 
L -9678.482314 4673.41833 
L -9694.045505 4662.724245 
" clip-path="url(#p8833f54b15)" style="fill: #add8e6; stroke: #808080"/>
    <path d="M -9660.6202 4679.697368 
L -9641.725819 4681.068476 
L -9620.972902 4676.659959 
L -9638.117947 4749.166209 
L -9660.6202 4679.697368 
" clip-path="url(#p8833f54b15)" style="fill: #add8e6; stroke: #808080"/>
    <path d="M -9600.571696 4555.468285 
L -9617.748456 4544.965351 
L -9637.221676 4539.684566 
L -9657.375898 4540.055667 
L -9676.640788 4546.011841 
L -9693.447128 4557.113764 
L -9672.717455 4516.012383 
L -9663.064486 4476.372313 
L -9645.477104 4405.913583 
L -9615.803682 4307.045039 
L -9618.213276 4405.086463 
L -9621.59902 4439.740778 
L -9622.613884 4450.422666 
L -9624.045261 4482.153042 
L -9620.889196 4516.104709 
L -9600.571696 4555.468285 
" clip-path="url(#p8833f54b15)" style="fill: #add8e6; stroke: #808080"/>
    <path d="M -3984.851039 6415.160013 
L -3953.329293 6408.29262 
L -3884.5666 6395.781319 
L -3847.029127 6387.342576 
L -3798.112603 6376.384193 
L -3681.522695 6353.414194 
L -2799.517099 6179.488244 
L -2710.484199 6161.942746 
L -2601.179163 6139.737545 
L -2131.217139 6044.226605 
L -1331.559155 5881.766642 
L -1284.956567 5870.750166 
L -1238.174453 5861.285201 
L -1223.917928 5858.25872 
L -1004.315769 5811.538243 
L -924.481575 5796.625775 
L -803.356753 5774.06599 
L -780.075699 5769.085206 
L -759.323422 5764.609352 
L -339.110016 5681.467632 
L 40.599476 5606.897745 
L 235.452925 5570.80548 
L 269.41766 5564.360836 
L 319.601468 5554.758409 
L 350.513703 5548.758347 
L 376.381139 5547.617621 
L 448.427428 5539.557181 
L 520.439278 5534.29059 
L 593.292326 5532.746253 
L 647.355399 5535.299465 
L 679.514519 5563.380387 
L 793.580981 5583.740046 
L 822.801079 5593.763438 
L 855.574113 5609.549075 
L 878.003402 5624.1272 
L 913.820492 5650.084862 
L 939.164607 5675.332144 
L 966.055052 5706.4104 
L 984.747706 5738.757527 
L 1013.326325 5831.606049 
L 1021.296591 5985.429547 
L 1003.215075 6163.863483 
L 971.917342 6330.172271 
L 866.873801 6677.148035 
L 762.0086 6920.376632 
L 633.505107 7153.562916 
L 551.748966 7274.28031 
L 403.086349 7481.207659 
L 382.066345 7537.092526 
L 269.150826 7656.111425 
L 232.929215 7693.296193 
L 73.089962 7846.05756 
L -311.19534 8182.708748 
L -685.768445 8502.871067 
L -897.967034 8684.296447 
L -1153.964845 8922.237296 
L -1408.853625 9193.761293 
L -1534.153455 9345.471792 
L -1651.179354 9492.498573 
L -1874.37404 9812.157456 
L -1977.456999 9981.054489 
L -2093.487466 10194.446692 
L -2272.948118 10574.992593 
L -2694.422611 11576.990289 
L -2792.428311 11808.078847 
L -2879.355742 12037.951998 
L -2953.856868 12278.712314 
L -3001.964165 12504.239011 
L -3034.616061 12705.192173 
L -3049.324878 12908.881804 
L -3049.75661 13101.412352 
L -3034.170432 13308.544006 
L -3001.25425 13558.397571 
L -2940.994941 13816.172713 
L -2733.579821 14593.323476 
L -2685.131293 14813.946397 
L -2657.323404 15034.635462 
L -2644.189123 15251.894752 
L -2646.229639 15432.013129 
L -2662.124408 15564.990493 
L -2677.711373 15671.518174 
L -2706.788868 15817.141266 
L -2715.974697 15851.318078 
L -2744.869016 15958.881759 
L -2818.528482 16069.693138 
L -2878.385726 16184.309509 
L -2924.508521 16254.241917 
L -2975.182435 16320.339481 
L -3035.724569 16343.877458 
L -3104.019741 16344.840762 
L -3167.598111 16319.588539 
L -3204.554665 16294.561661 
L -3234.518725 16258.957794 
L -3309.403323 16068.406119 
L -3359.564097 15967.055285 
L -3408.487986 15842.914837 
L -3449.795989 15739.424734 
L -3497.929384 15616.647534 
L -3532.722676 15530.582782 
L -3546.615139 15498.466396 
L -3582.387423 15406.382357 
L -3658.816051 15209.439955 
L -3731.657192 15028.81463 
L -3769.369337 14930.217516 
L -3813.021978 14816.055606 
L -3925.260028 14527.711349 
L -4032.044217 14252.263351 
L -4089.974442 14093.754748 
L -4103.488432 14056.794217 
L -4127.606561 13978.455812 
L -4169.695527 13833.68003 
L -4189.249902 13749.491038 
L -4239.055646 13537.810735 
L -4288.84804 13330.165909 
L -4340.105173 13114.516521 
L -4358.628827 13038.643708 
L -4377.230755 12951.781884 
L -4410.280095 12808.467292 
L -4434.08279 12705.169032 
L -4454.226247 12627.500778 
L -4465.225665 12585.068579 
L -4505.424164 12429.980087 
L -4526.519898 12340.828855 
L -4566.223015 12176.612058 
L -4571.351691 12155.394769 
L -4609.987757 12011.166293 
L -4641.511781 11880.512223 
L -4673.326728 11740.546114 
L -4684.953909 11692.590148 
L -4700.781319 11627.201199 
L -4730.535238 11504.17806 
L -4733.810146 11489.598126 
L -4756.044723 11398.711913 
L -4759.857886 11379.477209 
L -4774.126349 11324.079186 
L -4788.53857 11264.583923 
L -4794.993402 11237.845104 
L -4802.110945 11208.500749 
L -4855.123893 10987.578718 
L -4872.390011 10922.380467 
L -4886.196785 10874.927972 
L -4916.97956 10743.464173 
L -4919.146499 10734.282232 
L -4922.375088 10720.509253 
L -4938.694093 10651.148214 
L -4943.360705 10624.093311 
L -4992.493238 10401.668779 
L -5000.889859 10367.858194 
L -5043.313733 10197.316549 
L -5077.140674 10068.718117 
L -5116.82548 9908.722425 
L -5134.370317 9837.812976 
L -5166.397924 9726.220418 
L -5186.436817 9653.021576 
L -5205.616842 9603.226523 
L -5224.796617 9553.493544 
L -5294.47406 9401.538704 
L -5334.536158 9315.550673 
L -5355.134175 9258.682152 
L -5371.067115 9214.588765 
L -5381.917661 9163.277458 
L -5392.72435 9112.028095 
L -5397.153793 9090.87057 
L -5374.698701 9085.957536 
L -5354.575729 9074.781085 
L -5338.483206 9058.402008 
L -5327.769823 9038.066259 
L -5323.30256 9015.577059 
L -5298.955031 9015.873287 
L -5274.520045 9016.231311 
L -5248.571386 9012.300624 
L -5157.834106 8992.955571 
L -5073.637544 8974.934631 
L -4864.288486 8934.417281 
L -4624.987696 8886.66434 
L -4567.032625 8876.671942 
L -4165.114473 8802.264184 
L -4110.721328 8783.590236 
L -4084.827063 8762.585147 
L -4062.621454 8734.141382 
L -4050.375577 8702.003997 
L -4038.916712 8655.589271 
L -4039.701594 8628.211735 
L -4042.205034 8540.429752 
L -4044.186185 8328.349488 
L -4046.527646 8291.663949 
L -4046.019484 8273.03647 
L -4045.591106 8256.768521 
L -4089.256739 7805.167476 
L -4119.988922 7441.874083 
L -4149.792614 7137.373365 
L -4212.699549 6574.388142 
L -4201.507481 6554.112597 
L -4200.69859 6520.21094 
L -4202.387323 6496.685594 
L -4196.903321 6492.508456 
L -4187.564505 6479.440777 
L -4169.999003 6474.107831 
L -4149.220742 6463.797801 
L -4137.191917 6459.786184 
L -4123.201985 6455.085401 
L -4100.44537 6435.766568 
L -3984.851039 6415.160013 
" clip-path="url(#p8833f54b15)" style="fill: #add8e6; stroke: #808080"/>
    <path d="M -3023.228877 16780.997944 
L -3013.797502 16759.349572 
L -2814.588 16305.297272 
L -2677.520053 15921.662498 
L -2618.956293 15662.699709 
L -2591.96245 15466.296779 
L -2612.796758 15773.441567 
L -2706.812646 16149.984959 
L -2785.059978 16395.351689 
L -2920.608778 16845.537398 
L -2925.209844 16907.886555 
L -2923.180019 16969.407372 
L -2917.477619 17019.368423 
L -2916.737363 17046.125157 
L -2935.467495 17002.786919 
L -3023.228877 16780.997944 
" clip-path="url(#p8833f54b15)" style="fill: #add8e6; stroke: #808080"/>
    <path d="M -3045.084942 16678.551425 
L -3055.003818 16700.69689 
L -3139.437619 16487.317319 
L -3132.966871 16477.362876 
L -3019.193051 16368.534869 
L -2975.182435 16320.339481 
L -2924.508521 16254.241917 
L -2878.385726 16184.309509 
L -2818.528482 16069.693138 
L -2744.869016 15958.881759 
L -2802.987302 16125.76919 
L -2873.700178 16298.346674 
L -3045.084942 16678.551425 
" clip-path="url(#p8833f54b15)" style="fill: #add8e6; stroke: #808080"/>
    <path d="M 2077.135924 -449.737589 
L 1968.937976 -412.126106 
L 1892.993782 -386.416868 
L 1718.062884 -325.11236 
L 1700.946224 -343.432855 
L 1661.985667 -384.962937 
L 1642.013498 -409.358411 
L 1628.701931 -437.74963 
L 1621.557893 -474.108475 
L 1620.818755 -499.561454 
L 1623.43419 -526.267344 
L 1626.436474 -593.951578 
L 1663.28515 -754.009115 
L 1768.508758 -1168.476778 
L 1851.460844 -1550.771729 
L 1862.933716 -1746.320339 
L 1864.788814 -1961.394077 
L 1891.060873 -2009.474688 
L 2046.964688 -701.958243 
L 2077.135924 -449.737589 
" clip-path="url(#p8833f54b15)" style="fill: #add8e6; stroke: #808080"/>
    <path d="M 1968.937976 -412.126106 
L 2077.135924 -449.737589 
L 2185.228445 453.876931 
L 2241.757199 947.274709 
L 2258.578975 1085.608989 
L 2208.044423 936.336262 
L 2137.227129 500.664565 
L 2112.523255 405.196231 
L 2080.934098 311.737682 
L 2028.975203 166.442974 
L 1970.784013 22.659095 
L 1865.480575 -252.466587 
L 1860.160336 -278.152606 
L 1862.969445 -312.123274 
L 1866.070335 -337.092382 
L 1874.88044 -363.570635 
L 1892.993782 -386.416868 
L 1968.937976 -412.126106 
" clip-path="url(#p8833f54b15)" style="fill: #add8e6; stroke: #808080"/>
    <path d="M 1120.312857 -120.970083 
L 1346.64057 -231.801169 
L 1409.584478 -258.148912 
L 1443.723216 -276.081315 
L 1475.350164 -301.642021 
L 1508.219922 -333.850144 
L 1540.261864 -378.845349 
L 1571.202839 -453.141718 
L 1610.387917 -553.603985 
L 1626.436474 -593.951578 
L 1623.43419 -526.267344 
L 1620.818755 -499.561454 
L 1621.557893 -474.108475 
L 1628.701931 -437.74963 
L 1642.013498 -409.358411 
L 1661.985667 -384.962937 
L 1700.946224 -343.432855 
L 1718.062884 -325.11236 
L 1458.511554 -236.457297 
L 1120.312857 -120.970083 
" clip-path="url(#p8833f54b15)" style="fill: #add8e6; stroke: #808080"/>
    <path d="M 1970.784013 22.659095 
L 1881.419497 -129.712841 
L 1846.905454 -171.940521 
L 1799.35844 -211.330839 
L 1768.362448 -232.026345 
L 1737.266288 -243.53275 
L 1696.004631 -255.626143 
L 1637.577651 -261.39163 
L 1600.279083 -262.322786 
L 1555.238298 -256.584943 
L 1458.511554 -236.457297 
L 1718.062884 -325.11236 
L 1892.993782 -386.416868 
L 1874.88044 -363.570635 
L 1866.070335 -337.092382 
L 1862.969445 -312.123274 
L 1860.160336 -278.152606 
L 1865.480575 -252.466587 
L 1970.784013 22.659095 
" clip-path="url(#p8833f54b15)" style="fill: #add8e6; stroke: #808080"/>
    <path d="M 1021.296591 5985.429547 
L 1013.326325 5831.606049 
L 984.747706 5738.757527 
L 966.055052 5706.4104 
L 939.164607 5675.332144 
L 913.820492 5650.084862 
L 878.003402 5624.1272 
L 855.574113 5609.549075 
L 822.801079 5593.763438 
L 793.580981 5583.740046 
L 679.514519 5563.380387 
L 647.355399 5535.299465 
L 708.085636 5535.471272 
L 1204.634869 5594.981291 
L 1137.321019 5622.398521 
L 1097.189345 5650.470507 
L 1074.717003 5675.56583 
L 1060.729336 5706.96581 
L 1044.020935 5786.243365 
L 1021.296591 5985.429547 
" clip-path="url(#p8833f54b15)" style="fill: #add8e6; stroke: #808080"/>
    <path d="M -2975.182435 16320.339481 
L -3019.193051 16368.534869 
L -3132.966871 16477.362876 
L -3139.437619 16487.317319 
L -3148.943739 16462.38907 
L -3234.518725 16258.957794 
L -3204.554665 16294.561661 
L -3167.598111 16319.588539 
L -3104.019741 16344.840762 
L -3035.724569 16343.877458 
L -2975.182435 16320.339481 
" clip-path="url(#p8833f54b15)" style="fill: #add8e6; stroke: #808080"/>
    <path d="M 1268.967951 5366.352015 
L 1249.597939 5419.065569 
L 1237.02165 5454.993239 
L 1232.550287 5487.975932 
L 1234.523568 5517.27413 
L 1245.839666 5548.528062 
L 1265.752821 5580.49847 
L 1291.133962 5603.696527 
L 1204.634869 5594.981291 
L 708.085636 5535.471272 
L 818.157932 5509.030962 
L 917.577334 5519.815299 
L 962.895854 5516.622953 
L 1016.434789 5505.82877 
L 1082.384949 5475.063631 
L 1145.209867 5435.989169 
L 1268.967951 5366.352015 
" clip-path="url(#p8833f54b15)" style="fill: #add8e6; stroke: #808080"/>
    <path d="M -4624.987696 8886.66434 
L -4864.288486 8934.417281 
L -5073.637544 8974.934631 
L -5157.834106 8992.955571 
L -5248.571386 9012.300624 
L -5274.520045 9016.231311 
L -5298.955031 9015.873287 
L -5323.30256 9015.577059 
L -5325.424041 8992.984328 
L -5333.867212 8971.963557 
L -5347.928904 8954.126779 
L -5366.469836 8941.022575 
L -5362.744878 8918.349445 
L -5356.967624 8882.259268 
L -5360.412867 8868.859439 
L -5477.801263 8416.494286 
L -5511.031596 8282.305764 
L -5517.340341 8246.129234 
L -5542.264732 8103.036371 
L -5560.656609 7900.196122 
L -5571.998029 7719.56068 
L -5624.79956 7646.898567 
L -5702.656484 7528.494983 
L -5785.681457 7389.618897 
L -5794.694061 7367.668492 
L -5804.052926 7332.618972 
L -5813.205688 7307.688861 
L -5818.220488 7294.542223 
L -5861.929333 7115.249335 
L -5898.389222 6979.890844 
L -5912.558965 6927.037539 
L -5924.33585 6844.002862 
L -5947.903212 6701.526303 
L -5959.132363 6668.220978 
L -5969.809021 6630.195374 
L -5956.944417 6628.292713 
L -5866.896095 6613.732234 
L -5614.733855 6567.746332 
L -5552.14629 6561.404147 
L -5516.992469 6557.879464 
L -5454.143167 6551.536285 
L -5259.707509 6531.866747 
L -5020.54422 6514.849502 
L -4984.207848 6512.810638 
L -4912.887788 6508.674966 
L -4704.647712 6494.795031 
L -4377.796918 6475.944816 
L -4355.46354 6474.508328 
L -4337.509535 6481.653576 
L -4305.753616 6479.814747 
L -4283.681223 6478.627384 
L -4281.043296 6485.013925 
L -4265.943992 6499.991034 
L -4254.58589 6504.611568 
L -4243.205208 6530.155096 
L -4227.15293 6556.739303 
L -4212.699549 6574.388142 
L -4149.792614 7137.373365 
L -4119.988922 7441.874083 
L -4089.256739 7805.167476 
L -4045.591106 8256.768521 
L -4046.019484 8273.03647 
L -4046.527646 8291.663949 
L -4044.186185 8328.349488 
L -4042.205034 8540.429752 
L -4039.701594 8628.211735 
L -4038.916712 8655.589271 
L -4050.375577 8702.003997 
L -4062.621454 8734.141382 
L -4084.827063 8762.585147 
L -4110.721328 8783.590236 
L -4165.114473 8802.264184 
L -4567.032625 8876.671942 
L -4624.987696 8886.66434 
" clip-path="url(#p8833f54b15)" style="fill: #add8e6; stroke: #808080"/>
    <path d="M -6583.150075 6262.128665 
L -6618.606212 6266.584509 
L -6637.083555 6259.315543 
L -6679.63562 6184.198739 
L -6718.796304 6133.471282 
L -6688.129173 6132.32093 
L -6648.858319 6148.155546 
L -6544.570594 6195.576871 
L -6544.399696 6208.490279 
L -6555.132486 6236.586513 
L -6574.677418 6250.864811 
L -6583.150075 6262.128665 
" clip-path="url(#p8833f54b15)" style="fill: #add8e6; stroke: #808080"/>
    <path d="M -8670.227 3626.699727 
L -8677.905658 3612.132786 
L -8676.78683 3592.696387 
L -8670.893673 3579.578281 
L -8663.455357 3572.477847 
L -8628.953267 3542.012812 
L -8617.773064 3531.672508 
L -8596.761264 3512.237715 
L -8578.971288 3494.923639 
L -8566.153024 3492.463293 
L -8554.364379 3495.71801 
L -8545.803196 3499.230885 
L -8539.025519 3504.425513 
L -8532.269933 3516.698042 
L -8530.052814 3528.487686 
L -8531.938109 3539.731036 
L -8537.444819 3550.799143 
L -8552.753107 3566.491448 
L -8585.638021 3597.945021 
L -8625.789267 3635.691362 
L -8643.620283 3639.532819 
L -8658.901402 3635.481563 
L -8670.227 3626.699727 
" clip-path="url(#p8833f54b15)" style="fill: #add8e6; stroke: #808080"/>
    <path d="M -6431.465034 3417.673083 
L -6386.605299 3337.628832 
L -6369.070011 3294.859038 
L -6354.461 3236.949264 
L -6349.263211 3295.232154 
L -6340.605273 3329.849422 
L -6328.351169 3356.508477 
L -6309.437738 3378.242028 
L -6270.712986 3401.776611 
L -6158.144447 3421.045958 
L -6129.948509 3439.646227 
L -6315.669044 3422.653077 
L -6381.954316 3416.52607 
L -6431.465034 3417.673083 
" clip-path="url(#p8833f54b15)" style="fill: #add8e6; stroke: #808080"/>
    <path d="M -5265.867941 4747.899447 
L -5277.947131 4749.613647 
L -5291.056223 4756.794664 
L -5300.095049 4768.122699 
L -5303.72754 4778.378319 
L -5305.409584 4742.808155 
L -5308.491669 4678.123915 
L -5309.144659 4664.65324 
L -5309.981103 4648.32717 
L -5313.720367 4610.590432 
L -5318.760035 4575.527479 
L -5295.211045 4600.412355 
L -5276.661495 4630.900655 
L -5257.16113 4686.344647 
L -5245.065065 4731.753871 
L -5238.212279 4760.664585 
L -5246.086407 4753.859788 
L -5253.863739 4750.096914 
L -5265.867941 4747.899447 
" clip-path="url(#p8833f54b15)" style="fill: #add8e6; stroke: #808080"/>
    <path d="M -5303.72754 4778.378319 
L -5300.095049 4768.122699 
L -5291.056223 4756.794664 
L -5277.947131 4749.613647 
L -5265.867941 4747.899447 
L -5253.863739 4750.096914 
L -5246.086407 4753.859788 
L -5238.212279 4760.664585 
L -5233.8744 4766.673349 
L -5229.608 4777.711326 
L -5228.797024 4785.90417 
L -5229.774723 4794.102625 
L -5232.065883 4800.815129 
L -5236.318471 4808.092561 
L -5247.325146 4817.936709 
L -5256.91046 4821.940288 
L -5272.4825 4822.796234 
L -5281.696203 4820.093323 
L -5290.613083 4814.657684 
L -5298.669112 4805.494167 
L -5303.28392 4794.643533 
L -5303.72754 4778.378319 
" clip-path="url(#p8833f54b15)" style="fill: #add8e6; stroke: #808080"/>
    <path d="M -5303.28392 4794.643533 
L -5298.669112 4805.494167 
L -5290.613083 4814.657684 
L -5281.696203 4820.093323 
L -5272.4825 4822.796234 
L -5256.91046 4821.940288 
L -5247.325146 4817.936709 
L -5246.901763 4841.652339 
L -5277.020208 4920.037566 
L -5315.644436 5012.853436 
L -5370.072916 5088.21044 
L -5362.304344 5061.302751 
L -5345.040074 5001.770018 
L -5338.164886 4968.22189 
L -5326.494652 4919.509685 
L -5313.45736 4847.63501 
L -5303.28392 4794.643533 
" clip-path="url(#p8833f54b15)" style="fill: #add8e6; stroke: #808080"/>
    <path d="M -5236.318471 4808.092561 
L -5232.065883 4800.815129 
L -5229.774723 4794.102625 
L -5228.797024 4785.90417 
L -5229.608 4777.711326 
L -5233.8744 4766.673349 
L -5211.10504 4765.484378 
L -5188.335682 4764.295392 
L -5161.01381 4767.996919 
L -5088.271807 4773.232146 
L -5159.073388 4788.541387 
L -5217.886387 4801.081086 
L -5236.318471 4808.092561 
" clip-path="url(#p8833f54b15)" style="fill: #add8e6; stroke: #808080"/>
    <path d="M -5995.29152 172.493231 
L -5862.673096 162.02184 
L -5838.732253 159.774135 
L -5860.675124 173.253238 
L -5878.26429 184.049036 
L -5916.605466 212.54205 
L -5936.429535 248.055153 
L -5946.233375 293.532917 
L -5940.337253 365.845134 
L -5932.816341 483.599488 
L -5952.837682 539.850031 
L -5979.105996 313.192555 
L -5995.29152 172.493231 
" clip-path="url(#p8833f54b15)" style="fill: #add8e6; stroke: #808080"/>
    <path d="M -4191.711574 6423.576274 
L -4173.944459 6426.810595 
L -4169.537416 6426.9829 
L -4150.687652 6427.668244 
L -4115.301008 6428.859971 
L -4100.44537 6435.766568 
L -4123.201985 6455.085401 
L -4137.191917 6459.786184 
L -4149.220742 6463.797801 
L -4169.999003 6474.107831 
L -4187.564505 6479.440777 
L -4182.721967 6465.580211 
L -4181.808534 6450.924962 
L -4184.864487 6436.530625 
L -4191.711574 6423.576274 
" clip-path="url(#p8833f54b15)" style="fill: #add8e6; stroke: #808080"/>
    <path d="M -4289.499432 6446.112589 
L -4283.012339 6428.024969 
L -4278.535322 6422.733475 
L -4270.581207 6413.271202 
L -4253.770371 6403.842992 
L -4236.633909 6400.808628 
L -4231.832448 6401.538469 
L -4219.436138 6403.361825 
L -4203.923161 6411.197679 
L -4191.711574 6423.576274 
L -4184.864487 6436.530625 
L -4181.808534 6450.924962 
L -4182.721967 6465.580211 
L -4187.564505 6479.440777 
L -4196.903321 6492.508456 
L -4202.387323 6496.685594 
L -4209.699198 6502.296502 
L -4224.864375 6507.870177 
L -4246.198246 6508.06186 
L -4254.58589 6504.611568 
L -4265.943992 6499.991034 
L -4281.043296 6485.013925 
L -4283.681223 6478.627384 
L -4289.176786 6465.358308 
L -4289.499432 6446.112589 
" clip-path="url(#p8833f54b15)" style="fill: #add8e6; stroke: #808080"/>
    <path d="M -4289.499432 6446.112589 
L -4289.176786 6465.358308 
L -4283.681223 6478.627384 
L -4305.753616 6479.814747 
L -4337.509535 6481.653576 
L -4355.46354 6474.508328 
L -4339.312768 6463.281745 
L -4310.024593 6453.68994 
L -4289.499432 6446.112589 
" clip-path="url(#p8833f54b15)" style="fill: #add8e6; stroke: #808080"/>
    <path d="M -4254.58589 6504.611568 
L -4246.198246 6508.06186 
L -4224.864375 6507.870177 
L -4209.699198 6502.296502 
L -4202.387323 6496.685594 
L -4200.69859 6520.21094 
L -4201.507481 6554.112597 
L -4212.699549 6574.388142 
L -4227.15293 6556.739303 
L -4243.205208 6530.155096 
L -4254.58589 6504.611568 
" clip-path="url(#p8833f54b15)" style="fill: #add8e6; stroke: #808080"/>
    <path d="M -6237.760769 -1364.879717 
L -6280.689914 -1353.44657 
L -6315.112117 -1341.605297 
L -6299.817166 -1388.652198 
L -6282.508653 -1447.439688 
L -6285.933886 -1426.754282 
L -6282.467401 -1406.090291 
L -6272.46489 -1387.619635 
L -6256.979555 -1373.387896 
L -6237.760769 -1364.879717 
" clip-path="url(#p8833f54b15)" style="fill: #add8e6; stroke: #808080"/>
    <path d="M -6165.320482 -1396.396518 
L -6158.447141 -1416.347627 
L -6161.069532 -1361.951804 
L -6159.97083 -1303.221513 
L -6230.954347 -1364.280013 
L -6216.643606 -1363.082778 
L -6196.071295 -1368.175746 
L -6178.354278 -1379.716827 
L -6165.320482 -1396.396518 
" clip-path="url(#p8833f54b15)" style="fill: #add8e6; stroke: #808080"/>
    <path d="M -6158.447141 -1416.347627 
L -6165.320482 -1396.396518 
L -6178.354278 -1379.716827 
L -6196.071295 -1368.175746 
L -6216.643606 -1363.082778 
L -6230.954347 -1364.280013 
L -6237.760769 -1364.879717 
L -6256.979555 -1373.387896 
L -6272.46489 -1387.619635 
L -6282.467401 -1406.090291 
L -6285.933886 -1426.754282 
L -6282.508653 -1447.439688 
L -6272.533718 -1465.910339 
L -6261.877889 -1475.81519 
L -6257.093373 -1480.176107 
L -6237.840485 -1488.741786 
L -6216.865642 -1490.607502 
L -6196.30536 -1485.518267 
L -6178.516951 -1474.087612 
L -6165.423096 -1457.427106 
L -6158.513004 -1437.518876 
L -6158.447141 -1416.347627 
" clip-path="url(#p8833f54b15)" style="fill: #add8e6; stroke: #808080"/>
    <path d="M -6165.423096 -1457.427106 
L -6178.516951 -1474.087612 
L -6196.30536 -1485.518267 
L -6216.865642 -1490.607502 
L -6237.840485 -1488.741786 
L -6257.093373 -1480.176107 
L -6261.877889 -1475.81519 
L -6240.861348 -1506.364926 
L -6214.140892 -1554.192424 
L -6195.684807 -1594.543875 
L -6189.73876 -1547.997584 
L -6173.220419 -1482.113229 
L -6165.423096 -1457.427106 
" clip-path="url(#p8833f54b15)" style="fill: #add8e6; stroke: #808080"/>
    <path d="M -5397.153793 9090.87057 
L -5421.026284 9089.020631 
L -5443.219097 9080.149679 
L -5461.809519 9065.182994 
L -5475.092032 9045.356969 
L -5482.016957 9021.475447 
L -5481.178584 8996.576259 
L -5472.656226 8973.205185 
L -5457.315532 8953.600032 
L -5437.200382 8939.940204 
L -5413.879169 8932.975639 
L -5389.575135 8933.334152 
L -5366.469836 8941.022575 
L -5347.928904 8954.126779 
L -5333.867212 8971.963557 
L -5325.424041 8992.984328 
L -5323.30256 9015.577059 
L -5327.769823 9038.066259 
L -5338.483206 9058.402008 
L -5354.575729 9074.781085 
L -5374.698701 9085.957536 
L -5397.153793 9090.87057 
" clip-path="url(#p8833f54b15)" style="fill: #add8e6; stroke: #808080"/>
    <path d="M -6544.570594 6195.576871 
L -6506.254608 6212.966443 
L -6476.107607 6226.96656 
L -6537.787202 6230.510403 
L -6555.132486 6236.586513 
L -6544.399696 6208.490279 
L -6544.570594 6195.576871 
" clip-path="url(#p8833f54b15)" style="fill: #add8e6; stroke: #808080"/>
   </g>
   <g id="text_1">
    <!-- Zoomed-In Solution for issoire  -->
    <g transform="translate(113.31375 21.472) scale(0.16 -0.16)">
     <defs>
      <path id="DejaVuSans-5a" d="M 359 4666 
L 4025 4666 
L 4025 4184 
L 1075 531 
L 4097 531 
L 4097 0 
L 288 0 
L 288 481 
L 3238 4134 
L 359 4134 
L 359 4666 
z
" transform="scale(0.015625)"/>
      <path id="DejaVuSans-6f" d="M 1959 3097 
Q 1497 3097 1228 2736 
Q 959 2375 959 1747 
Q 959 1119 1226 758 
Q 1494 397 1959 397 
Q 2419 397 2687 759 
Q 2956 1122 2956 1747 
Q 2956 2369 2687 2733 
Q 2419 3097 1959 3097 
z
M 1959 3584 
Q 2709 3584 3137 3096 
Q 3566 2609 3566 1747 
Q 3566 888 3137 398 
Q 2709 -91 1959 -91 
Q 1206 -91 779 398 
Q 353 888 353 1747 
Q 353 2609 779 3096 
Q 1206 3584 1959 3584 
z
" transform="scale(0.015625)"/>
      <path id="DejaVuSans-6d" d="M 3328 2828 
Q 3544 3216 3844 3400 
Q 4144 3584 4550 3584 
Q 5097 3584 5394 3201 
Q 5691 2819 5691 2113 
L 5691 0 
L 5113 0 
L 5113 2094 
Q 5113 2597 4934 2840 
Q 4756 3084 4391 3084 
Q 3944 3084 3684 2787 
Q 3425 2491 3425 1978 
L 3425 0 
L 2847 0 
L 2847 2094 
Q 2847 2600 2669 2842 
Q 2491 3084 2119 3084 
Q 1678 3084 1418 2786 
Q 1159 2488 1159 1978 
L 1159 0 
L 581 0 
L 581 3500 
L 1159 3500 
L 1159 2956 
Q 1356 3278 1631 3431 
Q 1906 3584 2284 3584 
Q 2666 3584 2933 3390 
Q 3200 3197 3328 2828 
z
" transform="scale(0.015625)"/>
      <path id="DejaVuSans-65" d="M 3597 1894 
L 3597 1613 
L 953 1613 
Q 991 1019 1311 708 
Q 1631 397 2203 397 
Q 2534 397 2845 478 
Q 3156 559 3463 722 
L 3463 178 
Q 3153 47 2828 -22 
Q 2503 -91 2169 -91 
Q 1331 -91 842 396 
Q 353 884 353 1716 
Q 353 2575 817 3079 
Q 1281 3584 2069 3584 
Q 2775 3584 3186 3129 
Q 3597 2675 3597 1894 
z
M 3022 2063 
Q 3016 2534 2758 2815 
Q 2500 3097 2075 3097 
Q 1594 3097 1305 2825 
Q 1016 2553 972 2059 
L 3022 2063 
z
" transform="scale(0.015625)"/>
      <path id="DejaVuSans-64" d="M 2906 2969 
L 2906 4863 
L 3481 4863 
L 3481 0 
L 2906 0 
L 2906 525 
Q 2725 213 2448 61 
Q 2172 -91 1784 -91 
Q 1150 -91 751 415 
Q 353 922 353 1747 
Q 353 2572 751 3078 
Q 1150 3584 1784 3584 
Q 2172 3584 2448 3432 
Q 2725 3281 2906 2969 
z
M 947 1747 
Q 947 1113 1208 752 
Q 1469 391 1925 391 
Q 2381 391 2643 752 
Q 2906 1113 2906 1747 
Q 2906 2381 2643 2742 
Q 2381 3103 1925 3103 
Q 1469 3103 1208 2742 
Q 947 2381 947 1747 
z
" transform="scale(0.015625)"/>
      <path id="DejaVuSans-2d" d="M 313 2009 
L 1997 2009 
L 1997 1497 
L 313 1497 
L 313 2009 
z
" transform="scale(0.015625)"/>
      <path id="DejaVuSans-49" d="M 628 4666 
L 1259 4666 
L 1259 0 
L 628 0 
L 628 4666 
z
" transform="scale(0.015625)"/>
      <path id="DejaVuSans-6e" d="M 3513 2113 
L 3513 0 
L 2938 0 
L 2938 2094 
Q 2938 2591 2744 2837 
Q 2550 3084 2163 3084 
Q 1697 3084 1428 2787 
Q 1159 2491 1159 1978 
L 1159 0 
L 581 0 
L 581 3500 
L 1159 3500 
L 1159 2956 
Q 1366 3272 1645 3428 
Q 1925 3584 2291 3584 
Q 2894 3584 3203 3211 
Q 3513 2838 3513 2113 
z
" transform="scale(0.015625)"/>
      <path id="DejaVuSans-20" transform="scale(0.015625)"/>
      <path id="DejaVuSans-53" d="M 3425 4513 
L 3425 3897 
Q 3066 4069 2747 4153 
Q 2428 4238 2131 4238 
Q 1616 4238 1336 4038 
Q 1056 3838 1056 3469 
Q 1056 3159 1242 3001 
Q 1428 2844 1947 2747 
L 2328 2669 
Q 3034 2534 3370 2195 
Q 3706 1856 3706 1288 
Q 3706 609 3251 259 
Q 2797 -91 1919 -91 
Q 1588 -91 1214 -16 
Q 841 59 441 206 
L 441 856 
Q 825 641 1194 531 
Q 1563 422 1919 422 
Q 2459 422 2753 634 
Q 3047 847 3047 1241 
Q 3047 1584 2836 1778 
Q 2625 1972 2144 2069 
L 1759 2144 
Q 1053 2284 737 2584 
Q 422 2884 422 3419 
Q 422 4038 858 4394 
Q 1294 4750 2059 4750 
Q 2388 4750 2728 4690 
Q 3069 4631 3425 4513 
z
" transform="scale(0.015625)"/>
      <path id="DejaVuSans-6c" d="M 603 4863 
L 1178 4863 
L 1178 0 
L 603 0 
L 603 4863 
z
" transform="scale(0.015625)"/>
      <path id="DejaVuSans-75" d="M 544 1381 
L 544 3500 
L 1119 3500 
L 1119 1403 
Q 1119 906 1312 657 
Q 1506 409 1894 409 
Q 2359 409 2629 706 
Q 2900 1003 2900 1516 
L 2900 3500 
L 3475 3500 
L 3475 0 
L 2900 0 
L 2900 538 
Q 2691 219 2414 64 
Q 2138 -91 1772 -91 
Q 1169 -91 856 284 
Q 544 659 544 1381 
z
M 1991 3584 
L 1991 3584 
z
" transform="scale(0.015625)"/>
      <path id="DejaVuSans-74" d="M 1172 4494 
L 1172 3500 
L 2356 3500 
L 2356 3053 
L 1172 3053 
L 1172 1153 
Q 1172 725 1289 603 
Q 1406 481 1766 481 
L 2356 481 
L 2356 0 
L 1766 0 
Q 1100 0 847 248 
Q 594 497 594 1153 
L 594 3053 
L 172 3053 
L 172 3500 
L 594 3500 
L 594 4494 
L 1172 4494 
z
" transform="scale(0.015625)"/>
      <path id="DejaVuSans-69" d="M 603 3500 
L 1178 3500 
L 1178 0 
L 603 0 
L 603 3500 
z
M 603 4863 
L 1178 4863 
L 1178 4134 
L 603 4134 
L 603 4863 
z
" transform="scale(0.015625)"/>
      <path id="DejaVuSans-66" d="M 2375 4863 
L 2375 4384 
L 1825 4384 
Q 1516 4384 1395 4259 
Q 1275 4134 1275 3809 
L 1275 3500 
L 2222 3500 
L 2222 3053 
L 1275 3053 
L 1275 0 
L 697 0 
L 697 3053 
L 147 3053 
L 147 3500 
L 697 3500 
L 697 3744 
Q 697 4328 969 4595 
Q 1241 4863 1831 4863 
L 2375 4863 
z
" transform="scale(0.015625)"/>
      <path id="DejaVuSans-72" d="M 2631 2963 
Q 2534 3019 2420 3045 
Q 2306 3072 2169 3072 
Q 1681 3072 1420 2755 
Q 1159 2438 1159 1844 
L 1159 0 
L 581 0 
L 581 3500 
L 1159 3500 
L 1159 2956 
Q 1341 3275 1631 3429 
Q 1922 3584 2338 3584 
Q 2397 3584 2469 3576 
Q 2541 3569 2628 3553 
L 2631 2963 
z
" transform="scale(0.015625)"/>
      <path id="DejaVuSans-73" d="M 2834 3397 
L 2834 2853 
Q 2591 2978 2328 3040 
Q 2066 3103 1784 3103 
Q 1356 3103 1142 2972 
Q 928 2841 928 2578 
Q 928 2378 1081 2264 
Q 1234 2150 1697 2047 
L 1894 2003 
Q 2506 1872 2764 1633 
Q 3022 1394 3022 966 
Q 3022 478 2636 193 
Q 2250 -91 1575 -91 
Q 1294 -91 989 -36 
Q 684 19 347 128 
L 347 722 
Q 666 556 975 473 
Q 1284 391 1588 391 
Q 1994 391 2212 530 
Q 2431 669 2431 922 
Q 2431 1156 2273 1281 
Q 2116 1406 1581 1522 
L 1381 1569 
Q 847 1681 609 1914 
Q 372 2147 372 2553 
Q 372 3047 722 3315 
Q 1072 3584 1716 3584 
Q 2034 3584 2315 3537 
Q 2597 3491 2834 3397 
z
" transform="scale(0.015625)"/>
     </defs>
     <use xlink:href="#DejaVuSans-5a"/>
     <use xlink:href="#DejaVuSans-6f" transform="translate(68.505859 0)"/>
     <use xlink:href="#DejaVuSans-6f" transform="translate(129.6875 0)"/>
     <use xlink:href="#DejaVuSans-6d" transform="translate(190.869141 0)"/>
     <use xlink:href="#DejaVuSans-65" transform="translate(288.28125 0)"/>
     <use xlink:href="#DejaVuSans-64" transform="translate(349.804688 0)"/>
     <use xlink:href="#DejaVuSans-2d" transform="translate(413.28125 0)"/>
     <use xlink:href="#DejaVuSans-49" transform="translate(449.365234 0)"/>
     <use xlink:href="#DejaVuSans-6e" transform="translate(478.857422 0)"/>
     <use xlink:href="#DejaVuSans-20" transform="translate(542.236328 0)"/>
     <use xlink:href="#DejaVuSans-53" transform="translate(574.023438 0)"/>
     <use xlink:href="#DejaVuSans-6f" transform="translate(637.5 0)"/>
     <use xlink:href="#DejaVuSans-6c" transform="translate(698.681641 0)"/>
     <use xlink:href="#DejaVuSans-75" transform="translate(726.464844 0)"/>
     <use xlink:href="#DejaVuSans-74" transform="translate(789.84375 0)"/>
     <use xlink:href="#DejaVuSans-69" transform="translate(829.052734 0)"/>
     <use xlink:href="#DejaVuSans-6f" transform="translate(856.835938 0)"/>
     <use xlink:href="#DejaVuSans-6e" transform="translate(918.017578 0)"/>
     <use xlink:href="#DejaVuSans-20" transform="translate(981.396484 0)"/>
     <use xlink:href="#DejaVuSans-66" transform="translate(1013.183594 0)"/>
     <use xlink:href="#DejaVuSans-6f" transform="translate(1048.388672 0)"/>
     <use xlink:href="#DejaVuSans-72" transform="translate(1109.570312 0)"/>
     <use xlink:href="#DejaVuSans-20" transform="translate(1150.683594 0)"/>
     <use xlink:href="#DejaVuSans-69" transform="translate(1182.470703 0)"/>
     <use xlink:href="#DejaVuSans-73" transform="translate(1210.253906 0)"/>
     <use xlink:href="#DejaVuSans-73" transform="translate(1262.353516 0)"/>
     <use xlink:href="#DejaVuSans-6f" transform="translate(1314.453125 0)"/>
     <use xlink:href="#DejaVuSans-69" transform="translate(1375.634766 0)"/>
     <use xlink:href="#DejaVuSans-72" transform="translate(1403.417969 0)"/>
     <use xlink:href="#DejaVuSans-65" transform="translate(1442.28125 0)"/>
     <use xlink:href="#DejaVuSans-20" transform="translate(1503.804688 0)"/>
    </g>
   </g>
  </g>
 </g>
 <defs>
  <clipPath id="p8833f54b15">
   <rect x="103.121568" y="41.472" width="266.076865" height="266.112"/>
  </clipPath>
 </defs>
</svg>
