<?xml version="1.0" encoding="utf-8" standalone="no"?>
<!DOCTYPE svg PUBLIC "-//W3C//DTD SVG 1.1//EN"
  "http://www.w3.org/Graphics/SVG/1.1/DTD/svg11.dtd">
<svg xmlns:xlink="http://www.w3.org/1999/xlink" width="460.8pt" height="345.6pt" viewBox="0 0 460.8 345.6" xmlns="http://www.w3.org/2000/svg" version="1.1">
 <metadata>
  <rdf:RDF xmlns:dc="http://purl.org/dc/elements/1.1/" xmlns:cc="http://creativecommons.org/ns#" xmlns:rdf="http://www.w3.org/1999/02/22-rdf-syntax-ns#">
   <cc:Work>
    <dc:type rdf:resource="http://purl.org/dc/dcmitype/StillImage"/>
    <dc:date>2025-05-29T14:01:46.807106</dc:date>
    <dc:format>image/svg+xml</dc:format>
    <dc:creator>
     <cc:Agent>
      <dc:title>Matplotlib v3.10.3, https://matplotlib.org/</dc:title>
     </cc:Agent>
    </dc:creator>
   </cc:Work>
  </rdf:RDF>
 </metadata>
 <defs>
  <style type="text/css">*{stroke-linejoin: round; stroke-linecap: butt}</style>
 </defs>
 <g id="figure_1">
  <g id="patch_1">
   <path d="M 0 345.6 
L 460.8 345.6 
L 460.8 0 
L 0 0 
z
" style="fill: #ffffff"/>
  </g>
  <g id="axes_1">
   <g id="PatchCollection_1">
    <path d="M 119.888563 273.830936 
L 118.813558 275.979513 
L 116.901408 278.684957 
L 116.179843 279.391809 
L 114.924419 280.320232 
L 107.458166 284.402793 
L 105.650812 285.323948 
L 104.729685 285.750919 
L 104.016405 286.082997 
L 103.259037 286.435407 
L 102.613442 286.729127 
L 101.582215 286.739062 
L 99.502509 286.281018 
L 95.728358 284.511023 
L 94.638767 284.005023 
L 93.253928 283.376518 
L 89.484698 281.662588 
L 88.065347 281.090284 
L 86.956958 281.131861 
L 84.493285 278.882059 
L 81.970846 275.981685 
L 80.79036 274.632225 
L 79.416812 273.058965 
L 71.251097 263.55855 
L 70.461541 262.674619 
L 68.065482 259.829928 
L 66.848341 257.832064 
L 66.469277 257.115164 
L 65.690092 255.499668 
L 60.727032 243.936105 
L 60.322023 242.983667 
L 59.362667 240.713485 
L 58.558575 238.682928 
L 57.791591 236.412154 
L 57.6 235.12471 
L 57.637275 233.912858 
L 58.089159 231.13345 
L 59.051477 228.211104 
L 59.873199 225.717786 
L 61.799862 221.565029 
L 63.741085 218.049508 
L 64.824652 216.107395 
L 67.459969 210.653196 
L 68.768736 208.113493 
L 73.482601 198.198619 
L 74.060772 197.016514 
L 74.920308 195.553045 
L 75.829905 194.473139 
L 78.780637 192.646424 
L 82.251718 190.831559 
L 89.393937 187.151812 
L 95.542663 183.94185 
L 97.341856 182.975855 
L 99.131302 182.934399 
L 101.527025 183.155845 
L 108.239447 183.770022 
L 109.048562 183.852775 
L 110.458435 183.944877 
L 111.42086 184.146082 
L 112.859772 184.449023 
L 114.48132 185.173259 
L 116.39754 186.852501 
L 117.983587 188.831216 
L 121.431134 195.157403 
L 121.952872 196.116189 
L 128.254977 207.682064 
L 129.367697 209.550047 
L 130.612771 211.89109 
L 131.559835 213.72593 
L 137.153064 223.940871 
L 137.557907 224.823722 
L 137.740054 226.090989 
L 137.875201 227.454893 
L 137.905432 228.044959 
L 137.929033 228.531824 
L 138.040427 230.869681 
L 138.101221 232.155279 
L 138.117254 232.743146 
L 137.74956 234.658396 
L 137.278358 237.256133 
L 136.856566 239.016719 
L 136.608078 240.229236 
L 135.984103 242.380903 
L 135.703326 243.353417 
L 134.274516 246.299722 
L 133.630238 247.50899 
L 133.431153 247.88211 
L 133.07374 248.551929 
L 131.814955 250.912025 
L 127.865897 258.744573 
L 126.63211 261.037267 
L 126.083476 262.077935 
L 119.888563 273.830936 
" clip-path="url(#p5fbdf5d5d4)" style="fill: #ff0000; stroke: #808080"/>
    <path d="M 104.729685 285.750919 
L 105.650812 285.323948 
L 107.458166 284.402793 
L 114.924419 280.320232 
L 116.179843 279.391809 
L 116.901408 278.684957 
L 118.813558 275.979513 
L 119.888563 273.830936 
L 126.083476 262.077935 
L 126.63211 261.037267 
L 127.865897 258.744573 
L 131.814955 250.912025 
L 133.07374 248.551929 
L 133.431153 247.88211 
L 133.630238 247.50899 
L 134.274516 246.299722 
L 135.703326 243.353417 
L 137.670513 240.629819 
L 139.066493 237.275212 
L 140.155052 234.442167 
L 140.13975 233.585022 
L 140.53756 233.229229 
L 141.203743 232.975816 
L 143.329398 232.522599 
L 145.888351 231.969283 
L 143.259266 231.780068 
L 142.271782 231.646285 
L 141.448839 231.689259 
L 140.625895 231.732231 
L 140.469113 231.515059 
L 140.221435 230.47015 
L 139.784252 228.828943 
L 139.079458 226.825053 
L 138.409029 225.723127 
L 137.557907 224.823722 
L 137.153064 223.940871 
L 131.559835 213.72593 
L 130.612771 211.89109 
L 129.367697 209.550047 
L 128.254977 207.682064 
L 121.952872 196.116189 
L 121.431134 195.157403 
L 117.983587 188.831216 
L 116.39754 186.852501 
L 114.48132 185.173259 
L 112.859772 184.449023 
L 111.42086 184.146082 
L 110.458435 183.944877 
L 109.048562 183.852775 
L 108.239447 183.770022 
L 107.220373 183.09776 
L 103.151853 182.401315 
L 101.75224 181.550714 
L 101.06866 180.765207 
L 100.625764 179.80168 
L 100.312844 178.550522 
L 100.124982 176.444027 
L 100.980671 171.724566 
L 101.433283 168.202387 
L 101.556672 167.317883 
L 101.617595 166.119419 
L 102.348274 161.258976 
L 103.397934 154.021187 
L 103.648997 152.110797 
L 104.048845 149.371922 
L 104.978994 143.763618 
L 106.088906 135.630298 
L 106.925859 129.972914 
L 108.596989 118.786058 
L 109.489763 112.834539 
L 110.34391 107.138951 
L 110.93392 103.201206 
L 114.640693 78.96385 
L 115.364316 76.930809 
L 115.092491 72.674861 
L 114.87939 70.061309 
L 115.233726 68.417625 
L 115.950219 67.134089 
L 117.335969 66.104277 
L 117.971687 65.714089 
L 118.76476 65.226919 
L 132.23775 64.59914 
L 133.464114 64.532469 
L 163.970715 62.520228 
L 168.294314 62.226082 
L 185.663675 61.329607 
L 206.169037 60.505924 
L 210.969067 60.313335 
L 213.572102 60.352145 
L 218.079266 60.277151 
L 236.049033 59.315233 
L 242.288003 58.981019 
L 270.136752 57.614295 
L 276.62802 57.299291 
L 281.937049 57.04195 
L 288.6822 56.746255 
L 295.813529 56.426825 
L 302.807562 56.549864 
L 304.018774 56.676059 
L 306.333965 56.919818 
L 309.496064 57.252807 
L 317.520384 58.577404 
L 330.096374 61.372502 
L 330.684863 61.502961 
L 333.659012 64.603316 
L 333.518801 65.593365 
L 333.586717 66.589462 
L 333.86106 67.553464 
L 334.371835 68.500981 
L 335.082399 69.315446 
L 335.956335 69.949856 
L 336.949404 70.375184 
L 338.012658 70.569152 
L 339.261067 70.495477 
L 340.448517 70.103359 
L 341.502558 69.415477 
L 342.342942 68.479217 
L 342.909965 67.35761 
L 343.135511 66.430109 
L 344.959973 64.150956 
L 346.924426 62.730777 
L 351.851126 61.273883 
L 358.570996 59.052577 
L 370.282738 55.080093 
L 382.506118 50.906085 
L 386.002074 50.17862 
L 387.629965 49.971239 
L 388.978032 50.004894 
L 391.089735 50.213273 
L 392.581039 50.65036 
L 393.704935 51.066231 
L 394.825211 51.814221 
L 396.543683 53.237889 
L 397.79111 54.764107 
L 401.020976 60.271225 
L 403.124157 65.467948 
L 405.002087 70.719277 
L 406.143801 74.097112 
L 407.036663 77.547585 
L 409.596184 93.293893 
L 411.422634 98.688997 
L 411.823116 101.988527 
L 414.202987 125.252706 
L 414.648576 133.535928 
L 414.72 138.849396 
L 414.392264 148.786767 
L 413.67149 158.124074 
L 412.884912 164.766599 
L 412.045848 170.805673 
L 411.058324 176.302204 
L 409.891955 181.599621 
L 407.694174 190.598541 
L 406.306061 195.60498 
L 404.918852 199.942714 
L 402.005976 208.71513 
L 400.383831 213.533852 
L 395.194169 228.960473 
L 392.835726 232.394872 
L 389.946461 238.837946 
L 388.545118 241.33117 
L 385.160044 245.684511 
L 383.312231 247.638421 
L 381.173738 249.429485 
L 375.65552 253.406177 
L 371.182581 255.923044 
L 368.911925 257.335297 
L 366.528315 258.447229 
L 364.593279 258.837359 
L 362.955349 258.952739 
L 359.362074 258.562965 
L 355.383775 259.518586 
L 353.188826 259.512377 
L 351.234846 259.420097 
L 348.601748 259.475913 
L 345.999052 259.666262 
L 343.395112 259.957587 
L 342.460196 259.998816 
L 341.342947 260.215674 
L 339.529174 260.56273 
L 338.3016 260.795656 
L 331.25909 262.100125 
L 317.535402 264.795274 
L 302.347797 267.800232 
L 301.597756 267.962001 
L 300.756318 268.14202 
L 296.378553 268.957389 
L 293.493137 269.496364 
L 285.556144 271.184964 
L 285.040877 271.294349 
L 283.350049 271.636437 
L 281.665711 272.034601 
L 252.763993 277.906326 
L 235.778344 281.35834 
L 231.827776 282.160894 
L 228.609895 282.795034 
L 196.73192 289.081169 
L 192.518058 289.911365 
L 190.750088 290.307429 
L 189.393386 290.612428 
L 186.908123 291.064618 
L 185.768846 291.312824 
L 181.590966 292.057598 
L 181.054045 291.807976 
L 179.775079 291.764904 
L 179.0938 291.740134 
L 178.934518 291.733906 
L 178.292368 291.617009 
L 177.85101 291.169615 
L 177.29033 290.886407 
L 176.842295 290.820506 
L 176.668758 290.794128 
L 176.049402 290.903797 
L 175.441815 291.244557 
L 175.154332 291.586549 
L 174.992521 291.777797 
L 174.758061 292.43153 
L 174.016228 292.705396 
L 172.957677 293.052068 
L 172.373946 293.457826 
L 171.56676 293.509745 
L 159.753523 294.19104 
L 152.227185 294.692697 
L 149.649493 294.842171 
L 148.336202 294.915861 
L 139.692219 295.530909 
L 132.664809 296.241817 
L 130.393272 296.471076 
L 129.122721 296.598467 
L 126.860644 296.82769 
L 117.746845 298.48974 
L 114.492265 299.015994 
L 114.027305 299.084761 
L 112.044508 296.840246 
L 111.54129 296.269603 
L 111.109059 295.707715 
L 110.10386 294.456471 
L 109.055858 293.131309 
L 107.922507 291.741336 
L 107.675424 291.389803 
L 105.517142 287.469587 
L 105.147111 286.624765 
L 104.729685 285.750919 
" clip-path="url(#p5fbdf5d5d4)" style="fill: #ff0000; stroke: #808080"/>
    <path d="M 387.381519 -103.5736 
L 391.096072 -72.192876 
L 394.572274 -42.846652 
L 395.264639 -37.0887 
L 398.139575 -13.175372 
L 397.190034 -11.437613 
L 397.122986 -3.66429 
L 396.708327 3.403345 
L 393.710223 17.220479 
L 389.907168 32.200417 
L 388.575361 37.985313 
L 387.995325 39.44358 
L 386.579074 43.074547 
L 385.460787 45.759811 
L 384.302708 47.386055 
L 383.114709 48.55014 
L 381.971629 49.47397 
L 380.737766 50.122094 
L 378.46281 51.07437 
L 370.282738 55.080093 
L 358.570996 59.052577 
L 351.851126 61.273883 
L 346.924426 62.730777 
L 342.939579 62.472401 
L 341.467361 62.08456 
L 340.584108 61.49282 
L 339.38764 61.059189 
L 338.118147 60.951172 
L 336.865527 61.179693 
L 335.625183 61.785159 
L 330.684863 61.502961 
L 330.096374 61.372502 
L 317.520384 58.577404 
L 309.496064 57.252807 
L 306.333965 56.919818 
L 304.018774 56.676059 
L 302.807562 56.549864 
L 295.813529 56.426825 
L 288.6822 56.746255 
L 281.937049 57.04195 
L 276.62802 57.299291 
L 270.136752 57.614295 
L 242.288003 58.981019 
L 236.049033 59.315233 
L 218.079266 60.277151 
L 213.572102 60.352145 
L 210.969067 60.313335 
L 206.169037 60.505924 
L 185.663675 61.329607 
L 168.294314 62.226082 
L 163.970715 62.520228 
L 133.464114 64.532469 
L 132.23775 64.59914 
L 118.76476 65.226919 
L 117.899476 65.308157 
L 113.106301 65.68662 
L 112.607242 60.854681 
L 112.311371 57.985575 
L 112.181305 56.720385 
L 112.005741 55.020009 
L 111.639991 51.480175 
L 108.481947 22.536158 
L 107.154363 12.350454 
L 107.114653 10.227788 
L 107.209433 8.261782 
L 107.207052 7.496598 
L 106.957304 6.777063 
L 106.675488 5.884842 
L 106.078472 3.50361 
L 105.863567 1.821306 
L 104.866256 -11.165895 
L 104.843607 -11.352074 
L 102.917053 -27.109928 
L 102.844252 -27.70884 
L 102.637175 -29.411365 
L 102.240872 -32.652661 
L 100.53883 -47.711102 
L 99.733928 -55.623064 
L 99.559637 -59.969081 
L 99.695276 -64.008637 
L 100.596176 -68.835958 
L 102.212713 -74.690996 
L 104.761909 -82.750264 
L 106.413319 -88.531365 
L 111.921711 -109.617099 
L 116.534614 -126.642979 
L 118.579591 -133.563017 
L 122.457987 -147.487713 
L 126.606498 -162.714769 
L 126.754665 -163.220125 
L 130.290151 -175.346361 
L 132.014503 -181.414957 
L 134.239301 -189.244393 
L 135.338439 -193.111949 
L 136.34719 -197.652412 
L 136.805551 -201.77826 
L 136.943768 -206.459609 
L 136.637786 -208.029426 
L 136.352809 -210.440797 
L 135.862631 -212.945772 
L 135.474189 -214.172005 
L 133.51102 -220.455693 
L 132.047208 -223.821547 
L 130.720374 -227.742091 
L 130.101089 -229.703624 
L 129.571252 -232.295992 
L 129.036803 -237.370174 
L 129.066947 -242.847793 
L 129.071001 -244.070768 
L 128.999667 -248.119642 
L 130.504924 -247.221299 
L 133.054405 -245.961441 
L 135.552687 -244.946021 
L 141.025695 -243.282456 
L 145.404616 -242.192177 
L 149.275149 -241.376321 
L 153.946102 -240.652756 
L 158.957344 -239.984137 
L 168.60776 -238.679441 
L 175.578492 -237.429163 
L 182.571851 -235.510292 
L 185.281445 -234.482176 
L 187.660073 -233.444039 
L 193.287868 -230.726526 
L 198.1102 -227.528509 
L 203.294947 -223.384711 
L 209.22088 -217.656814 
L 211.565867 -215.323845 
L 214.855203 -211.948209 
L 220.321093 -206.185234 
L 226.479356 -200.312305 
L 230.419574 -196.994896 
L 235.558982 -193.297633 
L 240.63001 -190.286826 
L 245.837017 -187.642244 
L 252.450939 -184.728458 
L 257.924711 -182.957689 
L 261.493608 -181.910073 
L 265.051999 -181.187807 
L 270.075096 -180.358099 
L 276.836068 -179.760692 
L 281.730861 -179.61278 
L 287.306063 -179.630911 
L 293.304449 -179.904014 
L 301.593119 -180.186866 
L 308.664247 -180.189781 
L 314.6933 -179.760724 
L 321.333472 -178.997105 
L 327.646686 -177.480717 
L 333.959542 -175.598592 
L 339.561397 -173.274337 
L 342.785108 -171.77253 
L 346.033129 -170.071098 
L 349.567775 -167.973439 
L 353.254845 -165.54643 
L 357.593038 -162.136485 
L 362.463344 -157.985563 
L 366.802343 -153.397569 
L 370.320391 -149.201801 
L 373.926296 -144.189531 
L 376.768366 -139.455228 
L 379.157923 -134.759816 
L 381.216233 -130.135114 
L 382.969028 -125.426372 
L 384.643679 -119.572947 
L 386.353643 -111.641728 
L 387.381519 -103.5736 
" clip-path="url(#p5fbdf5d5d4)" style="fill: #add8e6; stroke: #808080"/>
    <path d="M 395.264639 -37.0887 
L 394.572274 -42.846652 
L 391.096072 -72.192876 
L 387.381519 -103.5736 
L 386.353643 -111.641728 
L 384.643679 -119.572947 
L 382.969028 -125.426372 
L 381.216233 -130.135114 
L 379.157923 -134.759816 
L 376.768366 -139.455228 
L 373.926296 -144.189531 
L 370.320391 -149.201801 
L 366.802343 -153.397569 
L 362.463344 -157.985563 
L 357.593038 -162.136485 
L 353.254845 -165.54643 
L 349.567775 -167.973439 
L 346.033129 -170.071098 
L 342.785108 -171.77253 
L 339.561397 -173.274337 
L 333.959542 -175.598592 
L 327.646686 -177.480717 
L 321.333472 -178.997105 
L 314.6933 -179.760724 
L 308.664247 -180.189781 
L 301.593119 -180.186866 
L 293.304449 -179.904014 
L 287.306063 -179.630911 
L 281.730861 -179.61278 
L 276.836068 -179.760692 
L 270.075096 -180.358099 
L 265.051999 -181.187807 
L 261.493608 -181.910073 
L 257.924711 -182.957689 
L 252.450939 -184.728458 
L 245.837017 -187.642244 
L 240.63001 -190.286826 
L 235.558982 -193.297633 
L 230.419574 -196.994896 
L 226.479356 -200.312305 
L 220.321093 -206.185234 
L 214.855203 -211.948209 
L 211.565867 -215.323845 
L 209.22088 -217.656814 
L 203.294947 -223.384711 
L 198.1102 -227.528509 
L 193.287868 -230.726526 
L 187.660073 -233.444039 
L 185.281445 -234.482176 
L 182.571851 -235.510292 
L 175.578492 -237.429163 
L 168.60776 -238.679441 
L 158.957344 -239.984137 
L 153.946102 -240.652756 
L 149.275149 -241.376321 
L 145.404616 -242.192177 
L 141.025695 -243.282456 
L 135.552687 -244.946021 
L 133.054405 -245.961441 
L 130.504924 -247.221299 
L 128.999667 -248.119642 
L 128.96367 -250.162805 
L 128.902943 -250.995565 
L 131.549432 -249.394486 
L 133.953593 -248.23291 
L 136.333307 -247.329318 
L 138.900793 -246.361244 
L 141.767204 -245.569143 
L 145.701307 -244.582935 
L 149.60019 -243.771657 
L 159.336211 -242.298863 
L 168.8243 -240.982437 
L 176.124924 -239.580615 
L 179.740735 -238.577796 
L 183.033513 -237.54928 
L 188.631177 -235.376936 
L 191.656077 -233.833722 
L 194.314996 -232.388086 
L 199.319304 -229.459928 
L 204.297316 -225.394014 
L 210.499882 -219.415682 
L 213.147149 -216.699962 
L 216.226089 -213.561518 
L 221.876935 -207.630844 
L 228.275303 -201.597126 
L 232.291144 -198.291185 
L 236.732373 -195.053943 
L 242.093893 -191.898218 
L 246.915664 -189.447625 
L 251.95102 -187.246821 
L 258.550456 -184.918695 
L 261.71673 -184.078467 
L 264.680624 -183.430573 
L 269.726018 -182.526885 
L 277.41109 -181.800082 
L 281.913382 -181.653141 
L 288.140857 -181.76091 
L 293.488455 -181.966821 
L 301.334083 -182.279643 
L 308.955317 -182.282112 
L 315.157807 -181.835673 
L 321.408914 -180.985509 
L 325.533476 -180.186732 
L 329.610086 -179.111803 
L 334.640704 -177.449864 
L 337.689619 -176.369335 
L 341.580757 -174.663278 
L 346.81947 -172.048386 
L 350.085332 -170.196678 
L 353.273124 -168.122567 
L 359.116748 -163.734747 
L 363.668475 -159.634386 
L 368.242539 -154.986588 
L 372.246773 -150.110273 
L 375.703997 -145.252348 
L 378.584112 -140.455344 
L 381.151042 -135.51369 
L 383.217344 -130.857602 
L 384.93064 -126.177902 
L 386.707686 -120.347261 
L 387.843112 -114.534679 
L 388.867858 -107.880242 
L 389.680554 -101.474179 
L 391.484503 -87.123289 
L 392.442388 -79.259134 
L 398.908817 -24.521194 
L 406.04098 34.426389 
L 406.977201 42.463278 
L 404.864811 43.197581 
L 403.774344 34.081671 
L 398.139575 -13.175372 
L 395.264639 -37.0887 
" clip-path="url(#p5fbdf5d5d4)" style="fill: #add8e6; stroke: #808080"/>
    <path d="M 414.377154 106.194131 
L 415.746442 117.236577 
L 416.338902 125.119881 
L 416.617561 130.167866 
L 416.849191 139.055431 
L 416.71088 147.174557 
L 415.882678 158.323104 
L 415.07397 164.945509 
L 414.143446 170.978159 
L 413.211353 176.075081 
L 412.013141 182.218581 
L 409.772825 191.224378 
L 408.360993 196.20846 
L 406.872332 200.382727 
L 403.894176 209.433617 
L 402.426822 213.85913 
L 395.580113 234.519723 
L 385.819624 263.30763 
L 383.572422 263.00258 
L 393.615297 233.532205 
L 395.194169 228.960473 
L 400.383831 213.533852 
L 402.005976 208.71513 
L 404.918852 199.942714 
L 406.306061 195.60498 
L 407.694174 190.598541 
L 409.891955 181.599621 
L 411.058324 176.302204 
L 412.045848 170.805673 
L 412.884912 164.766599 
L 413.67149 158.124074 
L 414.392264 148.786767 
L 414.72 138.849396 
L 414.648576 133.535928 
L 414.202987 125.252706 
L 411.823116 101.988527 
L 411.422634 98.688997 
L 410.814652 93.689237 
L 408.771556 75.856559 
L 404.864811 43.197581 
L 406.977201 42.463278 
L 409.928581 67.799092 
L 412.951578 93.403824 
L 414.377154 106.194131 
" clip-path="url(#p5fbdf5d5d4)" style="fill: #add8e6; stroke: #808080"/>
    <path d="M 335.625183 61.785159 
L 334.744832 62.553248 
L 334.076365 63.511376 
L 333.659012 64.603316 
L 330.684863 61.502961 
L 335.625183 61.785159 
" clip-path="url(#p5fbdf5d5d4)" style="fill: #ff0000; stroke: #808080"/>
    <path d="M 333.659012 64.603316 
L 334.076365 63.511376 
L 334.744832 62.553248 
L 335.625183 61.785159 
L 336.865527 61.179693 
L 338.118147 60.951172 
L 339.38764 61.059189 
L 340.584108 61.49282 
L 341.467361 62.08456 
L 342.511954 63.315298 
L 343.089208 64.819095 
L 343.135511 66.430109 
L 342.909965 67.35761 
L 342.342942 68.479217 
L 341.502558 69.415477 
L 340.448517 70.103359 
L 339.261067 70.495477 
L 338.012658 70.569152 
L 336.949404 70.375184 
L 335.956335 69.949856 
L 335.082399 69.315446 
L 334.371835 68.500981 
L 333.86106 67.553464 
L 333.586717 66.589462 
L 333.518801 65.593365 
L 333.659012 64.603316 
" clip-path="url(#p5fbdf5d5d4)" style="fill: #ff0000; stroke: #808080"/>
    <path d="M 343.135511 66.430109 
L 343.089208 64.819095 
L 342.511954 63.315298 
L 341.467361 62.08456 
L 342.939579 62.472401 
L 346.924426 62.730777 
L 344.959973 64.150956 
L 343.135511 66.430109 
" clip-path="url(#p5fbdf5d5d4)" style="fill: #ff0000; stroke: #808080"/>
    <path d="M 104.016405 286.082997 
L 104.729685 285.750919 
L 105.147111 286.624765 
L 105.517142 287.469587 
L 107.675424 291.389803 
L 107.922507 291.741336 
L 109.055858 293.131309 
L 110.10386 294.456471 
L 111.109059 295.707715 
L 111.54129 296.269603 
L 112.044508 296.840246 
L 114.027305 299.084761 
L 114.413187 300.459105 
L 114.819038 301.662846 
L 115.670823 306.812319 
L 116.096471 309.813408 
L 116.608602 311.723664 
L 117.926357 316.615872 
L 119.506108 323.095983 
L 119.687356 323.571136 
L 120.018161 324.472175 
L 120.356415 325.738956 
L 120.682154 326.532301 
L 123.682892 331.551644 
L 126.496843 335.831057 
L 128.405228 338.457254 
L 128.815136 344.985889 
L 129.479867 352.317063 
L 130.380699 357.488811 
L 130.608713 358.796324 
L 131.809744 363.646246 
L 136.052466 379.995899 
L 136.176986 380.480204 
L 135.968181 381.784596 
L 135.833551 382.604062 
L 134.998466 382.326183 
L 134.120055 382.313225 
L 133.277165 382.564942 
L 132.550152 383.058644 
L 132.161825 382.429307 
L 131.467604 381.307257 
L 128.608011 375.580646 
L 127.59125 373.683193 
L 122.452376 362.198964 
L 122.037892 361.269016 
L 119.535127 355.655712 
L 117.381654 350.795284 
L 114.278253 343.705075 
L 110.75173 334.919742 
L 109.859288 332.413775 
L 108.108967 328.371121 
L 107.121035 326.087601 
L 106.320909 324.359997 
L 102.112526 313.808521 
L 100.563054 310.95453 
L 96.775854 301.950059 
L 95.965641 300.011548 
L 93.687543 294.565793 
L 90.805223 288.002169 
L 90.888148 287.283846 
L 91.306793 286.51736 
L 91.859565 285.781873 
L 92.165789 285.374768 
L 92.872193 284.858713 
L 93.499097 284.639107 
L 95.728358 284.511023 
L 99.502509 286.281018 
L 101.582215 286.739062 
L 102.613442 286.729127 
L 103.259037 286.435407 
L 104.016405 286.082997 
" clip-path="url(#p5fbdf5d5d4)" style="fill: #add8e6; stroke: #808080"/>
    <path d="M 393.615297 233.532205 
L 383.572422 263.00258 
L 379.340558 262.42812 
L 376.456657 261.984424 
L 375.539317 261.145986 
L 374.819603 259.990493 
L 374.41061 258.860894 
L 374.339291 257.801981 
L 374.500897 256.609901 
L 374.955437 255.311382 
L 375.65552 253.406177 
L 381.173738 249.429485 
L 383.312231 247.638421 
L 385.160044 245.684511 
L 388.545118 241.33117 
L 389.946461 238.837946 
L 392.835726 232.394872 
L 395.194169 228.960473 
L 393.615297 233.532205 
" clip-path="url(#p5fbdf5d5d4)" style="fill: #add8e6; stroke: #808080"/>
    <path d="M 383.572422 263.00258 
L 383.118655 264.33414 
L 380.348395 271.986288 
L 377.417643 279.277685 
L 374.483282 285.967706 
L 370.762531 293.281905 
L 365.775005 302.346092 
L 360.993455 309.823097 
L 351.830653 322.370203 
L 347.876105 327.241431 
L 343.60059 331.862381 
L 344.360308 329.842557 
L 349.733361 322.363664 
L 352.688241 318.000624 
L 357.332691 309.572666 
L 361.122792 300.781752 
L 364.919339 288.241146 
L 366.05052 282.230314 
L 366.704033 275.781248 
L 367.52535 268.582142 
L 368.129235 265.716845 
L 368.634786 264.581968 
L 369.446994 263.674958 
L 370.897457 262.660363 
L 373.330355 261.669433 
L 376.456657 261.984424 
L 379.340558 262.42812 
L 383.572422 263.00258 
" clip-path="url(#p5fbdf5d5d4)" style="fill: #add8e6; stroke: #808080"/>
    <path d="M 377.417643 279.277685 
L 380.348395 271.986288 
L 383.118655 264.33414 
L 383.572422 263.00258 
L 385.819624 263.30763 
L 385.436924 264.436377 
L 382.572921 272.344654 
L 379.398889 280.446936 
L 373.131411 293.888888 
L 367.895374 303.140158 
L 362.635097 311.285213 
L 356.040783 320.408534 
L 352.962955 324.307489 
L 351.478999 326.188341 
L 346.60278 331.789651 
L 343.263754 335.399972 
L 339.859398 338.810787 
L 336.651782 342.113235 
L 330.40225 347.811002 
L 320.104065 356.690483 
L 298.712171 374.839989 
L 289.260996 383.909434 
L 280.309448 393.421488 
L 271.945418 403.732668 
L 264.140672 414.890199 
L 256.457433 428.069093 
L 249.505682 442.686202 
L 234.285364 478.474633 
L 230.603235 487.444316 
L 226.960475 497.396714 
L 224.671049 504.954955 
L 223.334864 511.740466 
L 222.241249 518.926866 
L 221.712176 526.093507 
L 221.814589 532.96417 
L 222.345221 540.087029 
L 223.498272 549.00306 
L 225.566665 558.093432 
L 233.128902 586.495611 
L 234.769925 594.582045 
L 235.885868 602.706065 
L 236.214907 610.870757 
L 236.11146 618.444433 
L 235.135832 625.542945 
L 233.019185 634.902533 
L 228.065194 648.768091 
L 220.865244 665.178721 
L 220.52437 665.96115 
L 219.375941 663.058861 
L 219.734435 662.258466 
L 225.928726 648.516878 
L 228.484473 642.27948 
L 230.585019 636.247734 
L 231.629335 632.360103 
L 231.961334 631.124864 
L 233.012271 625.861667 
L 233.575624 622.01148 
L 234.150102 617.205332 
L 234.223852 610.695386 
L 233.749145 602.843071 
L 232.744095 594.866794 
L 230.99304 586.892908 
L 223.496518 558.80466 
L 221.31859 549.487996 
L 220.128914 540.457639 
L 219.565589 532.971362 
L 219.581193 526.012808 
L 220.112808 518.650935 
L 221.292932 511.387966 
L 223.031655 503.236845 
L 225.724319 494.535141 
L 228.866102 486.226928 
L 232.408283 477.874787 
L 247.641467 441.659986 
L 254.127641 427.906068 
L 258.321284 420.193519 
L 262.04697 414.089141 
L 270.113806 402.535838 
L 274.343426 397.221908 
L 278.872088 391.738696 
L 288.084431 381.925113 
L 297.336857 373.325313 
L 305.006266 366.768128 
L 318.544311 355.196629 
L 332.433381 343.02918 
L 338.210387 337.507988 
L 339.51953 336.164033 
L 343.60059 331.862381 
L 347.876105 327.241431 
L 351.830653 322.370203 
L 360.993455 309.823097 
L 365.775005 302.346092 
L 370.762531 293.281905 
L 374.483282 285.967706 
L 377.417643 279.277685 
" clip-path="url(#p5fbdf5d5d4)" style="fill: #add8e6; stroke: #808080"/>
    <path d="M 97.341856 182.975855 
L 95.542663 183.94185 
L 89.393937 187.151812 
L 82.251718 190.831559 
L 78.780637 192.646424 
L 75.829905 194.473139 
L 74.920308 195.553045 
L 74.060772 197.016514 
L 73.482601 198.198619 
L 68.768736 208.113493 
L 67.459969 210.653196 
L 64.824652 216.107395 
L 63.741085 218.049508 
L 61.335893 216.818238 
L 55.283142 215.416402 
L 54.388908 215.347339 
L 53.460757 215.529704 
L 52.807648 215.935619 
L 50.229177 217.83967 
L 49.535234 218.299564 
L 47.916404 218.463845 
L 45.18259 218.04362 
L 41.897639 218.376801 
L 33.657208 219.835865 
L 26.108404 221.113253 
L 18.544086 221.441449 
L 16.943848 221.500167 
L 7.943555 221.980763 
L 5.280864 222.134689 
L 0.415111 222.703678 
L -7.905676 223.684752 
L -13.300967 224.3428 
L -15.168556 225.158498 
L -16.266244 226.119975 
L -16.350344 225.420113 
L -16.623506 224.770188 
L -17.06193 224.219495 
L -17.197896 224.098731 
L -17.932223 222.676029 
L -18.046291 221.448928 
L -17.994557 220.302109 
L -17.957878 219.916038 
L -17.835508 218.663541 
L -17.748419 215.120069 
L -17.113606 211.249574 
L -16.589288 208.90979 
L -16.41931 208.283214 
L -16.153841 207.427466 
L -15.821926 206.645569 
L -15.536983 205.973767 
L -15.392627 205.73996 
L -14.567277 204.406806 
L -13.573049 203.129241 
L -12.754416 202.18431 
L -11.946057 201.492977 
L -11.495878 201.238052 
L -10.368866 200.597368 
L -9.309146 200.125183 
L -7.968404 199.773323 
L -3.903744 199.195567 
L 1.568443 198.454219 
L 2.846648 198.279809 
L 6.699078 196.872397 
L 9.321243 194.811225 
L 10.80704 193.422196 
L 11.90048 192.635736 
L 12.851195 192.098789 
L 13.99108 191.550046 
L 15.674589 190.887453 
L 16.42718 190.530621 
L 16.836517 190.84802 
L 17.388816 190.994443 
L 18.033275 190.855602 
L 19.484446 189.491351 
L 20.672992 188.354538 
L 21.226273 187.787377 
L 21.4253 187.387347 
L 21.493439 186.980983 
L 21.413307 186.554874 
L 21.169143 186.111313 
L 21.828983 185.328408 
L 22.286554 184.398017 
L 23.273984 182.97683 
L 32.932887 174.171269 
L 38.291537 169.339369 
L 39.803966 167.91432 
L 47.146525 160.666303 
L 49.028125 158.807028 
L 51.313438 156.461817 
L 52.606646 155.026205 
L 55.878137 151.389928 
L 57.322603 149.410808 
L 59.575954 146.423908 
L 63.24724 141.042825 
L 67.039771 135.620967 
L 70.525939 130.049696 
L 72.078523 127.356646 
L 73.383575 124.666602 
L 80.442551 110.485422 
L 82.043913 106.755499 
L 82.990989 103.032084 
L 88.257257 80.739989 
L 88.633863 79.147855 
L 89.03782 73.150739 
L 88.766314 69.478214 
L 88.711862 68.69524 
L 88.314239 62.987832 
L 88.092387 58.038339 
L 88.016205 56.346628 
L 88.041492 55.857366 
L 88.35758 49.488023 
L 90.631026 37.80116 
L 91.163305 35.066365 
L 91.578472 33.204834 
L 94.001659 24.071128 
L 96.965753 18.050358 
L 99.003933 14.92268 
L 100.536759 12.532588 
L 101.390264 11.208243 
L 101.547153 10.963164 
L 102.791261 10.53519 
L 104.342832 10.121966 
L 104.588834 10.143641 
L 107.154363 12.350454 
L 108.481947 22.536158 
L 111.639991 51.480175 
L 112.005741 55.020009 
L 112.181305 56.720385 
L 112.311371 57.985575 
L 112.607242 60.854681 
L 113.106301 65.68662 
L 113.691288 70.77186 
L 114.640693 78.96385 
L 110.93392 103.201206 
L 110.34391 107.138951 
L 109.489763 112.834539 
L 108.596989 118.786058 
L 106.925859 129.972914 
L 106.088906 135.630298 
L 104.978994 143.763618 
L 104.048845 149.371922 
L 103.648997 152.110797 
L 103.397934 154.021187 
L 102.348274 161.258976 
L 101.617595 166.119419 
L 101.556672 167.317883 
L 101.433283 168.202387 
L 100.980671 171.724566 
L 100.124982 176.444027 
L 99.596975 178.537036 
L 98.963204 180.082848 
L 97.341856 182.975855 
" clip-path="url(#p5fbdf5d5d4)" style="fill: #add8e6; stroke: #808080"/>
    <path d="M 100.563054 310.95453 
L 102.112526 313.808521 
L 106.320909 324.359997 
L 107.121035 326.087601 
L 108.108967 328.371121 
L 109.859288 332.413775 
L 110.75173 334.919742 
L 114.278253 343.705075 
L 117.381654 350.795284 
L 119.535127 355.655712 
L 122.037892 361.269016 
L 122.452376 362.198964 
L 127.59125 373.683193 
L 128.608011 375.580646 
L 131.467604 381.307257 
L 132.161825 382.429307 
L 132.550152 383.058644 
L 131.995699 383.767225 
L 131.687679 384.611917 
L 131.657378 385.511838 
L 131.907663 386.374978 
L 131.296365 386.556407 
L 130.612717 386.798649 
L 129.612192 387.071053 
L 127.14949 387.745206 
L 123.464567 388.398487 
L 116.326059 389.556195 
L 100.066852 392.413948 
L 95.351178 393.267814 
L 93.392096 393.623942 
L 88.167192 394.524238 
L 83.372842 395.438889 
L 80.857457 395.91789 
L 78.297826 396.367852 
L 72.634794 397.363682 
L 71.115259 397.583783 
L 69.59573 397.806127 
L 67.009089 398.193318 
L 65.662266 398.168291 
L 61.767669 397.323074 
L 57.168047 395.925753 
L 53.00719 394.643756 
L 50.067703 393.616059 
L 49.214684 393.142953 
L 47.593744 392.176285 
L 48.36817 391.188817 
L 48.971104 390.332023 
L 50.851203 387.871375 
L 53.269891 385.173458 
L 55.022212 383.218085 
L 65.707335 371.29678 
L 68.438879 369.84551 
L 69.136835 366.567185 
L 69.590546 364.885064 
L 69.774523 364.202335 
L 72.407554 357.399524 
L 72.959324 355.81359 
L 75.428991 348.717317 
L 76.482503 345.691457 
L 77.196834 343.642765 
L 78.516048 339.850894 
L 81.052215 332.862113 
L 81.657251 331.170545 
L 81.854802 330.801926 
L 82.310861 329.88947 
L 84.102178 326.304823 
L 84.232352 326.075537 
L 85.044701 324.625673 
L 87.375121 320.473876 
L 87.992388 319.682093 
L 88.725218 319.03581 
L 89.459762 318.4344 
L 91.746744 316.558102 
L 93.435415 315.484747 
L 94.878572 314.566984 
L 95.755168 314.010009 
L 100.563054 310.95453 
" clip-path="url(#p5fbdf5d5d4)" style="fill: #add8e6; stroke: #808080"/>
    <path d="M 93.687543 294.565793 
L 95.965641 300.011548 
L 96.775854 301.950059 
L 100.563054 310.95453 
L 95.755168 314.010009 
L 94.878572 314.566984 
L 93.435415 315.484747 
L 91.746744 316.558102 
L 89.459762 318.4344 
L 88.725218 319.03581 
L 87.992388 319.682093 
L 87.375121 320.473876 
L 85.044701 324.625673 
L 84.232352 326.075537 
L 84.102178 326.304823 
L 82.310861 329.88947 
L 81.854802 330.801926 
L 81.657251 331.170545 
L 81.052215 332.862113 
L 78.516048 339.850894 
L 77.196834 343.642765 
L 76.482503 345.691457 
L 75.428991 348.717317 
L 72.959324 355.81359 
L 72.407554 357.399524 
L 69.774523 364.202335 
L 69.590546 364.885064 
L 69.136835 366.567185 
L 68.438879 369.84551 
L 65.707335 371.29678 
L 55.022212 383.218085 
L 53.269891 385.173458 
L 50.851203 387.871375 
L 48.971104 390.332023 
L 48.36817 391.188817 
L 47.593744 392.176285 
L 46.456249 391.499849 
L 44.705899 390.499914 
L 42.071726 388.74871 
L 37.516946 385.493185 
L 34.747574 383.356418 
L 32.996536 381.606988 
L 32.430868 380.724595 
L 31.863624 379.842206 
L 29.424852 373.891939 
L 27.530661 369.145013 
L 26.63615 366.948661 
L 24.797958 362.459614 
L 21.232215 353.552983 
L 19.649307 350.030297 
L 18.999958 348.587164 
L 18.562912 347.471002 
L 13.539409 335.709978 
L 10.365727 328.119328 
L 8.904988 324.822897 
L 0.658239 305.671021 
L -0.318395 303.403091 
L -1.257392 301.065484 
L -3.835683 295.286113 
L -4.824801 293.056365 
L -7.517411 287.005813 
L -8.63064 284.401696 
L -8.947286 283.455702 
L -9.347011 282.150925 
L -9.937639 280.287979 
L -10.757893 277.575266 
L -14.43346 265.552006 
L -17.082495 256.658208 
L -18.261372 249.516997 
L -18.333146 248.197767 
L -18.347568 247.073587 
L -18.554915 231.099478 
L -17.935248 228.478913 
L -17.266234 228.108889 
L -16.736529 227.555281 
L -16.393267 226.874327 
L -16.266244 226.119975 
L -15.168556 225.158498 
L -13.300967 224.3428 
L -7.905676 223.684752 
L 0.415111 222.703678 
L 5.280864 222.134689 
L 7.943555 221.980763 
L 16.943848 221.500167 
L 18.544086 221.441449 
L 26.108404 221.113253 
L 33.657208 219.835865 
L 41.897639 218.376801 
L 45.18259 218.04362 
L 47.916404 218.463845 
L 49.535234 218.299564 
L 50.229177 217.83967 
L 52.807648 215.935619 
L 53.460757 215.529704 
L 54.388908 215.347339 
L 55.283142 215.416402 
L 61.335893 216.818238 
L 63.741085 218.049508 
L 61.799862 221.565029 
L 59.873199 225.717786 
L 59.051477 228.211104 
L 58.089159 231.13345 
L 57.637275 233.912858 
L 57.6 235.12471 
L 57.791591 236.412154 
L 58.558575 238.682928 
L 59.362667 240.713485 
L 60.322023 242.983667 
L 60.727032 243.936105 
L 65.690092 255.499668 
L 66.469277 257.115164 
L 66.848341 257.832064 
L 68.065482 259.829928 
L 70.461541 262.674619 
L 71.251097 263.55855 
L 79.416812 273.058965 
L 80.79036 274.632225 
L 81.970846 275.981685 
L 84.493285 278.882059 
L 86.956958 281.131861 
L 88.372326 282.965283 
L 89.910269 285.6802 
L 90.578088 285.942919 
L 91.859565 285.781873 
L 91.306793 286.51736 
L 90.888148 287.283846 
L 90.805223 288.002169 
L 93.687543 294.565793 
" clip-path="url(#p5fbdf5d5d4)" style="fill: #add8e6; stroke: #808080"/>
    <path d="M -21.108111 227.299165 
L -20.576282 227.97524 
L -21.716706 227.312216 
L -22.491852 226.995905 
L -24.213954 226.906837 
L -26.814578 227.255733 
L -24.362434 226.294683 
L -22.932453 225.720418 
L -21.088766 224.819534 
L -21.378036 225.628229 
L -21.384918 226.485441 
L -21.108111 227.299165 
" clip-path="url(#p5fbdf5d5d4)" style="fill: #add8e6; stroke: #808080"/>
    <path d="M -20.576282 227.97524 
L -21.108111 227.299165 
L -21.384918 226.485441 
L -21.378036 225.628229 
L -21.088766 224.819534 
L -20.554655 224.158203 
L -19.94723 223.756951 
L -19.250947 223.541679 
L -18.522521 223.528266 
L -17.818708 223.719128 
L -17.197896 224.098731 
L -17.06193 224.219495 
L -16.623506 224.770188 
L -16.350344 225.420113 
L -16.266244 226.119975 
L -16.393267 226.874327 
L -16.736529 227.555281 
L -17.266234 228.108889 
L -17.935248 228.478913 
L -18.685312 228.638248 
L -19.368205 228.588693 
L -20.013788 228.361752 
L -20.576282 227.97524 
" clip-path="url(#p5fbdf5d5d4)" style="fill: #add8e6; stroke: #808080"/>
    <path d="M -19.368205 228.588693 
L -18.685312 228.638248 
L -17.935248 228.478913 
L -18.554915 231.099478 
L -19.368205 228.588693 
" clip-path="url(#p5fbdf5d5d4)" style="fill: #add8e6; stroke: #808080"/>
    <path d="M -17.197896 224.098731 
L -17.818708 223.719128 
L -18.522521 223.528266 
L -19.250947 223.541679 
L -19.94723 223.756951 
L -20.554655 224.158203 
L -19.805431 222.672692 
L -19.456547 221.239997 
L -18.820894 218.693435 
L -17.748419 215.120069 
L -17.835508 218.663541 
L -17.957878 219.916038 
L -17.994557 220.302109 
L -18.046291 221.448928 
L -17.932223 222.676029 
L -17.197896 224.098731 
" clip-path="url(#p5fbdf5d5d4)" style="fill: #add8e6; stroke: #808080"/>
    <path d="M 185.768846 291.312824 
L 186.908123 291.064618 
L 189.393386 290.612428 
L 190.750088 290.307429 
L 192.518058 289.911365 
L 196.73192 289.081169 
L 228.609895 282.795034 
L 231.827776 282.160894 
L 235.778344 281.35834 
L 252.763993 277.906326 
L 281.665711 272.034601 
L 283.350049 271.636437 
L 285.040877 271.294349 
L 285.556144 271.184964 
L 293.493137 269.496364 
L 296.378553 268.957389 
L 300.756318 268.14202 
L 301.597756 267.962001 
L 302.347797 267.800232 
L 317.535402 264.795274 
L 331.25909 262.100125 
L 338.3016 260.795656 
L 339.529174 260.56273 
L 341.342947 260.215674 
L 342.460196 259.998816 
L 343.395112 259.957587 
L 345.999052 259.666262 
L 348.601748 259.475913 
L 351.234846 259.420097 
L 353.188826 259.512377 
L 354.351141 260.527294 
L 358.473799 261.263145 
L 359.529889 261.625417 
L 360.714392 262.195951 
L 361.525045 262.722842 
L 362.819567 263.661019 
L 363.73557 264.573522 
L 364.70746 265.696771 
L 365.383061 266.86588 
L 366.415967 270.221667 
L 366.704033 275.781248 
L 366.05052 282.230314 
L 364.919339 288.241146 
L 361.122792 300.781752 
L 357.332691 309.572666 
L 352.688241 318.000624 
L 349.733361 322.363664 
L 344.360308 329.842557 
L 343.60059 331.862381 
L 339.51953 336.164033 
L 338.210387 337.507988 
L 332.433381 343.02918 
L 318.544311 355.196629 
L 305.006266 366.768128 
L 297.336857 373.325313 
L 288.084431 381.925113 
L 278.872088 391.738696 
L 274.343426 397.221908 
L 270.113806 402.535838 
L 262.04697 414.089141 
L 258.321284 420.193519 
L 254.127641 427.906068 
L 247.641467 441.659986 
L 232.408283 477.874787 
L 228.866102 486.226928 
L 225.724319 494.535141 
L 223.031655 503.236845 
L 221.292932 511.387966 
L 220.112808 518.650935 
L 219.581193 526.012808 
L 219.565589 532.971362 
L 220.128914 540.457639 
L 221.31859 549.487996 
L 223.496518 558.80466 
L 230.99304 586.892908 
L 232.744095 594.866794 
L 233.749145 602.843071 
L 234.223852 610.695386 
L 234.150102 617.205332 
L 233.575624 622.01148 
L 233.012271 625.861667 
L 231.961334 631.124864 
L 231.629335 632.360103 
L 230.585019 636.247734 
L 227.922774 640.252745 
L 225.759378 644.395279 
L 224.09238 646.922818 
L 222.260893 649.311756 
L 220.072743 650.162479 
L 217.604378 650.197296 
L 215.306491 649.284615 
L 213.970785 648.380078 
L 212.887806 647.093262 
L 210.181282 640.206229 
L 208.368341 636.543147 
L 206.600104 632.056388 
L 205.107126 628.315987 
L 203.36746 623.8785 
L 202.10994 620.767896 
L 201.60783 619.607126 
L 200.314927 616.27897 
L 197.552597 609.160959 
L 194.919929 602.632691 
L 193.556914 599.069135 
L 191.979194 594.943026 
L 187.92262 584.521516 
L 184.063161 574.566109 
L 181.969413 568.837196 
L 181.480982 567.501346 
L 180.60929 564.669993 
L 179.088085 559.43742 
L 178.381339 556.394611 
L 176.58123 548.743934 
L 174.781604 541.239111 
L 172.929038 533.444981 
L 172.259545 530.702741 
L 171.587223 527.563328 
L 170.392734 522.383567 
L 169.532442 518.650099 
L 168.804406 515.842966 
L 168.406858 514.309356 
L 166.95398 508.704055 
L 166.191525 505.481898 
L 164.756551 499.546676 
L 164.571188 498.779828 
L 163.17478 493.567036 
L 162.03542 488.844858 
L 160.885545 483.786119 
L 160.465308 482.052866 
L 159.893264 479.68954 
L 158.81788 475.243164 
L 158.699517 474.716207 
L 157.895901 471.431343 
L 157.758084 470.736151 
L 157.242384 468.733922 
L 156.721489 466.583609 
L 156.488195 465.617198 
L 156.230948 464.556617 
L 154.314923 456.571921 
L 153.69088 454.215486 
L 153.191868 452.50043 
L 152.079298 447.748986 
L 152.000979 447.417127 
L 151.88429 446.919336 
L 151.294478 444.412448 
L 151.125815 443.434613 
L 149.350037 435.395613 
L 149.046562 434.17361 
L 147.513253 428.009792 
L 146.290659 423.36191 
L 144.856347 417.57925 
L 144.222231 415.016398 
L 143.06467 410.983153 
L 142.340412 408.337557 
L 141.647196 406.537834 
L 140.953989 404.740355 
L 138.435666 399.248312 
L 136.987717 396.140481 
L 136.243251 394.085105 
L 135.667393 392.491455 
L 135.275227 390.636931 
L 134.884645 388.784646 
L 134.724553 388.019958 
L 135.536139 387.842388 
L 136.263435 387.438442 
L 136.845061 386.84646 
L 137.23227 386.111473 
L 137.393729 385.298655 
L 138.273712 385.309361 
L 139.156856 385.322301 
L 140.094708 385.180236 
L 143.374189 384.481056 
L 146.417271 383.829732 
L 153.98369 382.36533 
L 162.632643 380.639414 
L 164.72729 380.278263 
L 179.253657 377.588973 
L 181.219566 376.914048 
L 182.155452 376.15487 
L 182.958021 375.126838 
L 183.400618 373.965309 
L 183.814772 372.287761 
L 183.786404 371.298265 
L 183.695923 368.125596 
L 183.624319 360.460464 
L 183.539693 359.134554 
L 183.558059 358.461308 
L 183.573542 357.873342 
L 181.995352 341.551307 
L 180.884611 328.420939 
L 179.807428 317.415492 
L 177.533808 297.067742 
L 177.938319 296.334931 
L 177.967554 295.109637 
L 177.906519 294.25937 
L 178.104725 294.108398 
L 178.442254 293.636098 
L 179.077117 293.443351 
L 179.828097 293.07072 
L 180.26285 292.92573 
L 180.768483 292.755831 
L 181.590966 292.057598 
L 185.768846 291.312824 
" clip-path="url(#p5fbdf5d5d4)" style="fill: #add8e6; stroke: #808080"/>
    <path d="M 220.52437 665.96115 
L 220.865244 665.178721 
L 228.065194 648.768091 
L 233.019185 634.902533 
L 235.135832 625.542945 
L 236.11146 618.444433 
L 235.358454 629.545444 
L 231.960475 643.1547 
L 229.132413 652.022892 
L 224.233327 668.293773 
L 224.067033 670.547234 
L 224.140396 672.770756 
L 224.346495 674.576479 
L 224.37325 675.543536 
L 223.696294 673.97718 
L 220.52437 665.96115 
" clip-path="url(#p5fbdf5d5d4)" style="fill: #add8e6; stroke: #808080"/>
    <path d="M 219.734435 662.258466 
L 219.375941 663.058861 
L 216.324284 655.346769 
L 216.558154 654.986989 
L 220.670235 651.053662 
L 222.260893 649.311756 
L 224.09238 646.922818 
L 225.759378 644.395279 
L 227.922774 640.252745 
L 230.585019 636.247734 
L 228.484473 642.27948 
L 225.928726 648.516878 
L 219.734435 662.258466 
" clip-path="url(#p5fbdf5d5d4)" style="fill: #add8e6; stroke: #808080"/>
    <path d="M 404.864811 43.197581 
L 400.954256 44.556958 
L 398.209435 45.486157 
L 391.886978 47.701861 
L 391.268337 47.039711 
L 389.860202 45.538705 
L 389.138355 44.65699 
L 388.657241 43.630857 
L 388.399037 42.316754 
L 388.372322 41.396817 
L 388.466851 40.431597 
L 388.575361 37.985313 
L 389.907168 32.200417 
L 393.710223 17.220479 
L 396.708327 3.403345 
L 397.122986 -3.66429 
L 397.190034 -11.437613 
L 398.139575 -13.175372 
L 403.774344 34.081671 
L 404.864811 43.197581 
" clip-path="url(#p5fbdf5d5d4)" style="fill: #add8e6; stroke: #808080"/>
    <path d="M 400.954256 44.556958 
L 404.864811 43.197581 
L 408.771556 75.856559 
L 410.814652 93.689237 
L 411.422634 98.688997 
L 409.596184 93.293893 
L 407.036663 77.547585 
L 406.143801 74.097112 
L 405.002087 70.719277 
L 403.124157 65.467948 
L 401.020976 60.271225 
L 397.215036 50.327468 
L 397.022749 49.399108 
L 397.124278 48.17132 
L 397.236352 47.268872 
L 397.554772 46.311879 
L 398.209435 45.486157 
L 400.954256 44.556958 
" clip-path="url(#p5fbdf5d5d4)" style="fill: #add8e6; stroke: #808080"/>
    <path d="M 370.282738 55.080093 
L 378.46281 51.07437 
L 380.737766 50.122094 
L 381.971629 49.47397 
L 383.114709 48.55014 
L 384.302708 47.386055 
L 385.460787 45.759811 
L 386.579074 43.074547 
L 387.995325 39.44358 
L 388.575361 37.985313 
L 388.466851 40.431597 
L 388.372322 41.396817 
L 388.399037 42.316754 
L 388.657241 43.630857 
L 389.138355 44.65699 
L 389.860202 45.538705 
L 391.268337 47.039711 
L 391.886978 47.701861 
L 382.506118 50.906085 
L 370.282738 55.080093 
" clip-path="url(#p5fbdf5d5d4)" style="fill: #add8e6; stroke: #808080"/>
    <path d="M 401.020976 60.271225 
L 397.79111 54.764107 
L 396.543683 53.237889 
L 394.825211 51.814221 
L 393.704935 51.066231 
L 392.581039 50.65036 
L 391.089735 50.213273 
L 388.978032 50.004894 
L 387.629965 49.971239 
L 386.002074 50.17862 
L 382.506118 50.906085 
L 391.886978 47.701861 
L 398.209435 45.486157 
L 397.554772 46.311879 
L 397.236352 47.268872 
L 397.124278 48.17132 
L 397.022749 49.399108 
L 397.215036 50.327468 
L 401.020976 60.271225 
" clip-path="url(#p5fbdf5d5d4)" style="fill: #add8e6; stroke: #808080"/>
    <path d="M 366.704033 275.781248 
L 366.415967 270.221667 
L 365.383061 266.86588 
L 364.70746 265.696771 
L 363.73557 264.573522 
L 362.819567 263.661019 
L 361.525045 262.722842 
L 360.714392 262.195951 
L 359.529889 261.625417 
L 358.473799 261.263145 
L 354.351141 260.527294 
L 353.188826 259.512377 
L 355.383775 259.518586 
L 373.330355 261.669433 
L 370.897457 262.660363 
L 369.446994 263.674958 
L 368.634786 264.581968 
L 368.129235 265.716845 
L 367.52535 268.582142 
L 366.704033 275.781248 
" clip-path="url(#p5fbdf5d5d4)" style="fill: #add8e6; stroke: #808080"/>
    <path d="M 222.260893 649.311756 
L 220.670235 651.053662 
L 216.558154 654.986989 
L 216.324284 655.346769 
L 215.980708 654.445797 
L 212.887806 647.093262 
L 213.970785 648.380078 
L 215.306491 649.284615 
L 217.604378 650.197296 
L 220.072743 650.162479 
L 222.260893 649.311756 
" clip-path="url(#p5fbdf5d5d4)" style="fill: #add8e6; stroke: #808080"/>
    <path d="M 375.65552 253.406177 
L 374.955437 255.311382 
L 374.500897 256.609901 
L 374.339291 257.801981 
L 374.41061 258.860894 
L 374.819603 259.990493 
L 375.539317 261.145986 
L 376.456657 261.984424 
L 373.330355 261.669433 
L 355.383775 259.518586 
L 359.362074 258.562965 
L 362.955349 258.952739 
L 364.593279 258.837359 
L 366.528315 258.447229 
L 368.911925 257.335297 
L 371.182581 255.923044 
L 375.65552 253.406177 
" clip-path="url(#p5fbdf5d5d4)" style="fill: #add8e6; stroke: #808080"/>
    <path d="M 162.632643 380.639414 
L 153.98369 382.36533 
L 146.417271 383.829732 
L 143.374189 384.481056 
L 140.094708 385.180236 
L 139.156856 385.322301 
L 138.273712 385.309361 
L 137.393729 385.298655 
L 137.317053 384.482095 
L 137.011895 383.72235 
L 136.503669 383.077682 
L 135.833551 382.604062 
L 135.968181 381.784596 
L 136.176986 380.480204 
L 136.052466 379.995899 
L 131.809744 363.646246 
L 130.608713 358.796324 
L 130.380699 357.488811 
L 129.479867 352.317063 
L 128.815136 344.985889 
L 128.405228 338.457254 
L 126.496843 335.831057 
L 123.682892 331.551644 
L 120.682154 326.532301 
L 120.356415 325.738956 
L 120.018161 324.472175 
L 119.687356 323.571136 
L 119.506108 323.095983 
L 117.926357 316.615872 
L 116.608602 311.723664 
L 116.096471 309.813408 
L 115.670823 306.812319 
L 114.819038 301.662846 
L 114.413187 300.459105 
L 114.027305 299.084761 
L 114.492265 299.015994 
L 117.746845 298.48974 
L 126.860644 296.82769 
L 129.122721 296.598467 
L 130.393272 296.471076 
L 132.664809 296.241817 
L 139.692219 295.530909 
L 148.336202 294.915861 
L 149.649493 294.842171 
L 152.227185 294.692697 
L 159.753523 294.19104 
L 171.56676 293.509745 
L 172.373946 293.457826 
L 173.022851 293.716074 
L 174.170592 293.649614 
L 174.968346 293.6067 
L 175.063688 293.837526 
L 175.609416 294.378837 
L 176.019927 294.545836 
L 176.431254 295.469045 
L 177.011425 296.429867 
L 177.533808 297.067742 
L 179.807428 317.415492 
L 180.884611 328.420939 
L 181.995352 341.551307 
L 183.573542 357.873342 
L 183.558059 358.461308 
L 183.539693 359.134554 
L 183.624319 360.460464 
L 183.695923 368.125596 
L 183.786404 371.298265 
L 183.814772 372.287761 
L 183.400618 373.965309 
L 182.958021 375.126838 
L 182.155452 376.15487 
L 181.219566 376.914048 
L 179.253657 377.588973 
L 164.72729 380.278263 
L 162.632643 380.639414 
" clip-path="url(#p5fbdf5d5d4)" style="fill: #add8e6; stroke: #808080"/>
    <path d="M 91.859565 285.781873 
L 90.578088 285.942919 
L 89.910269 285.6802 
L 88.372326 282.965283 
L 86.956958 281.131861 
L 88.065347 281.090284 
L 89.484698 281.662588 
L 93.253928 283.376518 
L 93.260104 283.843243 
L 92.872193 284.858713 
L 92.165789 285.374768 
L 91.859565 285.781873 
" clip-path="url(#p5fbdf5d5d4)" style="fill: #add8e6; stroke: #808080"/>
    <path d="M 16.42718 190.530621 
L 16.149653 190.004134 
L 16.190091 189.301652 
L 16.403085 188.82753 
L 16.671925 188.570902 
L 17.91892 187.469816 
L 18.323002 187.096091 
L 19.082423 186.393667 
L 19.725399 185.767891 
L 20.188684 185.678968 
L 20.614756 185.796602 
L 20.92418 185.923566 
L 21.169143 186.111313 
L 21.413307 186.554874 
L 21.493439 186.980983 
L 21.4253 187.387347 
L 21.226273 187.787377 
L 20.672992 188.354538 
L 19.484446 189.491351 
L 18.033275 190.855602 
L 17.388816 190.994443 
L 16.836517 190.84802 
L 16.42718 190.530621 
" clip-path="url(#p5fbdf5d5d4)" style="fill: #add8e6; stroke: #808080"/>
    <path d="M 97.341856 182.975855 
L 98.963204 180.082848 
L 99.596975 178.537036 
L 100.124982 176.444027 
L 100.312844 178.550522 
L 100.625764 179.80168 
L 101.06866 180.765207 
L 101.75224 181.550714 
L 103.151853 182.401315 
L 107.220373 183.09776 
L 108.239447 183.770022 
L 101.527025 183.155845 
L 99.131302 182.934399 
L 97.341856 182.975855 
" clip-path="url(#p5fbdf5d5d4)" style="fill: #ff0000; stroke: #808080"/>
    <path d="M 139.469565 231.053693 
L 139.032992 231.115649 
L 138.559195 231.37519 
L 138.232508 231.784614 
L 138.101221 232.155279 
L 138.040427 230.869681 
L 137.929033 228.531824 
L 137.905432 228.044959 
L 137.875201 227.454893 
L 137.740054 226.090989 
L 137.557907 224.823722 
L 138.409029 225.723127 
L 139.079458 226.825053 
L 139.784252 228.828943 
L 140.221435 230.47015 
L 140.469113 231.515059 
L 140.184521 231.269116 
L 139.903428 231.133116 
L 139.469565 231.053693 
" clip-path="url(#p5fbdf5d5d4)" style="fill: #ff0000; stroke: #808080"/>
    <path d="M 138.101221 232.155279 
L 138.232508 231.784614 
L 138.559195 231.37519 
L 139.032992 231.115649 
L 139.469565 231.053693 
L 139.903428 231.133116 
L 140.184521 231.269116 
L 140.469113 231.515059 
L 140.625895 231.732231 
L 140.780094 232.131172 
L 140.809404 232.427283 
L 140.774068 232.723596 
L 140.691259 232.966204 
L 140.53756 233.229229 
L 140.13975 233.585022 
L 139.793312 233.729722 
L 139.230498 233.760658 
L 138.897491 233.662968 
L 138.575211 233.46651 
L 138.284045 233.135316 
L 138.117254 232.743146 
L 138.101221 232.155279 
" clip-path="url(#p5fbdf5d5d4)" style="fill: #ff0000; stroke: #808080"/>
    <path d="M 138.117254 232.743146 
L 138.284045 233.135316 
L 138.575211 233.46651 
L 138.897491 233.662968 
L 139.230498 233.760658 
L 139.793312 233.729722 
L 140.13975 233.585022 
L 140.155052 234.442167 
L 139.066493 237.275212 
L 137.670513 240.629819 
L 135.703326 243.353417 
L 135.984103 242.380903 
L 136.608078 240.229236 
L 136.856566 239.016719 
L 137.278358 237.256133 
L 137.74956 234.658396 
L 138.117254 232.743146 
" clip-path="url(#p5fbdf5d5d4)" style="fill: #ff0000; stroke: #808080"/>
    <path d="M 140.53756 233.229229 
L 140.691259 232.966204 
L 140.774068 232.723596 
L 140.809404 232.427283 
L 140.780094 232.131172 
L 140.625895 231.732231 
L 141.448839 231.689259 
L 142.271782 231.646285 
L 143.259266 231.780068 
L 145.888351 231.969283 
L 143.329398 232.522599 
L 141.203743 232.975816 
L 140.53756 233.229229 
" clip-path="url(#p5fbdf5d5d4)" style="fill: #ff0000; stroke: #808080"/>
    <path d="M 113.106301 65.68662 
L 117.899476 65.308157 
L 118.76476 65.226919 
L 117.971687 65.714089 
L 117.335969 66.104277 
L 115.950219 67.134089 
L 115.233726 68.417625 
L 114.87939 70.061309 
L 115.092491 72.674861 
L 115.364316 76.930809 
L 114.640693 78.96385 
L 113.691288 70.77186 
L 113.106301 65.68662 
" clip-path="url(#p5fbdf5d5d4)" style="fill: #add8e6; stroke: #808080"/>
    <path d="M 178.292368 291.617009 
L 178.934518 291.733906 
L 179.0938 291.740134 
L 179.775079 291.764904 
L 181.054045 291.807976 
L 181.590966 292.057598 
L 180.768483 292.755831 
L 180.26285 292.92573 
L 179.828097 293.07072 
L 179.077117 293.443351 
L 178.442254 293.636098 
L 178.617276 293.135141 
L 178.65029 292.605462 
L 178.53984 292.085213 
L 178.292368 291.617009 
" clip-path="url(#p5fbdf5d5d4)" style="fill: #ff0000; stroke: #808080"/>
    <path d="M 174.758061 292.43153 
L 174.992521 291.777797 
L 175.154332 291.586549 
L 175.441815 291.244557 
L 176.049402 290.903797 
L 176.668758 290.794128 
L 176.842295 290.820506 
L 177.29033 290.886407 
L 177.85101 291.169615 
L 178.292368 291.617009 
L 178.53984 292.085213 
L 178.65029 292.605462 
L 178.617276 293.135141 
L 178.442254 293.636098 
L 178.104725 294.108398 
L 177.906519 294.25937 
L 177.642249 294.462163 
L 177.09414 294.66361 
L 176.323078 294.670538 
L 176.019927 294.545836 
L 175.609416 294.378837 
L 175.063688 293.837526 
L 174.968346 293.6067 
L 174.769722 293.127121 
L 174.758061 292.43153 
" clip-path="url(#p5fbdf5d5d4)" style="fill: #ff0000; stroke: #808080"/>
    <path d="M 174.758061 292.43153 
L 174.769722 293.127121 
L 174.968346 293.6067 
L 174.170592 293.649614 
L 173.022851 293.716074 
L 172.373946 293.457826 
L 172.957677 293.052068 
L 174.016228 292.705396 
L 174.758061 292.43153 
" clip-path="url(#p5fbdf5d5d4)" style="fill: #ff0000; stroke: #808080"/>
    <path d="M 176.019927 294.545836 
L 176.323078 294.670538 
L 177.09414 294.66361 
L 177.642249 294.462163 
L 177.906519 294.25937 
L 177.967554 295.109637 
L 177.938319 296.334931 
L 177.533808 297.067742 
L 177.011425 296.429867 
L 176.431254 295.469045 
L 176.019927 294.545836 
" clip-path="url(#p5fbdf5d5d4)" style="fill: #add8e6; stroke: #808080"/>
    <path d="M 104.342832 10.121966 
L 102.791261 10.53519 
L 101.547153 10.963164 
L 102.099953 9.262767 
L 102.725527 7.138034 
L 102.60173 7.885658 
L 102.727018 8.632509 
L 103.088535 9.300086 
L 103.648215 9.814458 
L 104.342832 10.121966 
" clip-path="url(#p5fbdf5d5d4)" style="fill: #add8e6; stroke: #808080"/>
    <path d="M 106.961012 8.982867 
L 107.209433 8.261782 
L 107.114653 10.227788 
L 107.154363 12.350454 
L 104.588834 10.143641 
L 105.106061 10.186912 
L 105.849598 10.002839 
L 106.489937 9.585714 
L 106.961012 8.982867 
" clip-path="url(#p5fbdf5d5d4)" style="fill: #add8e6; stroke: #808080"/>
    <path d="M 107.209433 8.261782 
L 106.961012 8.982867 
L 106.489937 9.585714 
L 105.849598 10.002839 
L 105.106061 10.186912 
L 104.588834 10.143641 
L 104.342832 10.121966 
L 103.648215 9.814458 
L 103.088535 9.300086 
L 102.727018 8.632509 
L 102.60173 7.885658 
L 102.725527 7.138034 
L 103.086047 6.470457 
L 103.471177 6.11247 
L 103.644102 5.954855 
L 104.339951 5.645269 
L 105.098036 5.577837 
L 105.841138 5.761775 
L 106.484058 6.174909 
L 106.957304 6.777063 
L 107.207052 7.496598 
L 107.209433 8.261782 
" clip-path="url(#p5fbdf5d5d4)" style="fill: #add8e6; stroke: #808080"/>
    <path d="M 106.957304 6.777063 
L 106.484058 6.174909 
L 105.841138 5.761775 
L 105.098036 5.577837 
L 104.339951 5.645269 
L 103.644102 5.954855 
L 103.471177 6.11247 
L 104.230769 5.008323 
L 105.196516 3.279713 
L 105.863567 1.821306 
L 106.078472 3.50361 
L 106.675488 5.884842 
L 106.957304 6.777063 
" clip-path="url(#p5fbdf5d5d4)" style="fill: #add8e6; stroke: #808080"/>
    <path d="M 134.724553 388.019958 
L 133.861739 387.953097 
L 133.059633 387.632477 
L 132.387727 387.091542 
L 131.907663 386.374978 
L 131.657378 385.511838 
L 131.687679 384.611917 
L 131.995699 383.767225 
L 132.550152 383.058644 
L 133.277165 382.564942 
L 134.120055 382.313225 
L 134.998466 382.326183 
L 135.833551 382.604062 
L 136.503669 383.077682 
L 137.011895 383.72235 
L 137.317053 384.482095 
L 137.393729 385.298655 
L 137.23227 386.111473 
L 136.845061 386.84646 
L 136.263435 387.438442 
L 135.536139 387.842388 
L 134.724553 388.019958 
" clip-path="url(#p5fbdf5d5d4)" style="fill: #add8e6; stroke: #808080"/>
    <path d="M 93.253928 283.376518 
L 94.638767 284.005023 
L 95.728358 284.511023 
L 93.499097 284.639107 
L 92.872193 284.858713 
L 93.260104 283.843243 
L 93.253928 283.376518 
" clip-path="url(#p5fbdf5d5d4)" style="fill: #add8e6; stroke: #808080"/>
   </g>
   <g id="text_1">
    <!-- Zoomed-In Solution for issoire _LB=1000000.0 -->
    <g transform="translate(49.40125 29.971239) scale(0.16 -0.16)">
     <defs>
      <path id="DejaVuSans-5a" d="M 359 4666 
L 4025 4666 
L 4025 4184 
L 1075 531 
L 4097 531 
L 4097 0 
L 288 0 
L 288 481 
L 3238 4134 
L 359 4134 
L 359 4666 
z
" transform="scale(0.015625)"/>
      <path id="DejaVuSans-6f" d="M 1959 3097 
Q 1497 3097 1228 2736 
Q 959 2375 959 1747 
Q 959 1119 1226 758 
Q 1494 397 1959 397 
Q 2419 397 2687 759 
Q 2956 1122 2956 1747 
Q 2956 2369 2687 2733 
Q 2419 3097 1959 3097 
z
M 1959 3584 
Q 2709 3584 3137 3096 
Q 3566 2609 3566 1747 
Q 3566 888 3137 398 
Q 2709 -91 1959 -91 
Q 1206 -91 779 398 
Q 353 888 353 1747 
Q 353 2609 779 3096 
Q 1206 3584 1959 3584 
z
" transform="scale(0.015625)"/>
      <path id="DejaVuSans-6d" d="M 3328 2828 
Q 3544 3216 3844 3400 
Q 4144 3584 4550 3584 
Q 5097 3584 5394 3201 
Q 5691 2819 5691 2113 
L 5691 0 
L 5113 0 
L 5113 2094 
Q 5113 2597 4934 2840 
Q 4756 3084 4391 3084 
Q 3944 3084 3684 2787 
Q 3425 2491 3425 1978 
L 3425 0 
L 2847 0 
L 2847 2094 
Q 2847 2600 2669 2842 
Q 2491 3084 2119 3084 
Q 1678 3084 1418 2786 
Q 1159 2488 1159 1978 
L 1159 0 
L 581 0 
L 581 3500 
L 1159 3500 
L 1159 2956 
Q 1356 3278 1631 3431 
Q 1906 3584 2284 3584 
Q 2666 3584 2933 3390 
Q 3200 3197 3328 2828 
z
" transform="scale(0.015625)"/>
      <path id="DejaVuSans-65" d="M 3597 1894 
L 3597 1613 
L 953 1613 
Q 991 1019 1311 708 
Q 1631 397 2203 397 
Q 2534 397 2845 478 
Q 3156 559 3463 722 
L 3463 178 
Q 3153 47 2828 -22 
Q 2503 -91 2169 -91 
Q 1331 -91 842 396 
Q 353 884 353 1716 
Q 353 2575 817 3079 
Q 1281 3584 2069 3584 
Q 2775 3584 3186 3129 
Q 3597 2675 3597 1894 
z
M 3022 2063 
Q 3016 2534 2758 2815 
Q 2500 3097 2075 3097 
Q 1594 3097 1305 2825 
Q 1016 2553 972 2059 
L 3022 2063 
z
" transform="scale(0.015625)"/>
      <path id="DejaVuSans-64" d="M 2906 2969 
L 2906 4863 
L 3481 4863 
L 3481 0 
L 2906 0 
L 2906 525 
Q 2725 213 2448 61 
Q 2172 -91 1784 -91 
Q 1150 -91 751 415 
Q 353 922 353 1747 
Q 353 2572 751 3078 
Q 1150 3584 1784 3584 
Q 2172 3584 2448 3432 
Q 2725 3281 2906 2969 
z
M 947 1747 
Q 947 1113 1208 752 
Q 1469 391 1925 391 
Q 2381 391 2643 752 
Q 2906 1113 2906 1747 
Q 2906 2381 2643 2742 
Q 2381 3103 1925 3103 
Q 1469 3103 1208 2742 
Q 947 2381 947 1747 
z
" transform="scale(0.015625)"/>
      <path id="DejaVuSans-2d" d="M 313 2009 
L 1997 2009 
L 1997 1497 
L 313 1497 
L 313 2009 
z
" transform="scale(0.015625)"/>
      <path id="DejaVuSans-49" d="M 628 4666 
L 1259 4666 
L 1259 0 
L 628 0 
L 628 4666 
z
" transform="scale(0.015625)"/>
      <path id="DejaVuSans-6e" d="M 3513 2113 
L 3513 0 
L 2938 0 
L 2938 2094 
Q 2938 2591 2744 2837 
Q 2550 3084 2163 3084 
Q 1697 3084 1428 2787 
Q 1159 2491 1159 1978 
L 1159 0 
L 581 0 
L 581 3500 
L 1159 3500 
L 1159 2956 
Q 1366 3272 1645 3428 
Q 1925 3584 2291 3584 
Q 2894 3584 3203 3211 
Q 3513 2838 3513 2113 
z
" transform="scale(0.015625)"/>
      <path id="DejaVuSans-20" transform="scale(0.015625)"/>
      <path id="DejaVuSans-53" d="M 3425 4513 
L 3425 3897 
Q 3066 4069 2747 4153 
Q 2428 4238 2131 4238 
Q 1616 4238 1336 4038 
Q 1056 3838 1056 3469 
Q 1056 3159 1242 3001 
Q 1428 2844 1947 2747 
L 2328 2669 
Q 3034 2534 3370 2195 
Q 3706 1856 3706 1288 
Q 3706 609 3251 259 
Q 2797 -91 1919 -91 
Q 1588 -91 1214 -16 
Q 841 59 441 206 
L 441 856 
Q 825 641 1194 531 
Q 1563 422 1919 422 
Q 2459 422 2753 634 
Q 3047 847 3047 1241 
Q 3047 1584 2836 1778 
Q 2625 1972 2144 2069 
L 1759 2144 
Q 1053 2284 737 2584 
Q 422 2884 422 3419 
Q 422 4038 858 4394 
Q 1294 4750 2059 4750 
Q 2388 4750 2728 4690 
Q 3069 4631 3425 4513 
z
" transform="scale(0.015625)"/>
      <path id="DejaVuSans-6c" d="M 603 4863 
L 1178 4863 
L 1178 0 
L 603 0 
L 603 4863 
z
" transform="scale(0.015625)"/>
      <path id="DejaVuSans-75" d="M 544 1381 
L 544 3500 
L 1119 3500 
L 1119 1403 
Q 1119 906 1312 657 
Q 1506 409 1894 409 
Q 2359 409 2629 706 
Q 2900 1003 2900 1516 
L 2900 3500 
L 3475 3500 
L 3475 0 
L 2900 0 
L 2900 538 
Q 2691 219 2414 64 
Q 2138 -91 1772 -91 
Q 1169 -91 856 284 
Q 544 659 544 1381 
z
M 1991 3584 
L 1991 3584 
z
" transform="scale(0.015625)"/>
      <path id="DejaVuSans-74" d="M 1172 4494 
L 1172 3500 
L 2356 3500 
L 2356 3053 
L 1172 3053 
L 1172 1153 
Q 1172 725 1289 603 
Q 1406 481 1766 481 
L 2356 481 
L 2356 0 
L 1766 0 
Q 1100 0 847 248 
Q 594 497 594 1153 
L 594 3053 
L 172 3053 
L 172 3500 
L 594 3500 
L 594 4494 
L 1172 4494 
z
" transform="scale(0.015625)"/>
      <path id="DejaVuSans-69" d="M 603 3500 
L 1178 3500 
L 1178 0 
L 603 0 
L 603 3500 
z
M 603 4863 
L 1178 4863 
L 1178 4134 
L 603 4134 
L 603 4863 
z
" transform="scale(0.015625)"/>
      <path id="DejaVuSans-66" d="M 2375 4863 
L 2375 4384 
L 1825 4384 
Q 1516 4384 1395 4259 
Q 1275 4134 1275 3809 
L 1275 3500 
L 2222 3500 
L 2222 3053 
L 1275 3053 
L 1275 0 
L 697 0 
L 697 3053 
L 147 3053 
L 147 3500 
L 697 3500 
L 697 3744 
Q 697 4328 969 4595 
Q 1241 4863 1831 4863 
L 2375 4863 
z
" transform="scale(0.015625)"/>
      <path id="DejaVuSans-72" d="M 2631 2963 
Q 2534 3019 2420 3045 
Q 2306 3072 2169 3072 
Q 1681 3072 1420 2755 
Q 1159 2438 1159 1844 
L 1159 0 
L 581 0 
L 581 3500 
L 1159 3500 
L 1159 2956 
Q 1341 3275 1631 3429 
Q 1922 3584 2338 3584 
Q 2397 3584 2469 3576 
Q 2541 3569 2628 3553 
L 2631 2963 
z
" transform="scale(0.015625)"/>
      <path id="DejaVuSans-73" d="M 2834 3397 
L 2834 2853 
Q 2591 2978 2328 3040 
Q 2066 3103 1784 3103 
Q 1356 3103 1142 2972 
Q 928 2841 928 2578 
Q 928 2378 1081 2264 
Q 1234 2150 1697 2047 
L 1894 2003 
Q 2506 1872 2764 1633 
Q 3022 1394 3022 966 
Q 3022 478 2636 193 
Q 2250 -91 1575 -91 
Q 1294 -91 989 -36 
Q 684 19 347 128 
L 347 722 
Q 666 556 975 473 
Q 1284 391 1588 391 
Q 1994 391 2212 530 
Q 2431 669 2431 922 
Q 2431 1156 2273 1281 
Q 2116 1406 1581 1522 
L 1381 1569 
Q 847 1681 609 1914 
Q 372 2147 372 2553 
Q 372 3047 722 3315 
Q 1072 3584 1716 3584 
Q 2034 3584 2315 3537 
Q 2597 3491 2834 3397 
z
" transform="scale(0.015625)"/>
      <path id="DejaVuSans-5f" d="M 3263 -1063 
L 3263 -1509 
L -63 -1509 
L -63 -1063 
L 3263 -1063 
z
" transform="scale(0.015625)"/>
      <path id="DejaVuSans-4c" d="M 628 4666 
L 1259 4666 
L 1259 531 
L 3531 531 
L 3531 0 
L 628 0 
L 628 4666 
z
" transform="scale(0.015625)"/>
      <path id="DejaVuSans-42" d="M 1259 2228 
L 1259 519 
L 2272 519 
Q 2781 519 3026 730 
Q 3272 941 3272 1375 
Q 3272 1813 3026 2020 
Q 2781 2228 2272 2228 
L 1259 2228 
z
M 1259 4147 
L 1259 2741 
L 2194 2741 
Q 2656 2741 2882 2914 
Q 3109 3088 3109 3444 
Q 3109 3797 2882 3972 
Q 2656 4147 2194 4147 
L 1259 4147 
z
M 628 4666 
L 2241 4666 
Q 2963 4666 3353 4366 
Q 3744 4066 3744 3513 
Q 3744 3084 3544 2831 
Q 3344 2578 2956 2516 
Q 3422 2416 3680 2098 
Q 3938 1781 3938 1306 
Q 3938 681 3513 340 
Q 3088 0 2303 0 
L 628 0 
L 628 4666 
z
" transform="scale(0.015625)"/>
      <path id="DejaVuSans-3d" d="M 678 2906 
L 4684 2906 
L 4684 2381 
L 678 2381 
L 678 2906 
z
M 678 1631 
L 4684 1631 
L 4684 1100 
L 678 1100 
L 678 1631 
z
" transform="scale(0.015625)"/>
      <path id="DejaVuSans-31" d="M 794 531 
L 1825 531 
L 1825 4091 
L 703 3866 
L 703 4441 
L 1819 4666 
L 2450 4666 
L 2450 531 
L 3481 531 
L 3481 0 
L 794 0 
L 794 531 
z
" transform="scale(0.015625)"/>
      <path id="DejaVuSans-30" d="M 2034 4250 
Q 1547 4250 1301 3770 
Q 1056 3291 1056 2328 
Q 1056 1369 1301 889 
Q 1547 409 2034 409 
Q 2525 409 2770 889 
Q 3016 1369 3016 2328 
Q 3016 3291 2770 3770 
Q 2525 4250 2034 4250 
z
M 2034 4750 
Q 2819 4750 3233 4129 
Q 3647 3509 3647 2328 
Q 3647 1150 3233 529 
Q 2819 -91 2034 -91 
Q 1250 -91 836 529 
Q 422 1150 422 2328 
Q 422 3509 836 4129 
Q 1250 4750 2034 4750 
z
" transform="scale(0.015625)"/>
      <path id="DejaVuSans-2e" d="M 684 794 
L 1344 794 
L 1344 0 
L 684 0 
L 684 794 
z
" transform="scale(0.015625)"/>
     </defs>
     <use xlink:href="#DejaVuSans-5a"/>
     <use xlink:href="#DejaVuSans-6f" transform="translate(68.505859 0)"/>
     <use xlink:href="#DejaVuSans-6f" transform="translate(129.6875 0)"/>
     <use xlink:href="#DejaVuSans-6d" transform="translate(190.869141 0)"/>
     <use xlink:href="#DejaVuSans-65" transform="translate(288.28125 0)"/>
     <use xlink:href="#DejaVuSans-64" transform="translate(349.804688 0)"/>
     <use xlink:href="#DejaVuSans-2d" transform="translate(413.28125 0)"/>
     <use xlink:href="#DejaVuSans-49" transform="translate(449.365234 0)"/>
     <use xlink:href="#DejaVuSans-6e" transform="translate(478.857422 0)"/>
     <use xlink:href="#DejaVuSans-20" transform="translate(542.236328 0)"/>
     <use xlink:href="#DejaVuSans-53" transform="translate(574.023438 0)"/>
     <use xlink:href="#DejaVuSans-6f" transform="translate(637.5 0)"/>
     <use xlink:href="#DejaVuSans-6c" transform="translate(698.681641 0)"/>
     <use xlink:href="#DejaVuSans-75" transform="translate(726.464844 0)"/>
     <use xlink:href="#DejaVuSans-74" transform="translate(789.84375 0)"/>
     <use xlink:href="#DejaVuSans-69" transform="translate(829.052734 0)"/>
     <use xlink:href="#DejaVuSans-6f" transform="translate(856.835938 0)"/>
     <use xlink:href="#DejaVuSans-6e" transform="translate(918.017578 0)"/>
     <use xlink:href="#DejaVuSans-20" transform="translate(981.396484 0)"/>
     <use xlink:href="#DejaVuSans-66" transform="translate(1013.183594 0)"/>
     <use xlink:href="#DejaVuSans-6f" transform="translate(1048.388672 0)"/>
     <use xlink:href="#DejaVuSans-72" transform="translate(1109.570312 0)"/>
     <use xlink:href="#DejaVuSans-20" transform="translate(1150.683594 0)"/>
     <use xlink:href="#DejaVuSans-69" transform="translate(1182.470703 0)"/>
     <use xlink:href="#DejaVuSans-73" transform="translate(1210.253906 0)"/>
     <use xlink:href="#DejaVuSans-73" transform="translate(1262.353516 0)"/>
     <use xlink:href="#DejaVuSans-6f" transform="translate(1314.453125 0)"/>
     <use xlink:href="#DejaVuSans-69" transform="translate(1375.634766 0)"/>
     <use xlink:href="#DejaVuSans-72" transform="translate(1403.417969 0)"/>
     <use xlink:href="#DejaVuSans-65" transform="translate(1442.28125 0)"/>
     <use xlink:href="#DejaVuSans-20" transform="translate(1503.804688 0)"/>
     <use xlink:href="#DejaVuSans-5f" transform="translate(1535.591797 0)"/>
     <use xlink:href="#DejaVuSans-4c" transform="translate(1585.591797 0)"/>
     <use xlink:href="#DejaVuSans-42" transform="translate(1641.304688 0)"/>
     <use xlink:href="#DejaVuSans-3d" transform="translate(1709.908203 0)"/>
     <use xlink:href="#DejaVuSans-31" transform="translate(1793.697266 0)"/>
     <use xlink:href="#DejaVuSans-30" transform="translate(1857.320312 0)"/>
     <use xlink:href="#DejaVuSans-30" transform="translate(1920.943359 0)"/>
     <use xlink:href="#DejaVuSans-30" transform="translate(1984.566406 0)"/>
     <use xlink:href="#DejaVuSans-30" transform="translate(2048.189453 0)"/>
     <use xlink:href="#DejaVuSans-30" transform="translate(2111.8125 0)"/>
     <use xlink:href="#DejaVuSans-30" transform="translate(2175.435547 0)"/>
     <use xlink:href="#DejaVuSans-2e" transform="translate(2239.058594 0)"/>
     <use xlink:href="#DejaVuSans-30" transform="translate(2270.845703 0)"/>
    </g>
   </g>
  </g>
 </g>
 <defs>
  <clipPath id="p5fbdf5d5d4">
   <rect x="57.6" y="49.971239" width="357.12" height="249.113522"/>
  </clipPath>
 </defs>
</svg>
