<?xml version="1.0" encoding="utf-8" standalone="no"?>
<!DOCTYPE svg PUBLIC "-//W3C//DTD SVG 1.1//EN"
  "http://www.w3.org/Graphics/SVG/1.1/DTD/svg11.dtd">
<svg xmlns:xlink="http://www.w3.org/1999/xlink" width="460.8pt" height="345.6pt" viewBox="0 0 460.8 345.6" xmlns="http://www.w3.org/2000/svg" version="1.1">
 <metadata>
  <rdf:RDF xmlns:dc="http://purl.org/dc/elements/1.1/" xmlns:cc="http://creativecommons.org/ns#" xmlns:rdf="http://www.w3.org/1999/02/22-rdf-syntax-ns#">
   <cc:Work>
    <dc:type rdf:resource="http://purl.org/dc/dcmitype/StillImage"/>
    <dc:date>2025-05-29T12:56:04.575350</dc:date>
    <dc:format>image/svg+xml</dc:format>
    <dc:creator>
     <cc:Agent>
      <dc:title>Matplotlib v3.10.3, https://matplotlib.org/</dc:title>
     </cc:Agent>
    </dc:creator>
   </cc:Work>
  </rdf:RDF>
 </metadata>
 <defs>
  <style type="text/css">*{stroke-linejoin: round; stroke-linecap: butt}</style>
 </defs>
 <g id="figure_1">
  <g id="patch_1">
   <path d="M 0 345.6 
L 460.8 345.6 
L 460.8 0 
L 0 0 
z
" style="fill: #ffffff"/>
  </g>
  <g id="axes_1">
   <g id="PatchCollection_1">
    <path d="M 216.543833 190.600562 
L 216.263149 191.161557 
L 215.763885 191.867951 
L 215.575484 192.05251 
L 215.247692 192.294922 
L 213.298248 193.360882 
L 212.826347 193.601396 
L 212.58584 193.712878 
L 212.399602 193.799584 
L 212.201852 193.891598 
L 212.033287 193.968289 
L 211.764033 193.970883 
L 211.22102 193.851287 
L 210.235587 193.38914 
L 209.951094 193.257023 
L 209.589511 193.09292 
L 208.605363 192.645412 
L 208.23477 192.495983 
L 207.945368 192.506839 
L 207.302102 191.919414 
L 206.643491 191.162124 
L 206.335265 190.80978 
L 205.976631 190.399 
L 203.844557 187.918435 
L 203.638404 187.68764 
L 203.012791 186.944889 
L 202.694994 186.423246 
L 202.596021 186.236063 
L 202.392575 185.814256 
L 201.096717 182.795001 
L 200.990969 182.546319 
L 200.74048 181.953573 
L 200.530531 181.423393 
L 200.330271 180.830492 
L 200.280246 180.49434 
L 200.289979 180.177925 
L 200.407966 179.452219 
L 200.659228 178.689193 
L 200.87378 178.038185 
L 201.376833 176.953898 
L 201.883688 176.035993 
L 202.166608 175.528906 
L 202.854691 174.104811 
L 203.196411 173.441692 
L 204.427205 170.852912 
L 204.578165 170.544264 
L 204.802591 170.162151 
L 205.040087 169.880187 
L 205.810525 169.40323 
L 206.716827 168.929368 
L 208.581665 167.968583 
L 210.187102 167.13046 
L 210.656873 166.878238 
L 211.124098 166.867414 
L 211.749623 166.925233 
L 213.502241 167.085595 
L 213.713501 167.107202 
L 214.08162 167.13125 
L 214.33291 167.183785 
L 214.708611 167.262883 
L 215.131998 167.451982 
L 215.632325 167.890433 
L 216.046443 168.407077 
L 216.9466 170.058848 
L 217.082826 170.309188 
L 218.72831 173.329046 
L 219.018842 173.816778 
L 219.343931 174.428026 
L 219.59121 174.907104 
L 221.051606 177.574232 
L 221.157311 177.804745 
L 221.20487 178.135629 
L 221.240157 178.491745 
L 221.24805 178.645812 
L 221.254212 178.772933 
L 221.283297 179.383349 
L 221.299171 179.719019 
L 221.303357 179.872512 
L 221.207352 180.372585 
L 221.084321 181.050856 
L 220.97419 181.510546 
L 220.90931 181.827135 
L 220.74639 182.388937 
L 220.673079 182.642861 
L 220.300016 183.412143 
L 220.131794 183.727884 
L 220.079813 183.825306 
L 219.986492 184.000196 
L 219.657822 184.616419 
L 218.626721 186.661503 
L 218.304578 187.260127 
L 218.161329 187.531846 
L 216.543833 190.600562 
" clip-path="url(#p91e810a12d)" style="fill: #add8e6; stroke: #808080"/>
    <path d="M 212.58584 193.712878 
L 212.826347 193.601396 
L 213.298248 193.360882 
L 215.247692 192.294922 
L 215.575484 192.05251 
L 215.763885 191.867951 
L 216.263149 191.161557 
L 216.543833 190.600562 
L 218.161329 187.531846 
L 218.304578 187.260127 
L 218.626721 186.661503 
L 219.657822 184.616419 
L 219.986492 184.000196 
L 220.079813 183.825306 
L 220.131794 183.727884 
L 220.300016 183.412143 
L 220.673079 182.642861 
L 221.186713 181.931728 
L 221.551204 181.055838 
L 221.835427 180.316127 
L 221.831432 180.092326 
L 221.9353 179.999429 
L 222.109241 179.933262 
L 222.664251 179.814927 
L 223.332396 179.670456 
L 222.64594 179.621052 
L 222.388107 179.586121 
L 222.173236 179.597341 
L 221.958365 179.608561 
L 221.917429 179.551857 
L 221.85276 179.279031 
L 221.738611 178.850511 
L 221.554589 178.327294 
L 221.37954 178.03958 
L 221.157311 177.804745 
L 221.051606 177.574232 
L 219.59121 174.907104 
L 219.343931 174.428026 
L 219.018842 173.816778 
L 218.72831 173.329046 
L 217.082826 170.309188 
L 216.9466 170.058848 
L 216.046443 168.407077 
L 215.632325 167.890433 
L 215.131998 167.451982 
L 214.708611 167.262883 
L 214.33291 167.183785 
L 214.08162 167.13125 
L 213.713501 167.107202 
L 213.502241 167.085595 
L 213.23616 166.910067 
L 212.173867 166.728225 
L 211.808427 166.506133 
L 211.629943 166.301036 
L 211.514303 166.049458 
L 211.432599 165.72278 
L 211.383549 165.172773 
L 211.60697 163.940518 
L 211.725147 163.020875 
L 211.757364 162.789931 
L 211.773271 162.477011 
L 211.964052 161.207946 
L 212.238119 159.318154 
L 212.303671 158.81935 
L 212.408072 158.104228 
L 212.650934 156.639896 
L 212.940733 154.51628 
L 213.159262 153.039133 
L 213.595595 150.118237 
L 213.828699 148.564292 
L 214.051718 147.07717 
L 214.20577 146.049022 
L 215.173611 139.720631 
L 215.362549 139.189803 
L 215.291575 138.078572 
L 215.235935 137.396172 
L 215.328452 136.967005 
L 215.515529 136.631873 
L 215.877349 136.362988 
L 216.043336 136.26111 
L 216.250407 136.133909 
L 219.768215 135.969996 
L 220.088419 135.952588 
L 228.053714 135.42719 
L 229.182608 135.350389 
L 233.71776 135.116319 
L 239.071725 134.901254 
L 240.325016 134.850969 
L 241.00467 134.861102 
L 242.181493 134.841521 
L 246.873412 134.590364 
L 248.502412 134.503101 
L 255.773739 134.146248 
L 257.468614 134.064 
L 258.854805 133.996808 
L 260.615968 133.919602 
L 262.477963 133.836199 
L 264.30411 133.868324 
L 264.620359 133.901274 
L 265.224857 133.96492 
L 266.050483 134.051863 
L 268.145638 134.397716 
L 271.429238 135.127518 
L 271.582893 135.161581 
L 272.359445 135.971086 
L 272.322836 136.229589 
L 272.340569 136.48967 
L 272.4122 136.741372 
L 272.545564 136.988769 
L 272.731092 137.201426 
L 272.959278 137.367071 
L 273.218569 137.478125 
L 273.496185 137.52877 
L 273.822146 137.509533 
L 274.13219 137.407151 
L 274.407401 137.227545 
L 274.626825 136.983087 
L 274.774875 136.690234 
L 274.833766 136.448063 
L 275.310134 135.852975 
L 275.823054 135.482165 
L 277.109419 135.101769 
L 278.863981 134.521784 
L 281.921925 133.484566 
L 285.113458 132.39473 
L 286.026255 132.204788 
L 286.451298 132.150641 
L 286.80328 132.159428 
L 287.354647 132.213836 
L 287.744027 132.32796 
L 288.037477 132.436544 
L 288.329982 132.631844 
L 288.778676 133.003565 
L 289.10438 133.402062 
L 289.947701 134.839974 
L 290.496843 136.196842 
L 290.987171 137.567968 
L 291.285274 138.449923 
L 291.518401 139.350844 
L 292.186693 143.462216 
L 292.663581 144.870881 
L 292.768147 145.732391 
L 293.389533 151.806684 
L 293.505876 153.969439 
L 293.524525 155.356789 
L 293.438953 157.951443 
L 293.250759 160.389421 
L 293.045382 162.123789 
L 292.826302 163.700595 
L 292.568459 165.135743 
L 292.263919 166.518902 
L 291.690077 168.868526 
L 291.32764 170.175711 
L 290.965439 171.308297 
L 290.204885 173.59878 
L 289.781342 174.856952 
L 288.426317 178.884853 
L 287.810526 179.781577 
L 287.056137 181.463868 
L 286.690245 182.114851 
L 285.8064 183.251511 
L 285.323935 183.761678 
L 284.765573 184.229327 
L 283.324762 185.267644 
L 282.156875 185.924799 
L 281.564005 186.29354 
L 280.941643 186.583866 
L 280.436404 186.685729 
L 280.008739 186.715855 
L 279.070532 186.614084 
L 278.031796 186.863598 
L 277.458693 186.861977 
L 276.948508 186.837882 
L 276.261004 186.852456 
L 275.581438 186.902156 
L 274.901548 186.978221 
L 274.65744 186.988986 
L 274.365726 187.045608 
L 273.892149 187.136225 
L 273.571628 187.197042 
L 271.732824 187.537639 
L 268.14956 188.241345 
L 264.184065 189.025941 
L 263.988229 189.068179 
L 263.768529 189.115182 
L 262.625491 189.328076 
L 261.872108 189.468803 
L 259.799753 189.909697 
L 259.665216 189.938258 
L 259.22374 190.027577 
L 258.783958 190.131538 
L 251.2377 191.66465 
L 246.802735 192.565973 
L 245.771239 192.77552 
L 244.931048 192.941094 
L 236.607687 194.582409 
L 235.507445 194.799173 
L 235.045826 194.902586 
L 234.69159 194.982221 
L 234.042687 195.100289 
L 233.74522 195.165095 
L 232.654373 195.359556 
L 232.514183 195.29438 
L 232.180244 195.283134 
L 232.002361 195.276666 
L 231.960773 195.27504 
L 231.793107 195.244518 
L 231.677868 195.127703 
L 231.531474 195.053758 
L 231.414492 195.036551 
L 231.369181 195.029663 
L 231.207467 195.058298 
L 231.048826 195.147271 
L 230.973764 195.236565 
L 230.931515 195.2865 
L 230.870297 195.45719 
L 230.676604 195.528697 
L 230.400216 195.619213 
L 230.247803 195.725157 
L 230.037046 195.738713 
L 226.952602 195.9166 
L 224.98747 196.047583 
L 224.314433 196.08661 
L 223.971531 196.105851 
L 221.714581 196.26644 
L 219.87972 196.452059 
L 219.28662 196.511918 
L 218.954878 196.54518 
L 218.364248 196.605031 
L 215.984629 197.038993 
L 215.134856 197.176398 
L 215.013455 197.194353 
L 214.495745 196.608309 
L 214.364354 196.459314 
L 214.251498 196.312604 
L 213.98904 195.985904 
L 213.715406 195.639903 
L 213.419488 195.27698 
L 213.354974 195.185195 
L 212.791445 194.161624 
L 212.69483 193.94104 
L 212.58584 193.712878 
" clip-path="url(#p91e810a12d)" style="fill: #add8e6; stroke: #808080"/>
    <path d="M 286.386429 92.059977 
L 287.356301 100.253506 
L 288.26394 107.915825 
L 288.444717 109.41923 
L 289.195365 115.663017 
L 288.947439 116.116747 
L 288.929933 118.146367 
L 288.821665 119.991731 
L 288.038858 123.599395 
L 287.045878 127.510667 
L 286.698142 129.021107 
L 286.546694 129.401862 
L 286.17691 130.34991 
L 285.884924 131.051034 
L 285.582549 131.475647 
L 285.272362 131.779591 
L 284.973903 132.020803 
L 284.651741 132.190029 
L 284.057748 132.438669 
L 281.921925 133.484566 
L 278.863981 134.521784 
L 277.109419 135.101769 
L 275.823054 135.482165 
L 274.782608 135.414703 
L 274.39821 135.313437 
L 274.167593 135.158934 
L 273.855194 135.045712 
L 273.523728 135.017509 
L 273.196668 135.077176 
L 272.872814 135.235263 
L 271.582893 135.161581 
L 271.429238 135.127518 
L 268.145638 134.397716 
L 266.050483 134.051863 
L 265.224857 133.96492 
L 264.620359 133.901274 
L 264.30411 133.868324 
L 262.477963 133.836199 
L 260.615968 133.919602 
L 258.854805 133.996808 
L 257.468614 134.064 
L 255.773739 134.146248 
L 248.502412 134.503101 
L 246.873412 134.590364 
L 242.181493 134.841521 
L 241.00467 134.861102 
L 240.325016 134.850969 
L 239.071725 134.901254 
L 233.71776 135.116319 
L 229.182608 135.350389 
L 228.053714 135.42719 
L 220.088419 135.952588 
L 219.768215 135.969996 
L 216.250407 136.133909 
L 216.024481 136.155121 
L 214.77298 136.253938 
L 214.642675 134.992315 
L 214.565423 134.243189 
L 214.531463 133.912847 
L 214.485623 133.468878 
L 214.390125 132.544625 
L 213.565558 124.987322 
L 213.218925 122.327828 
L 213.208556 121.773598 
L 213.233304 121.260273 
L 213.232682 121.060483 
L 213.167472 120.872611 
L 213.09389 120.639652 
L 212.938009 120.017911 
L 212.881897 119.57866 
L 212.621499 116.187693 
L 212.615585 116.139081 
L 212.11256 112.024695 
L 212.093552 111.868318 
L 212.039484 111.423788 
L 211.936009 110.577483 
L 211.491605 106.645714 
L 211.281444 104.579895 
L 211.235937 103.445147 
L 211.271352 102.390416 
L 211.506578 101.129999 
L 211.928657 99.601245 
L 212.594253 97.496964 
L 213.025438 95.987515 
L 214.463683 90.482015 
L 215.668115 86.036546 
L 216.20206 84.22972 
L 217.214711 80.593972 
L 218.297891 76.618177 
L 218.336577 76.486228 
L 219.259695 73.32006 
L 219.709925 71.735545 
L 220.290821 69.691274 
L 220.577806 68.681452 
L 220.841192 67.495934 
L 220.96087 66.418672 
L 220.996959 65.196369 
L 220.917067 64.786489 
L 220.842659 64.156878 
L 220.714673 63.502827 
L 220.613251 63.182657 
L 220.100666 61.541982 
L 219.718464 60.663155 
L 219.372026 59.639498 
L 219.210331 59.127341 
L 219.07199 58.450472 
L 218.932445 57.125599 
L 218.940316 55.695389 
L 218.941374 55.376069 
L 218.922749 54.318906 
L 219.315772 54.553464 
L 219.981444 54.882413 
L 220.633747 55.14754 
L 222.062753 55.581898 
L 223.206092 55.866571 
L 224.216691 56.079591 
L 225.43628 56.268515 
L 226.744719 56.443092 
L 229.264449 56.783748 
L 231.084512 57.110197 
L 232.910483 57.611215 
L 233.61796 57.879657 
L 234.239021 58.150716 
L 235.708442 58.86026 
L 236.967557 59.695265 
L 238.321298 60.777213 
L 239.868563 62.272771 
L 240.480841 62.881911 
L 241.339688 63.763292 
L 242.766836 65.268008 
L 244.374763 66.801434 
L 245.403556 67.667612 
L 246.74546 68.63297 
L 248.069508 69.419094 
L 249.429062 70.109596 
L 251.155961 70.870388 
L 252.585167 71.332736 
L 253.517008 71.60627 
L 254.446107 71.794854 
L 255.757641 72.011491 
L 257.522935 72.167475 
L 258.800969 72.206095 
L 260.256658 72.201361 
L 261.822841 72.130053 
L 263.987018 72.0562 
L 265.833295 72.055439 
L 267.407485 72.167466 
L 269.141238 72.366848 
L 270.789623 72.762778 
L 272.437914 73.254202 
L 273.900562 73.861066 
L 274.742275 74.253189 
L 275.590336 74.697434 
L 276.513234 75.245135 
L 277.475931 75.878828 
L 278.608636 76.769167 
L 279.880276 77.852976 
L 281.013192 79.050904 
L 281.931757 80.146422 
L 282.873261 81.455129 
L 283.615327 82.691259 
L 284.239242 83.917234 
L 284.776668 85.124747 
L 285.234324 86.354203 
L 285.671577 87.882536 
L 286.11805 89.953383 
L 286.386429 92.059977 
" clip-path="url(#p91e810a12d)" style="fill: #add8e6; stroke: #808080"/>
    <path d="M 288.444717 109.41923 
L 288.26394 107.915825 
L 287.356301 100.253506 
L 286.386429 92.059977 
L 286.11805 89.953383 
L 285.671577 87.882536 
L 285.234324 86.354203 
L 284.776668 85.124747 
L 284.239242 83.917234 
L 283.615327 82.691259 
L 282.873261 81.455129 
L 281.931757 80.146422 
L 281.013192 79.050904 
L 279.880276 77.852976 
L 278.608636 76.769167 
L 277.475931 75.878828 
L 276.513234 75.245135 
L 275.590336 74.697434 
L 274.742275 74.253189 
L 273.900562 73.861066 
L 272.437914 73.254202 
L 270.789623 72.762778 
L 269.141238 72.366848 
L 267.407485 72.167466 
L 265.833295 72.055439 
L 263.987018 72.0562 
L 261.822841 72.130053 
L 260.256658 72.201361 
L 258.800969 72.206095 
L 257.522935 72.167475 
L 255.757641 72.011491 
L 254.446107 71.794854 
L 253.517008 71.60627 
L 252.585167 71.332736 
L 251.155961 70.870388 
L 249.429062 70.109596 
L 248.069508 69.419094 
L 246.74546 68.63297 
L 245.403556 67.667612 
L 244.374763 66.801434 
L 242.766836 65.268008 
L 241.339688 63.763292 
L 240.480841 62.881911 
L 239.868563 62.272771 
L 238.321298 60.777213 
L 236.967557 59.695265 
L 235.708442 58.86026 
L 234.239021 58.150716 
L 233.61796 57.879657 
L 232.910483 57.611215 
L 231.084512 57.110197 
L 229.264449 56.783748 
L 226.744719 56.443092 
L 225.43628 56.268515 
L 224.216691 56.079591 
L 223.206092 55.866571 
L 222.062753 55.581898 
L 220.633747 55.14754 
L 219.981444 54.882413 
L 219.315772 54.553464 
L 218.922749 54.318906 
L 218.91335 53.785434 
L 218.897494 53.568 
L 219.588494 53.986043 
L 220.216222 54.289331 
L 220.837567 54.52526 
L 221.507939 54.778025 
L 222.256362 54.984843 
L 223.283559 55.242342 
L 224.30156 55.454167 
L 226.843641 55.838715 
L 229.320988 56.182435 
L 231.227186 56.548451 
L 232.171277 56.810288 
L 233.031023 57.078834 
L 234.492577 57.646035 
L 235.282381 58.048969 
L 235.976626 58.426426 
L 237.283255 59.19097 
L 238.583017 60.252583 
L 240.202511 61.813529 
L 240.893714 62.522606 
L 241.697628 63.342056 
L 243.173068 64.890559 
L 244.843686 66.465967 
L 245.892225 67.32915 
L 247.051833 68.174396 
L 248.451729 68.998358 
L 249.710697 69.63821 
L 251.025432 70.212841 
L 252.748549 70.820716 
L 253.575266 71.040101 
L 254.34914 71.209266 
L 255.666496 71.44522 
L 257.673074 71.634989 
L 258.848625 71.673355 
L 260.474623 71.645216 
L 261.870885 71.591453 
L 263.919384 71.509775 
L 265.909293 71.50913 
L 267.528768 71.625696 
L 269.160936 71.847674 
L 270.237862 72.056235 
L 271.302268 72.3369 
L 272.615766 72.770833 
L 273.41184 73.05296 
L 274.427818 73.498413 
L 275.79565 74.181163 
L 276.648369 74.664645 
L 277.480703 75.206197 
L 279.006478 76.35186 
L 280.194937 77.422467 
L 281.389228 78.63601 
L 282.434736 79.90922 
L 283.33742 81.177627 
L 284.08942 82.430128 
L 284.759647 83.720398 
L 285.29916 84.936105 
L 285.746503 86.157978 
L 286.210491 87.680363 
L 286.506951 89.198032 
L 286.774513 90.93551 
L 286.986708 92.608137 
L 287.457721 96.355165 
L 287.707825 98.408501 
L 289.396214 112.700615 
L 291.258427 128.09187 
L 291.502875 130.190307 
L 290.951329 130.382034 
L 290.666607 128.001864 
L 289.195365 115.663017 
L 288.444717 109.41923 
" clip-path="url(#p91e810a12d)" style="fill: #add8e6; stroke: #808080"/>
    <path d="M 293.435008 146.830477 
L 293.79253 149.713667 
L 293.947222 151.772003 
L 294.01998 153.090035 
L 294.080458 155.410585 
L 294.044345 157.530494 
L 293.828101 160.441387 
L 293.616947 162.170502 
L 293.373987 163.745631 
L 293.130617 165.076441 
L 292.817762 166.680513 
L 292.232814 169.031933 
L 291.864184 170.33328 
L 291.475494 171.423184 
L 290.697895 173.786378 
L 290.314768 174.941882 
L 288.527087 180.336378 
L 285.978617 187.85292 
L 285.391871 187.773271 
L 288.014073 180.078536 
L 288.426317 178.884853 
L 289.781342 174.856952 
L 290.204885 173.59878 
L 290.965439 171.308297 
L 291.32764 170.175711 
L 291.690077 168.868526 
L 292.263919 166.518902 
L 292.568459 165.135743 
L 292.826302 163.700595 
L 293.045382 162.123789 
L 293.250759 160.389421 
L 293.438953 157.951443 
L 293.524525 155.356789 
L 293.505876 153.969439 
L 293.389533 151.806684 
L 292.768147 145.732391 
L 292.663581 144.870881 
L 292.504836 143.56544 
L 291.971382 138.909316 
L 290.951329 130.382034 
L 291.502875 130.190307 
L 292.273483 136.805505 
L 293.062789 143.490919 
L 293.435008 146.830477 
" clip-path="url(#p91e810a12d)" style="fill: #add8e6; stroke: #808080"/>
    <path d="M 272.872814 135.235263 
L 272.642954 135.435812 
L 272.468416 135.68598 
L 272.359445 135.971086 
L 271.582893 135.161581 
L 272.872814 135.235263 
" clip-path="url(#p91e810a12d)" style="fill: #add8e6; stroke: #808080"/>
    <path d="M 272.359445 135.971086 
L 272.468416 135.68598 
L 272.642954 135.435812 
L 272.872814 135.235263 
L 273.196668 135.077176 
L 273.523728 135.017509 
L 273.855194 135.045712 
L 274.167593 135.158934 
L 274.39821 135.313437 
L 274.670955 135.634784 
L 274.821676 136.027426 
L 274.833766 136.448063 
L 274.774875 136.690234 
L 274.626825 136.983087 
L 274.407401 137.227545 
L 274.13219 137.407151 
L 273.822146 137.509533 
L 273.496185 137.52877 
L 273.218569 137.478125 
L 272.959278 137.367071 
L 272.731092 137.201426 
L 272.545564 136.988769 
L 272.4122 136.741372 
L 272.340569 136.48967 
L 272.322836 136.229589 
L 272.359445 135.971086 
" clip-path="url(#p91e810a12d)" style="fill: #ff0000; stroke: #808080"/>
    <path d="M 274.833766 136.448063 
L 274.821676 136.027426 
L 274.670955 135.634784 
L 274.39821 135.313437 
L 274.782608 135.414703 
L 275.823054 135.482165 
L 275.310134 135.852975 
L 274.833766 136.448063 
" clip-path="url(#p91e810a12d)" style="fill: #add8e6; stroke: #808080"/>
    <path d="M 212.399602 193.799584 
L 212.58584 193.712878 
L 212.69483 193.94104 
L 212.791445 194.161624 
L 213.354974 195.185195 
L 213.419488 195.27698 
L 213.715406 195.639903 
L 213.98904 195.985904 
L 214.251498 196.312604 
L 214.364354 196.459314 
L 214.495745 196.608309 
L 215.013455 197.194353 
L 215.114209 197.553196 
L 215.220177 197.867493 
L 215.442578 199.212024 
L 215.553715 199.995611 
L 215.687433 200.49438 
L 216.0315 201.771739 
L 216.443974 203.4637 
L 216.491298 203.587763 
L 216.577671 203.823025 
L 216.66599 204.153782 
L 216.75104 204.360925 
L 217.534535 205.671479 
L 218.26926 206.788837 
L 218.76754 207.474539 
L 218.874568 209.17917 
L 219.048129 211.093344 
L 219.283337 212.443691 
L 219.342872 212.785084 
L 219.656462 214.051402 
L 220.764239 218.320308 
L 220.796752 218.44676 
L 220.742232 218.787338 
L 220.707081 219.001301 
L 220.489039 218.928746 
L 220.259685 218.925363 
L 220.039606 218.991087 
L 219.849783 219.119992 
L 219.74839 218.955672 
L 219.567129 218.662704 
L 218.820487 217.167482 
L 218.55501 216.672056 
L 217.213247 213.673516 
L 217.105025 213.430705 
L 216.451551 211.965068 
L 215.889277 210.696007 
L 215.078977 208.844748 
L 214.1582 206.550892 
L 213.925183 205.896582 
L 213.468172 204.841042 
L 213.210223 204.244814 
L 213.001309 203.793735 
L 211.902498 201.038738 
L 211.49793 200.293558 
L 210.509089 197.942485 
L 210.297542 197.436338 
L 209.702729 196.014448 
L 208.950153 194.300681 
L 208.971805 194.113126 
L 209.081113 193.912996 
L 209.225442 193.72096 
L 209.305398 193.614665 
L 209.48984 193.479923 
L 209.653525 193.422583 
L 210.235587 193.38914 
L 211.22102 193.851287 
L 211.764033 193.970883 
L 212.033287 193.968289 
L 212.201852 193.891598 
L 212.399602 193.799584 
" clip-path="url(#p91e810a12d)" style="fill: #add8e6; stroke: #808080"/>
    <path d="M 288.014073 180.078536 
L 285.391871 187.773271 
L 284.286928 187.623279 
L 283.53394 187.50743 
L 283.294422 187.288513 
L 283.106504 186.986813 
L 282.999716 186.691874 
L 282.981094 186.415391 
L 283.02329 186.104138 
L 283.14197 185.765094 
L 283.324762 185.267644 
L 284.765573 184.229327 
L 285.323935 183.761678 
L 285.8064 183.251511 
L 286.690245 182.114851 
L 287.056137 181.463868 
L 287.810526 179.781577 
L 288.426317 178.884853 
L 288.014073 180.078536 
" clip-path="url(#p91e810a12d)" style="fill: #add8e6; stroke: #808080"/>
    <path d="M 285.391871 187.773271 
L 285.273392 188.120942 
L 284.550075 190.118924 
L 283.784854 192.022712 
L 283.01869 193.769481 
L 282.0472 195.679224 
L 280.744953 198.045889 
L 279.496487 199.99814 
L 277.104073 203.274199 
L 276.071538 204.54608 
L 274.955198 205.752613 
L 275.153561 205.225235 
L 276.556469 203.272491 
L 277.32799 202.133298 
L 278.540659 199.932753 
L 279.530257 197.637439 
L 280.521538 194.363078 
L 280.81689 192.793646 
L 280.987523 191.10979 
L 281.201969 189.230098 
L 281.359644 188.481967 
L 281.491644 188.18565 
L 281.703712 187.948829 
L 282.082429 187.683918 
L 282.71766 187.425185 
L 283.53394 187.50743 
L 284.286928 187.623279 
L 285.391871 187.773271 
" clip-path="url(#p91e810a12d)" style="fill: #add8e6; stroke: #808080"/>
    <path d="M 283.784854 192.022712 
L 284.550075 190.118924 
L 285.273392 188.120942 
L 285.391871 187.773271 
L 285.978617 187.85292 
L 285.878694 188.147637 
L 285.130901 190.212493 
L 284.302159 192.328004 
L 282.665716 195.837708 
L 281.298583 198.25322 
L 279.925121 200.3799 
L 278.203341 202.762005 
L 277.399718 203.780025 
L 277.012256 204.271117 
L 275.739072 205.733623 
L 274.86725 206.67628 
L 273.97837 207.566846 
L 273.140859 208.429118 
L 271.509102 209.916809 
L 268.820239 212.235247 
L 263.234801 216.974096 
L 260.767092 219.342134 
L 258.429837 221.825738 
L 256.245983 224.517994 
L 254.208159 227.431233 
L 252.202059 230.872252 
L 250.386952 234.688789 
L 246.412917 244.033173 
L 245.451511 246.375163 
L 244.500383 248.973741 
L 243.902613 250.947204 
L 243.553734 252.718905 
L 243.26819 254.595279 
L 243.130049 256.466494 
L 243.156789 258.260429 
L 243.295337 260.120212 
L 243.5964 262.448194 
L 244.136459 264.821696 
L 246.110964 272.237525 
L 246.539436 274.348899 
L 246.83081 276.470086 
L 246.916722 278.601893 
L 246.889712 280.579385 
L 246.634975 282.432811 
L 246.082317 284.876606 
L 244.788826 288.496913 
L 242.908914 292.78174 
L 242.819912 292.986032 
L 242.520056 292.228243 
L 242.613659 292.019259 
L 244.230993 288.431321 
L 244.8983 286.802732 
L 245.446754 285.227839 
L 245.719426 284.212776 
L 245.806111 283.890254 
L 246.080511 282.51603 
L 246.227603 281.510743 
L 246.3776 280.255855 
L 246.396856 278.556103 
L 246.27291 276.505858 
L 246.010491 274.423247 
L 245.553289 272.34126 
L 243.595942 265.007399 
L 243.027283 262.574811 
L 242.716658 260.216979 
L 242.569574 258.262307 
L 242.573648 256.445423 
L 242.712453 254.523233 
L 243.020584 252.626867 
L 243.474566 250.498604 
L 244.177622 248.226583 
L 244.997944 246.057303 
L 245.92281 243.876553 
L 249.900205 234.420843 
L 251.593749 230.829686 
L 252.688712 228.815934 
L 253.661491 227.222077 
L 255.767748 224.205501 
L 256.872105 222.81803 
L 258.054541 221.38636 
L 260.459891 218.824027 
L 262.875705 216.578613 
L 264.878193 214.866527 
L 268.412986 211.845201 
L 272.039432 208.668272 
L 273.547812 207.226685 
L 273.889631 206.875777 
L 274.955198 205.752613 
L 276.071538 204.54608 
L 277.104073 203.274199 
L 279.496487 199.99814 
L 280.744953 198.045889 
L 282.0472 195.679224 
L 283.01869 193.769481 
L 283.784854 192.022712 
" clip-path="url(#p91e810a12d)" style="fill: #add8e6; stroke: #808080"/>
    <path d="M 210.656873 166.878238 
L 210.187102 167.13046 
L 208.581665 167.968583 
L 206.716827 168.929368 
L 205.810525 169.40323 
L 205.040087 169.880187 
L 204.802591 170.162151 
L 204.578165 170.544264 
L 204.427205 170.852912 
L 203.196411 173.441692 
L 202.854691 174.104811 
L 202.166608 175.528906 
L 201.883688 176.035993 
L 201.255691 175.714507 
L 199.675313 175.348487 
L 199.441828 175.330455 
L 199.199487 175.37807 
L 199.02896 175.484055 
L 198.355719 175.981204 
L 198.17453 176.101283 
L 197.751853 176.144177 
L 197.038052 176.034455 
L 196.180349 176.121449 
L 194.028767 176.502412 
L 192.057769 176.835939 
L 190.08272 176.921631 
L 189.664897 176.936962 
L 187.314914 177.062446 
L 186.619684 177.102637 
L 185.349232 177.2512 
L 183.176669 177.507359 
L 181.767955 177.679176 
L 181.280326 177.892155 
L 180.993719 178.143197 
L 180.97176 177.960463 
L 180.900437 177.790767 
L 180.785965 177.646981 
L 180.750464 177.615449 
L 180.558731 177.243981 
L 180.528947 176.923584 
L 180.542455 176.624149 
L 180.552032 176.523345 
L 180.583983 176.196317 
L 180.606722 175.271114 
L 180.772472 174.260525 
L 180.909372 173.649606 
L 180.953753 173.486007 
L 181.023067 173.26257 
L 181.109731 173.058416 
L 181.18413 172.883009 
L 181.221821 172.821961 
L 181.43732 172.473874 
L 181.696914 172.140301 
L 181.91066 171.893579 
L 182.121723 171.713071 
L 182.239265 171.64651 
L 182.533528 171.479227 
L 182.810222 171.355939 
L 183.160291 171.264068 
L 184.221576 171.113216 
L 185.650368 170.919649 
L 185.984108 170.874111 
L 186.98998 170.506635 
L 187.674629 169.968461 
L 188.062572 169.605785 
L 188.34807 169.40044 
L 188.596302 169.260242 
L 188.893927 169.116965 
L 189.333492 168.943962 
L 189.529995 168.850793 
L 189.636873 168.933665 
L 189.781078 168.971897 
L 189.949347 168.935645 
L 190.328249 168.579438 
L 190.638579 168.282616 
L 190.783041 168.13453 
L 190.835007 168.030081 
L 190.852798 167.92398 
L 190.831876 167.812722 
L 190.768124 167.696908 
L 190.940409 167.492491 
L 191.059881 167.249565 
L 191.3177 166.878492 
L 193.839646 164.579354 
L 195.238793 163.317742 
L 195.63369 162.945661 
L 197.550837 161.053198 
L 198.042124 160.56774 
L 198.638821 159.955404 
L 198.976478 159.580565 
L 199.830667 158.63113 
L 200.207818 158.114381 
L 200.796169 157.334499 
L 201.754745 155.929495 
L 202.744977 154.513844 
L 203.655218 153.059181 
L 204.060599 152.356024 
L 204.401349 151.653652 
L 206.244452 147.950936 
L 206.662569 146.97705 
L 206.909851 146.004864 
L 208.284877 140.184383 
L 208.383209 139.768675 
L 208.488683 138.202824 
L 208.417792 137.243925 
L 208.403575 137.03949 
L 208.299755 135.549282 
L 208.24183 134.256966 
L 208.221938 133.815259 
L 208.228541 133.687512 
L 208.311072 132.024473 
L 208.90467 128.973025 
L 209.043649 128.258968 
L 209.152049 127.772921 
L 209.784745 125.388104 
L 210.558672 123.816077 
L 211.090842 122.999438 
L 211.491064 122.375383 
L 211.713915 122.029596 
L 211.754878 121.965605 
L 212.079716 121.853861 
L 212.484832 121.745968 
L 212.549063 121.751627 
L 213.218925 122.327828 
L 213.565558 124.987322 
L 214.390125 132.544625 
L 214.485623 133.468878 
L 214.531463 133.912847 
L 214.565423 134.243189 
L 214.642675 134.992315 
L 214.77298 136.253938 
L 214.92572 137.581697 
L 215.173611 139.720631 
L 214.20577 146.049022 
L 214.051718 147.07717 
L 213.828699 148.564292 
L 213.595595 150.118237 
L 213.159262 153.039133 
L 212.940733 154.51628 
L 212.650934 156.639896 
L 212.408072 158.104228 
L 212.303671 158.81935 
L 212.238119 159.318154 
L 211.964052 161.207946 
L 211.773271 162.477011 
L 211.757364 162.789931 
L 211.725147 163.020875 
L 211.60697 163.940518 
L 211.383549 165.172773 
L 211.245685 165.719259 
L 211.080207 166.122872 
L 210.656873 166.878238 
" clip-path="url(#p91e810a12d)" style="fill: #add8e6; stroke: #808080"/>
    <path d="M 211.49793 200.293558 
L 211.902498 201.038738 
L 213.001309 203.793735 
L 213.210223 204.244814 
L 213.468172 204.841042 
L 213.925183 205.896582 
L 214.1582 206.550892 
L 215.078977 208.844748 
L 215.889277 210.696007 
L 216.451551 211.965068 
L 217.105025 213.430705 
L 217.213247 213.673516 
L 218.55501 216.672056 
L 218.820487 217.167482 
L 219.567129 218.662704 
L 219.74839 218.955672 
L 219.849783 219.119992 
L 219.705015 219.305003 
L 219.62459 219.525553 
L 219.616679 219.760523 
L 219.682028 219.98589 
L 219.522418 220.033261 
L 219.343917 220.09651 
L 219.082679 220.167635 
L 218.439666 220.343657 
L 217.47753 220.514229 
L 215.613661 220.816507 
L 211.368371 221.562669 
L 210.137105 221.785614 
L 209.625587 221.878599 
L 208.261361 222.113667 
L 207.009553 222.352483 
L 206.352785 222.477551 
L 205.684463 222.595036 
L 204.205841 222.855048 
L 203.80909 222.912516 
L 203.41234 222.97057 
L 202.736966 223.071666 
L 202.38531 223.065132 
L 201.368427 222.844445 
L 200.167463 222.479604 
L 199.08106 222.144873 
L 198.313558 221.876541 
L 198.090835 221.753013 
L 197.667606 221.500615 
L 197.869809 221.242786 
L 198.027236 221.019077 
L 198.518131 220.3766 
L 199.149652 219.672172 
L 199.607184 219.161623 
L 202.397077 216.048962 
L 203.110285 215.670034 
L 203.292522 214.814061 
L 203.410986 214.374858 
L 203.459023 214.196597 
L 204.146509 212.420378 
L 204.290576 212.00629 
L 204.935408 210.153448 
L 205.210481 209.363394 
L 205.396993 208.828479 
L 205.741441 207.838419 
L 206.403636 206.013644 
L 206.561611 205.571974 
L 206.613192 205.475727 
L 206.732269 205.237484 
L 207.199983 204.30153 
L 207.233972 204.241664 
L 207.446077 203.863103 
L 208.054551 202.779066 
L 208.21572 202.572331 
L 208.407062 202.403586 
L 208.598852 202.246558 
L 209.195985 201.756655 
L 209.636898 201.476401 
L 210.013707 201.236772 
L 210.242587 201.091346 
L 211.49793 200.293558 
" clip-path="url(#p91e810a12d)" style="fill: #add8e6; stroke: #808080"/>
    <path d="M 209.702729 196.014448 
L 210.297542 197.436338 
L 210.509089 197.942485 
L 211.49793 200.293558 
L 210.242587 201.091346 
L 210.013707 201.236772 
L 209.636898 201.476401 
L 209.195985 201.756655 
L 208.598852 202.246558 
L 208.407062 202.403586 
L 208.21572 202.572331 
L 208.054551 202.779066 
L 207.446077 203.863103 
L 207.233972 204.241664 
L 207.199983 204.30153 
L 206.732269 205.237484 
L 206.613192 205.475727 
L 206.561611 205.571974 
L 206.403636 206.013644 
L 205.741441 207.838419 
L 205.396993 208.828479 
L 205.210481 209.363394 
L 204.935408 210.153448 
L 204.290576 212.00629 
L 204.146509 212.420378 
L 203.459023 214.196597 
L 203.410986 214.374858 
L 203.292522 214.814061 
L 203.110285 215.670034 
L 202.397077 216.048962 
L 199.607184 219.161623 
L 199.149652 219.672172 
L 198.518131 220.3766 
L 198.027236 221.019077 
L 197.869809 221.242786 
L 197.667606 221.500615 
L 197.370605 221.323997 
L 196.913588 221.062913 
L 196.225803 220.605672 
L 195.036547 219.755653 
L 194.313462 219.197741 
L 193.856265 218.740964 
L 193.708569 218.510571 
L 193.560461 218.280178 
L 192.923696 216.726559 
L 192.429121 215.487134 
L 192.195564 214.913665 
L 191.715611 213.741571 
L 190.784593 211.416044 
L 190.371294 210.496268 
L 190.201749 210.119465 
L 190.087636 209.828034 
L 188.775996 206.757223 
L 187.947345 204.775299 
L 187.565945 203.914599 
L 185.412713 198.91403 
L 185.157713 198.321872 
L 184.912541 197.711522 
L 184.239347 196.202524 
L 183.981088 195.620335 
L 183.278045 194.040532 
L 182.987381 193.360595 
L 182.904704 193.113595 
L 182.800336 192.772917 
L 182.646122 192.286501 
L 182.431953 191.578209 
L 181.47226 188.438928 
L 180.780595 186.116751 
L 180.47279 184.252176 
L 180.454049 183.907724 
L 180.450284 183.6142 
L 180.396145 179.443349 
L 180.557941 178.759118 
L 180.732621 178.662504 
L 180.870927 178.517957 
L 180.960553 178.340159 
L 180.993719 178.143197 
L 181.280326 177.892155 
L 181.767955 177.679176 
L 183.176669 177.507359 
L 185.349232 177.2512 
L 186.619684 177.102637 
L 187.314914 177.062446 
L 189.664897 176.936962 
L 190.08272 176.921631 
L 192.057769 176.835939 
L 194.028767 176.502412 
L 196.180349 176.121449 
L 197.038052 176.034455 
L 197.751853 176.144177 
L 198.17453 176.101283 
L 198.355719 175.981204 
L 199.02896 175.484055 
L 199.199487 175.37807 
L 199.441828 175.330455 
L 199.675313 175.348487 
L 201.255691 175.714507 
L 201.883688 176.035993 
L 201.376833 176.953898 
L 200.87378 178.038185 
L 200.659228 178.689193 
L 200.407966 179.452219 
L 200.289979 180.177925 
L 200.280246 180.49434 
L 200.330271 180.830492 
L 200.530531 181.423393 
L 200.74048 181.953573 
L 200.990969 182.546319 
L 201.096717 182.795001 
L 202.392575 185.814256 
L 202.596021 186.236063 
L 202.694994 186.423246 
L 203.012791 186.944889 
L 203.638404 187.68764 
L 203.844557 187.918435 
L 205.976631 190.399 
L 206.335265 190.80978 
L 206.643491 191.162124 
L 207.302102 191.919414 
L 207.945368 192.506839 
L 208.314922 192.985547 
L 208.71648 193.694413 
L 208.890848 193.763009 
L 209.225442 193.72096 
L 209.081113 193.912996 
L 208.971805 194.113126 
L 208.950153 194.300681 
L 209.702729 196.014448 
" clip-path="url(#p91e810a12d)" style="fill: #add8e6; stroke: #808080"/>
    <path d="M 179.729504 178.451085 
L 179.868365 178.627608 
L 179.5706 178.454492 
L 179.368208 178.371903 
L 178.918566 178.348648 
L 178.239542 178.439745 
L 178.879798 178.188814 
L 179.253167 178.038873 
L 179.734555 177.803651 
L 179.659027 178.014802 
L 179.65723 178.238621 
L 179.729504 178.451085 
" clip-path="url(#p91e810a12d)" style="fill: #add8e6; stroke: #808080"/>
    <path d="M 179.868365 178.627608 
L 179.729504 178.451085 
L 179.65723 178.238621 
L 179.659027 178.014802 
L 179.734555 177.803651 
L 179.874012 177.630977 
L 180.032611 177.52621 
L 180.214411 177.470003 
L 180.404603 177.466501 
L 180.588369 177.516335 
L 180.750464 177.615449 
L 180.785965 177.646981 
L 180.900437 177.790767 
L 180.97176 177.960463 
L 180.993719 178.143197 
L 180.960553 178.340159 
L 180.870927 178.517957 
L 180.732621 178.662504 
L 180.557941 178.759118 
L 180.362098 178.80072 
L 180.183795 178.787781 
L 180.015233 178.728527 
L 179.868365 178.627608 
" clip-path="url(#p91e810a12d)" style="fill: #add8e6; stroke: #808080"/>
    <path d="M 180.183795 178.787781 
L 180.362098 178.80072 
L 180.557941 178.759118 
L 180.396145 179.443349 
L 180.183795 178.787781 
" clip-path="url(#p91e810a12d)" style="fill: #add8e6; stroke: #808080"/>
    <path d="M 180.750464 177.615449 
L 180.588369 177.516335 
L 180.404603 177.466501 
L 180.214411 177.470003 
L 180.032611 177.52621 
L 179.874012 177.630977 
L 180.069635 177.243109 
L 180.160729 176.869032 
L 180.326698 176.204123 
L 180.606722 175.271114 
L 180.583983 176.196317 
L 180.552032 176.523345 
L 180.542455 176.624149 
L 180.528947 176.923584 
L 180.558731 177.243981 
L 180.750464 177.615449 
" clip-path="url(#p91e810a12d)" style="fill: #add8e6; stroke: #808080"/>
    <path d="M 233.74522 195.165095 
L 234.042687 195.100289 
L 234.69159 194.982221 
L 235.045826 194.902586 
L 235.507445 194.799173 
L 236.607687 194.582409 
L 244.931048 192.941094 
L 245.771239 192.77552 
L 246.802735 192.565973 
L 251.2377 191.66465 
L 258.783958 190.131538 
L 259.22374 190.027577 
L 259.665216 189.938258 
L 259.799753 189.909697 
L 261.872108 189.468803 
L 262.625491 189.328076 
L 263.768529 189.115182 
L 263.988229 189.068179 
L 264.184065 189.025941 
L 268.14956 188.241345 
L 271.732824 187.537639 
L 273.571628 187.197042 
L 273.892149 187.136225 
L 274.365726 187.045608 
L 274.65744 186.988986 
L 274.901548 186.978221 
L 275.581438 186.902156 
L 276.261004 186.852456 
L 276.948508 186.837882 
L 277.458693 186.861977 
L 277.762174 187.126972 
L 278.838603 187.319103 
L 279.114349 187.413693 
L 279.423624 187.56266 
L 279.635286 187.700231 
L 279.973286 187.94519 
L 280.212455 188.183445 
L 280.466216 188.476726 
L 280.642616 188.781981 
L 280.912309 189.65818 
L 280.987523 191.10979 
L 280.81689 192.793646 
L 280.521538 194.363078 
L 279.530257 197.637439 
L 278.540659 199.932753 
L 277.32799 202.133298 
L 276.556469 203.272491 
L 275.153561 205.225235 
L 274.955198 205.752613 
L 273.889631 206.875777 
L 273.547812 207.226685 
L 272.039432 208.668272 
L 268.412986 211.845201 
L 264.878193 214.866527 
L 262.875705 216.578613 
L 260.459891 218.824027 
L 258.054541 221.38636 
L 256.872105 222.81803 
L 255.767748 224.205501 
L 253.661491 227.222077 
L 252.688712 228.815934 
L 251.593749 230.829686 
L 249.900205 234.420843 
L 245.92281 243.876553 
L 244.997944 246.057303 
L 244.177622 248.226583 
L 243.474566 250.498604 
L 243.020584 252.626867 
L 242.712453 254.523233 
L 242.573648 256.445423 
L 242.569574 258.262307 
L 242.716658 260.216979 
L 243.027283 262.574811 
L 243.595942 265.007399 
L 245.553289 272.34126 
L 246.010491 274.423247 
L 246.27291 276.505858 
L 246.396856 278.556103 
L 246.3776 280.255855 
L 246.227603 281.510743 
L 246.080511 282.51603 
L 245.806111 283.890254 
L 245.719426 284.212776 
L 245.446754 285.227839 
L 244.75164 286.27355 
L 244.186776 287.355168 
L 243.751522 288.015111 
L 243.273319 288.638864 
L 242.701992 288.860988 
L 242.0575 288.870079 
L 241.45752 288.631777 
L 241.108766 288.395602 
L 240.826 288.059614 
L 240.119324 286.261405 
L 239.645964 285.304971 
L 239.184277 284.133476 
L 238.794459 283.156854 
L 238.340231 281.998223 
L 238.011891 281.186042 
L 237.88079 280.882965 
L 237.543212 280.013981 
L 236.821966 278.155463 
L 236.134575 276.450928 
L 235.778691 275.520481 
L 235.366747 274.443151 
L 234.307572 271.722087 
L 233.299865 269.122724 
L 232.753186 267.626901 
L 232.625656 267.278109 
L 232.398057 266.538841 
L 232.000869 265.172613 
L 231.816338 264.378133 
L 231.346328 262.380536 
L 230.876444 260.421022 
L 230.392738 258.385969 
L 230.217933 257.669968 
L 230.042389 256.850265 
L 229.730507 255.497826 
L 229.505884 254.523015 
L 229.315793 253.790071 
L 229.211994 253.389644 
L 228.832646 251.926096 
L 228.633569 251.084789 
L 228.258896 249.535098 
L 228.210497 249.334874 
L 227.845894 247.97381 
L 227.548407 246.740846 
L 227.248173 245.420006 
L 227.138449 244.967452 
L 226.989088 244.350386 
L 226.708305 243.189434 
L 226.6774 243.051845 
L 226.467575 242.194165 
L 226.431591 242.01265 
L 226.296942 241.489867 
L 226.160936 240.928418 
L 226.100022 240.676088 
L 226.032855 240.399169 
L 225.532579 238.31436 
L 225.369642 237.699093 
L 225.239349 237.251291 
L 224.948856 236.010686 
L 224.928407 235.924037 
L 224.89794 235.794063 
L 224.743939 235.139513 
L 224.699901 234.8842 
L 224.236245 232.785211 
L 224.157007 232.466145 
L 223.756659 230.856768 
L 223.437439 229.643203 
L 223.062939 228.133346 
L 222.897371 227.464184 
L 222.595131 226.411101 
L 222.406027 225.720334 
L 222.225027 225.250425 
L 222.044031 224.781102 
L 221.386494 223.347126 
L 221.008434 222.535669 
L 220.814054 221.999009 
L 220.663697 221.582906 
L 220.561302 221.098688 
L 220.45932 220.615056 
L 220.41752 220.415395 
L 220.629426 220.369031 
L 220.819324 220.263561 
L 220.971186 220.108994 
L 221.072287 219.917088 
L 221.114444 219.704861 
L 221.344208 219.707656 
L 221.574798 219.711035 
L 221.819671 219.673942 
L 222.675946 219.491385 
L 223.470497 219.321324 
L 225.446095 218.938968 
L 227.704342 218.48833 
L 228.251256 218.394033 
L 232.0441 217.691858 
L 232.5574 217.515634 
L 232.801761 217.317412 
L 233.011312 217.048992 
L 233.126875 216.745716 
L 233.23501 216.307707 
L 233.227604 216.049349 
L 233.203979 215.220963 
L 233.185283 213.219592 
L 233.163187 212.873396 
L 233.167983 212.697611 
L 233.172025 212.544093 
L 232.759959 208.282398 
L 232.469944 204.85405 
L 232.18869 201.98052 
L 231.595047 196.667709 
L 231.700664 196.476371 
L 231.708298 196.156446 
L 231.692362 195.934441 
L 231.744113 195.895022 
L 231.832242 195.771704 
L 231.998006 195.721377 
L 232.194087 195.624083 
L 232.307601 195.586226 
L 232.439622 195.541866 
L 232.654373 195.359556 
L 233.74522 195.165095 
" clip-path="url(#p91e810a12d)" style="fill: #add8e6; stroke: #808080"/>
    <path d="M 242.819912 292.986032 
L 242.908914 292.78174 
L 244.788826 288.496913 
L 246.082317 284.876606 
L 246.634975 282.432811 
L 246.889712 280.579385 
L 246.693101 283.477866 
L 245.805887 287.031253 
L 245.067478 289.346743 
L 243.788323 293.595082 
L 243.744904 294.183462 
L 243.764059 294.764025 
L 243.817872 295.235501 
L 243.824857 295.488 
L 243.648104 295.079023 
L 242.819912 292.986032 
" clip-path="url(#p91e810a12d)" style="fill: #add8e6; stroke: #808080"/>
    <path d="M 242.613659 292.019259 
L 242.520056 292.228243 
L 241.723267 290.21461 
L 241.78433 290.120671 
L 242.857997 289.093677 
L 243.273319 288.638864 
L 243.751522 288.015111 
L 244.186776 287.355168 
L 244.75164 286.27355 
L 245.446754 285.227839 
L 244.8983 286.802732 
L 244.230993 288.431321 
L 242.613659 292.019259 
" clip-path="url(#p91e810a12d)" style="fill: #add8e6; stroke: #808080"/>
    <path d="M 290.951329 130.382034 
L 289.93028 130.736968 
L 289.213605 130.979583 
L 287.562807 131.558104 
L 287.40128 131.385217 
L 287.033615 130.993303 
L 286.84514 130.763086 
L 286.719521 130.495163 
L 286.652103 130.152049 
L 286.645128 129.911853 
L 286.66981 129.659834 
L 286.698142 129.021107 
L 287.045878 127.510667 
L 288.038858 123.599395 
L 288.821665 119.991731 
L 288.929933 118.146367 
L 288.947439 116.116747 
L 289.195365 115.663017 
L 290.666607 128.001864 
L 290.951329 130.382034 
" clip-path="url(#p91e810a12d)" style="fill: #add8e6; stroke: #808080"/>
    <path d="M 289.93028 130.736968 
L 290.951329 130.382034 
L 291.971382 138.909316 
L 292.504836 143.56544 
L 292.663581 144.870881 
L 292.186693 143.462216 
L 291.518401 139.350844 
L 291.285274 138.449923 
L 290.987171 137.567968 
L 290.496843 136.196842 
L 289.947701 134.839974 
L 288.953967 132.243652 
L 288.903761 132.001257 
L 288.93027 131.680681 
L 288.959533 131.445051 
L 289.042672 131.195179 
L 289.213605 130.979583 
L 289.93028 130.736968 
" clip-path="url(#p91e810a12d)" style="fill: #add8e6; stroke: #808080"/>
    <path d="M 281.921925 133.484566 
L 284.057748 132.438669 
L 284.651741 132.190029 
L 284.973903 132.020803 
L 285.272362 131.779591 
L 285.582549 131.475647 
L 285.884924 131.051034 
L 286.17691 130.34991 
L 286.546694 129.401862 
L 286.698142 129.021107 
L 286.66981 129.659834 
L 286.645128 129.911853 
L 286.652103 130.152049 
L 286.719521 130.495163 
L 286.84514 130.763086 
L 287.033615 130.993303 
L 287.40128 131.385217 
L 287.562807 131.558104 
L 285.113458 132.39473 
L 281.921925 133.484566 
" clip-path="url(#p91e810a12d)" style="fill: #add8e6; stroke: #808080"/>
    <path d="M 289.947701 134.839974 
L 289.10438 133.402062 
L 288.778676 133.003565 
L 288.329982 132.631844 
L 288.037477 132.436544 
L 287.744027 132.32796 
L 287.354647 132.213836 
L 286.80328 132.159428 
L 286.451298 132.150641 
L 286.026255 132.204788 
L 285.113458 132.39473 
L 287.562807 131.558104 
L 289.213605 130.979583 
L 289.042672 131.195179 
L 288.959533 131.445051 
L 288.93027 131.680681 
L 288.903761 132.001257 
L 288.953967 132.243652 
L 289.947701 134.839974 
" clip-path="url(#p91e810a12d)" style="fill: #add8e6; stroke: #808080"/>
    <path d="M 280.987523 191.10979 
L 280.912309 189.65818 
L 280.642616 188.781981 
L 280.466216 188.476726 
L 280.212455 188.183445 
L 279.973286 187.94519 
L 279.635286 187.700231 
L 279.423624 187.56266 
L 279.114349 187.413693 
L 278.838603 187.319103 
L 277.762174 187.126972 
L 277.458693 186.861977 
L 278.031796 186.863598 
L 282.71766 187.425185 
L 282.082429 187.683918 
L 281.703712 187.948829 
L 281.491644 188.18565 
L 281.359644 188.481967 
L 281.201969 189.230098 
L 280.987523 191.10979 
" clip-path="url(#p91e810a12d)" style="fill: #add8e6; stroke: #808080"/>
    <path d="M 243.273319 288.638864 
L 242.857997 289.093677 
L 241.78433 290.120671 
L 241.723267 290.21461 
L 241.633559 289.979366 
L 240.826 288.059614 
L 241.108766 288.395602 
L 241.45752 288.631777 
L 242.0575 288.870079 
L 242.701992 288.860988 
L 243.273319 288.638864 
" clip-path="url(#p91e810a12d)" style="fill: #add8e6; stroke: #808080"/>
    <path d="M 283.324762 185.267644 
L 283.14197 185.765094 
L 283.02329 186.104138 
L 282.981094 186.415391 
L 282.999716 186.691874 
L 283.106504 186.986813 
L 283.294422 187.288513 
L 283.53394 187.50743 
L 282.71766 187.425185 
L 278.031796 186.863598 
L 279.070532 186.614084 
L 280.008739 186.715855 
L 280.436404 186.685729 
L 280.941643 186.583866 
L 281.564005 186.29354 
L 282.156875 185.924799 
L 283.324762 185.267644 
" clip-path="url(#p91e810a12d)" style="fill: #add8e6; stroke: #808080"/>
    <path d="M 227.704342 218.48833 
L 225.446095 218.938968 
L 223.470497 219.321324 
L 222.675946 219.491385 
L 221.819671 219.673942 
L 221.574798 219.711035 
L 221.344208 219.707656 
L 221.114444 219.704861 
L 221.094424 219.491656 
L 221.014747 219.293286 
L 220.882049 219.124963 
L 220.707081 219.001301 
L 220.742232 218.787338 
L 220.796752 218.44676 
L 220.764239 218.320308 
L 219.656462 214.051402 
L 219.342872 212.785084 
L 219.283337 212.443691 
L 219.048129 211.093344 
L 218.874568 209.17917 
L 218.76754 207.474539 
L 218.26926 206.788837 
L 217.534535 205.671479 
L 216.75104 204.360925 
L 216.66599 204.153782 
L 216.577671 203.823025 
L 216.491298 203.587763 
L 216.443974 203.4637 
L 216.0315 201.771739 
L 215.687433 200.49438 
L 215.553715 199.995611 
L 215.442578 199.212024 
L 215.220177 197.867493 
L 215.114209 197.553196 
L 215.013455 197.194353 
L 215.134856 197.176398 
L 215.984629 197.038993 
L 218.364248 196.605031 
L 218.954878 196.54518 
L 219.28662 196.511918 
L 219.87972 196.452059 
L 221.714581 196.26644 
L 223.971531 196.105851 
L 224.314433 196.08661 
L 224.98747 196.047583 
L 226.952602 195.9166 
L 230.037046 195.738713 
L 230.247803 195.725157 
L 230.417232 195.792586 
L 230.716909 195.775233 
L 230.925203 195.764028 
L 230.950096 195.824297 
L 231.092586 195.965634 
L 231.199771 196.009237 
L 231.307169 196.250288 
L 231.458652 196.501159 
L 231.595047 196.667709 
L 232.18869 201.98052 
L 232.469944 204.85405 
L 232.759959 208.282398 
L 233.172025 212.544093 
L 233.167983 212.697611 
L 233.163187 212.873396 
L 233.185283 213.219592 
L 233.203979 215.220963 
L 233.227604 216.049349 
L 233.23501 216.307707 
L 233.126875 216.745716 
L 233.011312 217.048992 
L 232.801761 217.317412 
L 232.5574 217.515634 
L 232.0441 217.691858 
L 228.251256 218.394033 
L 227.704342 218.48833 
" clip-path="url(#p91e810a12d)" style="fill: #add8e6; stroke: #808080"/>
    <path d="M 209.225442 193.72096 
L 208.890848 193.763009 
L 208.71648 193.694413 
L 208.314922 192.985547 
L 207.945368 192.506839 
L 208.23477 192.495983 
L 208.605363 192.645412 
L 209.589511 193.09292 
L 209.591124 193.214782 
L 209.48984 193.479923 
L 209.305398 193.614665 
L 209.225442 193.72096 
" clip-path="url(#p91e810a12d)" style="fill: #add8e6; stroke: #808080"/>
    <path d="M 189.529995 168.850793 
L 189.457532 168.713326 
L 189.46809 168.529908 
L 189.523703 168.406114 
L 189.593898 168.339108 
L 189.919489 168.051614 
L 190.024995 167.954034 
L 190.22328 167.770631 
L 190.391162 167.60724 
L 190.512126 167.584022 
L 190.623374 167.614737 
L 190.704164 167.647887 
L 190.768124 167.696908 
L 190.831876 167.812722 
L 190.852798 167.92398 
L 190.835007 168.030081 
L 190.783041 168.13453 
L 190.638579 168.282616 
L 190.328249 168.579438 
L 189.949347 168.935645 
L 189.781078 168.971897 
L 189.636873 168.933665 
L 189.529995 168.850793 
" clip-path="url(#p91e810a12d)" style="fill: #add8e6; stroke: #808080"/>
    <path d="M 210.656873 166.878238 
L 211.080207 166.122872 
L 211.245685 165.719259 
L 211.383549 165.172773 
L 211.432599 165.72278 
L 211.514303 166.049458 
L 211.629943 166.301036 
L 211.808427 166.506133 
L 212.173867 166.728225 
L 213.23616 166.910067 
L 213.502241 167.085595 
L 211.749623 166.925233 
L 211.124098 166.867414 
L 210.656873 166.878238 
" clip-path="url(#p91e810a12d)" style="fill: #add8e6; stroke: #808080"/>
    <path d="M 221.656446 179.431395 
L 221.542457 179.447571 
L 221.418748 179.515338 
L 221.33345 179.622239 
L 221.299171 179.719019 
L 221.283297 179.383349 
L 221.254212 178.772933 
L 221.24805 178.645812 
L 221.240157 178.491745 
L 221.20487 178.135629 
L 221.157311 177.804745 
L 221.37954 178.03958 
L 221.554589 178.327294 
L 221.738611 178.850511 
L 221.85276 179.279031 
L 221.917429 179.551857 
L 221.843122 179.487642 
L 221.769728 179.452132 
L 221.656446 179.431395 
" clip-path="url(#p91e810a12d)" style="fill: #add8e6; stroke: #808080"/>
    <path d="M 221.299171 179.719019 
L 221.33345 179.622239 
L 221.418748 179.515338 
L 221.542457 179.447571 
L 221.656446 179.431395 
L 221.769728 179.452132 
L 221.843122 179.487642 
L 221.917429 179.551857 
L 221.958365 179.608561 
L 221.998626 179.712725 
L 222.006279 179.79004 
L 221.997053 179.867408 
L 221.975432 179.930752 
L 221.9353 179.999429 
L 221.831432 180.092326 
L 221.740977 180.130108 
L 221.594026 180.138185 
L 221.507077 180.112678 
L 221.42293 180.061383 
L 221.346906 179.974908 
L 221.303357 179.872512 
L 221.299171 179.719019 
" clip-path="url(#p91e810a12d)" style="fill: #add8e6; stroke: #808080"/>
    <path d="M 221.303357 179.872512 
L 221.346906 179.974908 
L 221.42293 180.061383 
L 221.507077 180.112678 
L 221.594026 180.138185 
L 221.740977 180.130108 
L 221.831432 180.092326 
L 221.835427 180.316127 
L 221.551204 181.055838 
L 221.186713 181.931728 
L 220.673079 182.642861 
L 220.74639 182.388937 
L 220.90931 181.827135 
L 220.97419 181.510546 
L 221.084321 181.050856 
L 221.207352 180.372585 
L 221.303357 179.872512 
" clip-path="url(#p91e810a12d)" style="fill: #add8e6; stroke: #808080"/>
    <path d="M 221.9353 179.999429 
L 221.975432 179.930752 
L 221.997053 179.867408 
L 222.006279 179.79004 
L 221.998626 179.712725 
L 221.958365 179.608561 
L 222.173236 179.597341 
L 222.388107 179.586121 
L 222.64594 179.621052 
L 223.332396 179.670456 
L 222.664251 179.814927 
L 222.109241 179.933262 
L 221.9353 179.999429 
" clip-path="url(#p91e810a12d)" style="fill: #add8e6; stroke: #808080"/>
    <path d="M 214.77298 136.253938 
L 216.024481 136.155121 
L 216.250407 136.133909 
L 216.043336 136.26111 
L 215.877349 136.362988 
L 215.515529 136.631873 
L 215.328452 136.967005 
L 215.235935 137.396172 
L 215.291575 138.078572 
L 215.362549 139.189803 
L 215.173611 139.720631 
L 214.92572 137.581697 
L 214.77298 136.253938 
" clip-path="url(#p91e810a12d)" style="fill: #add8e6; stroke: #808080"/>
    <path d="M 231.793107 195.244518 
L 231.960773 195.27504 
L 232.002361 195.276666 
L 232.180244 195.283134 
L 232.514183 195.29438 
L 232.654373 195.359556 
L 232.439622 195.541866 
L 232.307601 195.586226 
L 232.194087 195.624083 
L 231.998006 195.721377 
L 231.832242 195.771704 
L 231.877941 195.640904 
L 231.886561 195.502604 
L 231.857722 195.366767 
L 231.793107 195.244518 
" clip-path="url(#p91e810a12d)" style="fill: #add8e6; stroke: #808080"/>
    <path d="M 230.870297 195.45719 
L 230.931515 195.2865 
L 230.973764 195.236565 
L 231.048826 195.147271 
L 231.207467 195.058298 
L 231.369181 195.029663 
L 231.414492 195.036551 
L 231.531474 195.053758 
L 231.677868 195.127703 
L 231.793107 195.244518 
L 231.857722 195.366767 
L 231.886561 195.502604 
L 231.877941 195.640904 
L 231.832242 195.771704 
L 231.744113 195.895022 
L 231.692362 195.934441 
L 231.62336 195.98739 
L 231.480249 196.039988 
L 231.278924 196.041797 
L 231.199771 196.009237 
L 231.092586 195.965634 
L 230.950096 195.824297 
L 230.925203 195.764028 
L 230.873342 195.638809 
L 230.870297 195.45719 
" clip-path="url(#p91e810a12d)" style="fill: #add8e6; stroke: #808080"/>
    <path d="M 230.870297 195.45719 
L 230.873342 195.638809 
L 230.925203 195.764028 
L 230.716909 195.775233 
L 230.417232 195.792586 
L 230.247803 195.725157 
L 230.400216 195.619213 
L 230.676604 195.528697 
L 230.870297 195.45719 
" clip-path="url(#p91e810a12d)" style="fill: #add8e6; stroke: #808080"/>
    <path d="M 231.199771 196.009237 
L 231.278924 196.041797 
L 231.480249 196.039988 
L 231.62336 195.98739 
L 231.692362 195.934441 
L 231.708298 196.156446 
L 231.700664 196.476371 
L 231.595047 196.667709 
L 231.458652 196.501159 
L 231.307169 196.250288 
L 231.199771 196.009237 
" clip-path="url(#p91e810a12d)" style="fill: #add8e6; stroke: #808080"/>
    <path d="M 212.484832 121.745968 
L 212.079716 121.853861 
L 211.754878 121.965605 
L 211.899215 121.52163 
L 212.062553 120.966861 
L 212.030229 121.162066 
L 212.062942 121.35707 
L 212.157334 121.531375 
L 212.303467 121.665677 
L 212.484832 121.745968 
" clip-path="url(#p91e810a12d)" style="fill: #add8e6; stroke: #808080"/>
    <path d="M 213.168441 121.448548 
L 213.233304 121.260273 
L 213.208556 121.773598 
L 213.218925 122.327828 
L 212.549063 121.751627 
L 212.684112 121.762925 
L 212.87825 121.714864 
L 213.045443 121.605952 
L 213.168441 121.448548 
" clip-path="url(#p91e810a12d)" style="fill: #add8e6; stroke: #808080"/>
    <path d="M 213.233304 121.260273 
L 213.168441 121.448548 
L 213.045443 121.605952 
L 212.87825 121.714864 
L 212.684112 121.762925 
L 212.549063 121.751627 
L 212.484832 121.745968 
L 212.303467 121.665677 
L 212.157334 121.531375 
L 212.062942 121.35707 
L 212.030229 121.162066 
L 212.062553 120.966861 
L 212.156685 120.792556 
L 212.257242 120.699086 
L 212.302393 120.657932 
L 212.48408 120.577099 
L 212.682016 120.559493 
L 212.876041 120.607519 
L 213.043908 120.715389 
L 213.167472 120.872611 
L 213.232682 121.060483 
L 213.233304 121.260273 
" clip-path="url(#p91e810a12d)" style="fill: #add8e6; stroke: #808080"/>
    <path d="M 213.167472 120.872611 
L 213.043908 120.715389 
L 212.876041 120.607519 
L 212.682016 120.559493 
L 212.48408 120.577099 
L 212.302393 120.657932 
L 212.257242 120.699086 
L 212.455572 120.410792 
L 212.70773 119.959451 
L 212.881897 119.57866 
L 212.938009 120.017911 
L 213.09389 120.639652 
L 213.167472 120.872611 
" clip-path="url(#p91e810a12d)" style="fill: #add8e6; stroke: #808080"/>
    <path d="M 220.41752 220.415395 
L 220.192239 220.397937 
L 219.982809 220.314223 
L 219.807374 220.172985 
L 219.682028 219.98589 
L 219.616679 219.760523 
L 219.62459 219.525553 
L 219.705015 219.305003 
L 219.849783 219.119992 
L 220.039606 218.991087 
L 220.259685 218.925363 
L 220.489039 218.928746 
L 220.707081 219.001301 
L 220.882049 219.124963 
L 221.014747 219.293286 
L 221.094424 219.491656 
L 221.114444 219.704861 
L 221.072287 219.917088 
L 220.971186 220.108994 
L 220.819324 220.263561 
L 220.629426 220.369031 
L 220.41752 220.415395 
" clip-path="url(#p91e810a12d)" style="fill: #add8e6; stroke: #808080"/>
    <path d="M 209.589511 193.09292 
L 209.951094 193.257023 
L 210.235587 193.38914 
L 209.653525 193.422583 
L 209.48984 193.479923 
L 209.591124 193.214782 
L 209.589511 193.09292 
" clip-path="url(#p91e810a12d)" style="fill: #add8e6; stroke: #808080"/>
   </g>
   <g id="text_1">
    <!-- Highlighted Polygons with Markers -->
    <g transform="translate(98.03 21.472) scale(0.16 -0.16)">
     <defs>
      <path id="DejaVuSans-48" d="M 628 4666 
L 1259 4666 
L 1259 2753 
L 3553 2753 
L 3553 4666 
L 4184 4666 
L 4184 0 
L 3553 0 
L 3553 2222 
L 1259 2222 
L 1259 0 
L 628 0 
L 628 4666 
z
" transform="scale(0.015625)"/>
      <path id="DejaVuSans-69" d="M 603 3500 
L 1178 3500 
L 1178 0 
L 603 0 
L 603 3500 
z
M 603 4863 
L 1178 4863 
L 1178 4134 
L 603 4134 
L 603 4863 
z
" transform="scale(0.015625)"/>
      <path id="DejaVuSans-67" d="M 2906 1791 
Q 2906 2416 2648 2759 
Q 2391 3103 1925 3103 
Q 1463 3103 1205 2759 
Q 947 2416 947 1791 
Q 947 1169 1205 825 
Q 1463 481 1925 481 
Q 2391 481 2648 825 
Q 2906 1169 2906 1791 
z
M 3481 434 
Q 3481 -459 3084 -895 
Q 2688 -1331 1869 -1331 
Q 1566 -1331 1297 -1286 
Q 1028 -1241 775 -1147 
L 775 -588 
Q 1028 -725 1275 -790 
Q 1522 -856 1778 -856 
Q 2344 -856 2625 -561 
Q 2906 -266 2906 331 
L 2906 616 
Q 2728 306 2450 153 
Q 2172 0 1784 0 
Q 1141 0 747 490 
Q 353 981 353 1791 
Q 353 2603 747 3093 
Q 1141 3584 1784 3584 
Q 2172 3584 2450 3431 
Q 2728 3278 2906 2969 
L 2906 3500 
L 3481 3500 
L 3481 434 
z
" transform="scale(0.015625)"/>
      <path id="DejaVuSans-68" d="M 3513 2113 
L 3513 0 
L 2938 0 
L 2938 2094 
Q 2938 2591 2744 2837 
Q 2550 3084 2163 3084 
Q 1697 3084 1428 2787 
Q 1159 2491 1159 1978 
L 1159 0 
L 581 0 
L 581 4863 
L 1159 4863 
L 1159 2956 
Q 1366 3272 1645 3428 
Q 1925 3584 2291 3584 
Q 2894 3584 3203 3211 
Q 3513 2838 3513 2113 
z
" transform="scale(0.015625)"/>
      <path id="DejaVuSans-6c" d="M 603 4863 
L 1178 4863 
L 1178 0 
L 603 0 
L 603 4863 
z
" transform="scale(0.015625)"/>
      <path id="DejaVuSans-74" d="M 1172 4494 
L 1172 3500 
L 2356 3500 
L 2356 3053 
L 1172 3053 
L 1172 1153 
Q 1172 725 1289 603 
Q 1406 481 1766 481 
L 2356 481 
L 2356 0 
L 1766 0 
Q 1100 0 847 248 
Q 594 497 594 1153 
L 594 3053 
L 172 3053 
L 172 3500 
L 594 3500 
L 594 4494 
L 1172 4494 
z
" transform="scale(0.015625)"/>
      <path id="DejaVuSans-65" d="M 3597 1894 
L 3597 1613 
L 953 1613 
Q 991 1019 1311 708 
Q 1631 397 2203 397 
Q 2534 397 2845 478 
Q 3156 559 3463 722 
L 3463 178 
Q 3153 47 2828 -22 
Q 2503 -91 2169 -91 
Q 1331 -91 842 396 
Q 353 884 353 1716 
Q 353 2575 817 3079 
Q 1281 3584 2069 3584 
Q 2775 3584 3186 3129 
Q 3597 2675 3597 1894 
z
M 3022 2063 
Q 3016 2534 2758 2815 
Q 2500 3097 2075 3097 
Q 1594 3097 1305 2825 
Q 1016 2553 972 2059 
L 3022 2063 
z
" transform="scale(0.015625)"/>
      <path id="DejaVuSans-64" d="M 2906 2969 
L 2906 4863 
L 3481 4863 
L 3481 0 
L 2906 0 
L 2906 525 
Q 2725 213 2448 61 
Q 2172 -91 1784 -91 
Q 1150 -91 751 415 
Q 353 922 353 1747 
Q 353 2572 751 3078 
Q 1150 3584 1784 3584 
Q 2172 3584 2448 3432 
Q 2725 3281 2906 2969 
z
M 947 1747 
Q 947 1113 1208 752 
Q 1469 391 1925 391 
Q 2381 391 2643 752 
Q 2906 1113 2906 1747 
Q 2906 2381 2643 2742 
Q 2381 3103 1925 3103 
Q 1469 3103 1208 2742 
Q 947 2381 947 1747 
z
" transform="scale(0.015625)"/>
      <path id="DejaVuSans-20" transform="scale(0.015625)"/>
      <path id="DejaVuSans-50" d="M 1259 4147 
L 1259 2394 
L 2053 2394 
Q 2494 2394 2734 2622 
Q 2975 2850 2975 3272 
Q 2975 3691 2734 3919 
Q 2494 4147 2053 4147 
L 1259 4147 
z
M 628 4666 
L 2053 4666 
Q 2838 4666 3239 4311 
Q 3641 3956 3641 3272 
Q 3641 2581 3239 2228 
Q 2838 1875 2053 1875 
L 1259 1875 
L 1259 0 
L 628 0 
L 628 4666 
z
" transform="scale(0.015625)"/>
      <path id="DejaVuSans-6f" d="M 1959 3097 
Q 1497 3097 1228 2736 
Q 959 2375 959 1747 
Q 959 1119 1226 758 
Q 1494 397 1959 397 
Q 2419 397 2687 759 
Q 2956 1122 2956 1747 
Q 2956 2369 2687 2733 
Q 2419 3097 1959 3097 
z
M 1959 3584 
Q 2709 3584 3137 3096 
Q 3566 2609 3566 1747 
Q 3566 888 3137 398 
Q 2709 -91 1959 -91 
Q 1206 -91 779 398 
Q 353 888 353 1747 
Q 353 2609 779 3096 
Q 1206 3584 1959 3584 
z
" transform="scale(0.015625)"/>
      <path id="DejaVuSans-79" d="M 2059 -325 
Q 1816 -950 1584 -1140 
Q 1353 -1331 966 -1331 
L 506 -1331 
L 506 -850 
L 844 -850 
Q 1081 -850 1212 -737 
Q 1344 -625 1503 -206 
L 1606 56 
L 191 3500 
L 800 3500 
L 1894 763 
L 2988 3500 
L 3597 3500 
L 2059 -325 
z
" transform="scale(0.015625)"/>
      <path id="DejaVuSans-6e" d="M 3513 2113 
L 3513 0 
L 2938 0 
L 2938 2094 
Q 2938 2591 2744 2837 
Q 2550 3084 2163 3084 
Q 1697 3084 1428 2787 
Q 1159 2491 1159 1978 
L 1159 0 
L 581 0 
L 581 3500 
L 1159 3500 
L 1159 2956 
Q 1366 3272 1645 3428 
Q 1925 3584 2291 3584 
Q 2894 3584 3203 3211 
Q 3513 2838 3513 2113 
z
" transform="scale(0.015625)"/>
      <path id="DejaVuSans-73" d="M 2834 3397 
L 2834 2853 
Q 2591 2978 2328 3040 
Q 2066 3103 1784 3103 
Q 1356 3103 1142 2972 
Q 928 2841 928 2578 
Q 928 2378 1081 2264 
Q 1234 2150 1697 2047 
L 1894 2003 
Q 2506 1872 2764 1633 
Q 3022 1394 3022 966 
Q 3022 478 2636 193 
Q 2250 -91 1575 -91 
Q 1294 -91 989 -36 
Q 684 19 347 128 
L 347 722 
Q 666 556 975 473 
Q 1284 391 1588 391 
Q 1994 391 2212 530 
Q 2431 669 2431 922 
Q 2431 1156 2273 1281 
Q 2116 1406 1581 1522 
L 1381 1569 
Q 847 1681 609 1914 
Q 372 2147 372 2553 
Q 372 3047 722 3315 
Q 1072 3584 1716 3584 
Q 2034 3584 2315 3537 
Q 2597 3491 2834 3397 
z
" transform="scale(0.015625)"/>
      <path id="DejaVuSans-77" d="M 269 3500 
L 844 3500 
L 1563 769 
L 2278 3500 
L 2956 3500 
L 3675 769 
L 4391 3500 
L 4966 3500 
L 4050 0 
L 3372 0 
L 2619 2869 
L 1863 0 
L 1184 0 
L 269 3500 
z
" transform="scale(0.015625)"/>
      <path id="DejaVuSans-4d" d="M 628 4666 
L 1569 4666 
L 2759 1491 
L 3956 4666 
L 4897 4666 
L 4897 0 
L 4281 0 
L 4281 4097 
L 3078 897 
L 2444 897 
L 1241 4097 
L 1241 0 
L 628 0 
L 628 4666 
z
" transform="scale(0.015625)"/>
      <path id="DejaVuSans-61" d="M 2194 1759 
Q 1497 1759 1228 1600 
Q 959 1441 959 1056 
Q 959 750 1161 570 
Q 1363 391 1709 391 
Q 2188 391 2477 730 
Q 2766 1069 2766 1631 
L 2766 1759 
L 2194 1759 
z
M 3341 1997 
L 3341 0 
L 2766 0 
L 2766 531 
Q 2569 213 2275 61 
Q 1981 -91 1556 -91 
Q 1019 -91 701 211 
Q 384 513 384 1019 
Q 384 1609 779 1909 
Q 1175 2209 1959 2209 
L 2766 2209 
L 2766 2266 
Q 2766 2663 2505 2880 
Q 2244 3097 1772 3097 
Q 1472 3097 1187 3025 
Q 903 2953 641 2809 
L 641 3341 
Q 956 3463 1253 3523 
Q 1550 3584 1831 3584 
Q 2591 3584 2966 3190 
Q 3341 2797 3341 1997 
z
" transform="scale(0.015625)"/>
      <path id="DejaVuSans-72" d="M 2631 2963 
Q 2534 3019 2420 3045 
Q 2306 3072 2169 3072 
Q 1681 3072 1420 2755 
Q 1159 2438 1159 1844 
L 1159 0 
L 581 0 
L 581 3500 
L 1159 3500 
L 1159 2956 
Q 1341 3275 1631 3429 
Q 1922 3584 2338 3584 
Q 2397 3584 2469 3576 
Q 2541 3569 2628 3553 
L 2631 2963 
z
" transform="scale(0.015625)"/>
      <path id="DejaVuSans-6b" d="M 581 4863 
L 1159 4863 
L 1159 1991 
L 2875 3500 
L 3609 3500 
L 1753 1863 
L 3688 0 
L 2938 0 
L 1159 1709 
L 1159 0 
L 581 0 
L 581 4863 
z
" transform="scale(0.015625)"/>
     </defs>
     <use xlink:href="#DejaVuSans-48"/>
     <use xlink:href="#DejaVuSans-69" transform="translate(75.195312 0)"/>
     <use xlink:href="#DejaVuSans-67" transform="translate(102.978516 0)"/>
     <use xlink:href="#DejaVuSans-68" transform="translate(166.455078 0)"/>
     <use xlink:href="#DejaVuSans-6c" transform="translate(229.833984 0)"/>
     <use xlink:href="#DejaVuSans-69" transform="translate(257.617188 0)"/>
     <use xlink:href="#DejaVuSans-67" transform="translate(285.400391 0)"/>
     <use xlink:href="#DejaVuSans-68" transform="translate(348.876953 0)"/>
     <use xlink:href="#DejaVuSans-74" transform="translate(412.255859 0)"/>
     <use xlink:href="#DejaVuSans-65" transform="translate(451.464844 0)"/>
     <use xlink:href="#DejaVuSans-64" transform="translate(512.988281 0)"/>
     <use xlink:href="#DejaVuSans-20" transform="translate(576.464844 0)"/>
     <use xlink:href="#DejaVuSans-50" transform="translate(608.251953 0)"/>
     <use xlink:href="#DejaVuSans-6f" transform="translate(664.929688 0)"/>
     <use xlink:href="#DejaVuSans-6c" transform="translate(726.111328 0)"/>
     <use xlink:href="#DejaVuSans-79" transform="translate(753.894531 0)"/>
     <use xlink:href="#DejaVuSans-67" transform="translate(813.074219 0)"/>
     <use xlink:href="#DejaVuSans-6f" transform="translate(876.550781 0)"/>
     <use xlink:href="#DejaVuSans-6e" transform="translate(937.732422 0)"/>
     <use xlink:href="#DejaVuSans-73" transform="translate(1001.111328 0)"/>
     <use xlink:href="#DejaVuSans-20" transform="translate(1053.210938 0)"/>
     <use xlink:href="#DejaVuSans-77" transform="translate(1084.998047 0)"/>
     <use xlink:href="#DejaVuSans-69" transform="translate(1166.785156 0)"/>
     <use xlink:href="#DejaVuSans-74" transform="translate(1194.568359 0)"/>
     <use xlink:href="#DejaVuSans-68" transform="translate(1233.777344 0)"/>
     <use xlink:href="#DejaVuSans-20" transform="translate(1297.15625 0)"/>
     <use xlink:href="#DejaVuSans-4d" transform="translate(1328.943359 0)"/>
     <use xlink:href="#DejaVuSans-61" transform="translate(1415.222656 0)"/>
     <use xlink:href="#DejaVuSans-72" transform="translate(1476.501953 0)"/>
     <use xlink:href="#DejaVuSans-6b" transform="translate(1517.615234 0)"/>
     <use xlink:href="#DejaVuSans-65" transform="translate(1571.900391 0)"/>
     <use xlink:href="#DejaVuSans-72" transform="translate(1633.423828 0)"/>
     <use xlink:href="#DejaVuSans-73" transform="translate(1674.537109 0)"/>
    </g>
   </g>
   <g id="patch_2">
    <path d="M 273.578301 141.111539 
C 274.861459 141.111539 276.092236 140.601735 276.999566 139.694405 
C 277.906896 138.787075 278.416701 137.556298 278.416701 136.273139 
C 278.416701 134.989981 277.906896 133.759204 276.999566 132.851874 
C 276.092236 131.944544 274.861459 131.434739 273.578301 131.434739 
C 272.295142 131.434739 271.064366 131.944544 270.157035 132.851874 
C 269.249705 133.759204 268.739901 134.989981 268.739901 136.273139 
C 268.739901 137.556298 269.249705 138.787075 270.157035 139.694405 
C 271.064366 140.601735 272.295142 141.111539 273.578301 141.111539 
L 273.578301 141.111539 
z
" clip-path="url(#p91e810a12d)" style="fill: none; stroke: #ffa500; stroke-width: 2; stroke-linejoin: miter"/>
   </g>
  </g>
 </g>
 <defs>
  <clipPath id="p91e810a12d">
   <rect x="172.447496" y="41.472" width="127.425009" height="266.112"/>
  </clipPath>
 </defs>
</svg>
